<svg width="19" height="19" viewBox="0 0 19 19" fill="none" xmlns="http://www.w3.org/2000/svg">
<path d="M9.90039 18.1C14.871 18.1 18.9004 14.0705 18.9004 9.09998C18.9004 4.12941 14.871 0.0999756 9.90039 0.0999756C4.92983 0.0999756 0.900391 4.12941 0.900391 9.09998C0.900391 14.0705 4.92983 18.1 9.90039 18.1Z" fill="#2F65F6"/>
<path d="M8.59961 14.3C8.29961 14 8.09961 13.6 8.09961 13.1C8.09961 12.6 8.29961 12.2 8.59961 11.9C8.89961 11.6 9.39966 11.4 9.89966 11.4C10.3997 11.4 10.8996 11.6 11.1996 11.9C11.4996 12.2 11.6996 12.6 11.6996 13.1C11.6996 13.6 11.4996 14 11.1996 14.3C10.8996 14.6 10.3997 14.8 9.89966 14.8C9.39966 14.8 8.99961 14.7 8.59961 14.3ZM8.09961 3.40002H11.7996L11.1996 10.6H8.79962L8.09961 3.40002Z" fill="white"/>
</svg>
