<svg width="15" height="19" viewBox="0 0 15 19" fill="none" xmlns="http://www.w3.org/2000/svg">
<path d="M6.8337 13.8727C6.8337 13.7602 6.8281 13.6477 6.8337 13.5353C6.84491 13.226 6.81688 12.9729 6.57022 12.7086C6.11615 12.2306 6.22826 11.4659 6.7384 11.0385C7.23733 10.6168 7.99412 10.6786 8.42017 11.1735C8.85183 11.6683 8.81819 12.4162 8.33048 12.8605C8.22397 12.9617 8.17912 13.0517 8.17912 13.1979C8.19033 13.659 8.18472 14.1257 8.18472 14.5868C8.18472 14.9973 7.89882 15.301 7.52323 15.3122C7.14203 15.3179 6.84491 15.0086 6.83931 14.5868C6.8337 14.3506 6.8337 14.1088 6.8337 13.8727Z" fill="#BFBDC7"/>
<path d="M14.9958 8.65992C14.9958 8.47997 14.9958 8.2944 14.9622 8.11446C14.7435 6.88857 13.8298 6.02258 12.6245 5.87075V5.10036C12.6245 2.28869 10.3429 0 7.53994 0H7.45585C4.6529 0 2.3713 2.28869 2.3713 5.10036V5.86513C2.30963 5.87075 2.25357 5.882 2.19751 5.89324C0.885733 6.14629 0.0112118 7.2316 0.0056059 8.59806C0 10.9711 0 13.3498 0 15.7228C0 15.8915 0.00560591 16.0602 0.0336354 16.2289C0.280295 17.5841 1.36784 18.4839 2.74689 18.4839C5.89181 18.4839 9.03672 18.4839 12.1872 18.4839C13.841 18.4839 14.9958 17.3367 14.9958 15.6778C15.0014 13.3385 15.0014 10.9992 14.9958 8.65992ZM3.77277 5.10036C3.77277 3.06471 5.42652 1.40583 7.45585 1.40583H7.54555C9.57489 1.40583 11.2286 3.06471 11.2286 5.10036V5.57834H3.77277V5.10036ZM13.6504 15.7003C13.6504 16.5776 13.0842 17.1343 12.2153 17.1399C10.64 17.1399 9.05914 17.1399 7.48388 17.1399C5.91984 17.1399 4.35579 17.1399 2.79735 17.1399C1.9004 17.1399 1.34542 16.5832 1.34542 15.6778C1.34542 13.3385 1.34542 10.9936 1.34542 8.6543C1.34542 7.75456 1.90601 7.19223 2.80295 7.19223C5.93665 7.19223 9.07035 7.19223 12.1984 7.19223C13.0842 7.19223 13.6504 7.74894 13.6504 8.6318C13.656 10.988 13.656 13.3442 13.6504 15.7003Z" fill="#BFBDC7"/>
</svg>
