<svg width="26" height="26" viewBox="0 0 26 26" fill="none" xmlns="http://www.w3.org/2000/svg">
<path d="M12.0002 0.5C12.5002 0.5 13.0002 0.5 13.6002 0.5C14.0002 0.6 14.5002 0.600012 14.9002 0.700012C18.1002 1.30001 20.8002 2.9 22.8002 5.5C25.0002 8.4 25.8002 11.8 25.1002 15.4C24.6002 18.3 23.1002 20.7 20.8002 22.6C18.0002 24.9 14.7002 25.9 11.1002 25.4C8.60019 25.1 6.40019 24.1 4.50019 22.4C2.30019 20.5 1.0002 18.1 0.400196 15.2C0.300196 14.7 0.300195 14.3 0.200195 13.8C0.200195 13.3 0.200195 12.8 0.200195 12.2C0.300195 11.8 0.300196 11.4 0.400196 10.9C0.800196 8.29999 2.00019 6.00001 3.80019 4.20001C5.70019 2.30001 7.90019 1.10001 10.5002 0.700012C11.1002 0.600012 11.5002 0.6 12.0002 0.5ZM12.7002 23.9C18.7002 23.9 23.6002 19 23.6002 13C23.6002 7 18.7002 2 12.7002 2C6.7002 2 1.80019 6.89999 1.80019 12.9C1.80019 19 6.7002 23.9 12.7002 23.9Z" fill="black"/>
<path d="M12.0002 13.8C11.3002 13.8 10.6002 13.8 9.9002 13.8C9.0002 13.8 7.40019 13.8 6.50019 13.8C6.00019 13.8 5.7002 13.5 5.7002 13C5.7002 12.6 6.00019 12.2 6.50019 12.2C7.90019 12.2 10.2002 12.2 11.6002 12.2C11.7002 12.2 11.8002 12.2 11.9002 12.2C11.9002 12.1 11.9002 12 11.9002 11.9C11.9002 10.4 11.9002 8.2 11.9002 6.7C11.9002 6.1 12.4002 5.69999 13.0002 5.89999C13.3002 5.99999 13.5002 6.3 13.5002 6.7C13.5002 8.1 13.5002 10.4 13.5002 11.8C13.5002 11.9 13.5002 12 13.5002 12.1C13.6002 12.1 13.7002 12.1 13.8002 12.1C15.3002 12.1 17.5002 12.1 19.0002 12.1C19.6002 12.1 20.0002 12.7 19.8002 13.2C19.7002 13.5 19.4002 13.7 19.0002 13.7C17.6002 13.7 15.3002 13.7 13.9002 13.7C13.8002 13.7 13.7002 13.7 13.6002 13.7C13.6002 13.8 13.6002 13.9 13.6002 14C13.6002 15.5 13.6002 17.7 13.6002 19.2C13.6002 19.6 13.4002 19.9 13.0002 20C12.7002 20.1 12.3002 20 12.2002 19.7C12.1002 19.5 12.1002 19.3 12.1002 19.2C12.1002 17.8 12.1002 15.6 12.1002 14.1C12.0002 14 12.0002 13.9 12.0002 13.8Z" fill="black"/>
</svg>
