<svg width="24" height="24" viewBox="0 0 24 24" fill="none" xmlns="http://www.w3.org/2000/svg">
<path d="M12 23.5C18.3513 23.5 23.5 18.3513 23.5 12C23.5 5.64873 18.3513 0.5 12 0.5C5.64873 0.5 0.5 5.64873 0.5 12C0.5 18.3513 5.64873 23.5 12 23.5Z" fill="#D2D2D8"/>
<path d="M11.0663 14.548V14.4706C11.0749 13.6495 11.1609 12.9961 11.3242 12.5104C11.4876 12.0246 11.7197 11.6313 12.0206 11.3304C12.3215 11.0294 12.6826 10.7522 13.1039 10.4986C13.3575 10.3438 13.5854 10.1611 13.7874 9.95046C13.9895 9.73552 14.1485 9.48835 14.2646 9.20893C14.3849 8.92951 14.4451 8.62 14.4451 8.2804C14.4451 7.85912 14.3463 7.49373 14.1485 7.18422C13.9508 6.87471 13.6864 6.63613 13.3554 6.46848C13.0244 6.30083 12.6568 6.217 12.2528 6.217C11.9003 6.217 11.5607 6.29008 11.234 6.43624C10.9073 6.58239 10.6343 6.81238 10.4151 7.12619C10.1958 7.43999 10.069 7.85052 10.0346 8.35778H8.40969C8.44408 7.62699 8.63322 7.00152 8.97712 6.48137C9.32532 5.96123 9.78314 5.56359 10.3506 5.28847C10.9223 5.01335 11.5564 4.87579 12.2528 4.87579C13.0093 4.87579 13.6671 5.02625 14.2259 5.32716C14.789 5.62807 15.2232 6.04075 15.5284 6.5652C15.8379 7.08965 15.9927 7.68717 15.9927 8.35778C15.9927 8.83064 15.9196 9.25836 15.7734 9.64095C15.6316 10.0235 15.4252 10.3653 15.1544 10.6662C14.8879 10.9671 14.5655 11.2336 14.1872 11.4658C13.8089 11.7022 13.5059 11.9515 13.278 12.2138C13.0502 12.4717 12.8847 12.779 12.7815 13.1358C12.6783 13.4926 12.6225 13.9375 12.6139 14.4706V14.548H11.0663ZM11.8917 18.3653C11.5736 18.3653 11.3006 18.2513 11.0728 18.0235C10.8449 17.7957 10.731 17.5227 10.731 17.2046C10.731 16.8865 10.8449 16.6135 11.0728 16.3857C11.3006 16.1578 11.5736 16.0439 11.8917 16.0439C12.2098 16.0439 12.4828 16.1578 12.7106 16.3857C12.9384 16.6135 13.0523 16.8865 13.0523 17.2046C13.0523 17.4152 12.9986 17.6087 12.8911 17.7849C12.788 17.9612 12.6483 18.103 12.472 18.2105C12.3001 18.3137 12.1066 18.3653 11.8917 18.3653Z" fill="white"/>
</svg>
