<svg width="18" height="21" viewBox="0 0 18 21" fill="none" xmlns="http://www.w3.org/2000/svg">
<path d="M17.5 5.5C17.5 4.8 17.5 4 17.5 3.3C17.5 1.7 16.4 0.400006 14.9 0.100006C14.8 0.100006 14.7 0.1 14.6 0C12.4 0 9.7 0 7.2 0C5.7 0 4.3 0 3 0C2.9 0 2.8 6.10203e-06 2.7 0.100006H2.6C2.5 0.100006 2.3 0.199997 2.2 0.199997H2.1C2 0.299997 1.8 0.299994 1.7 0.399994C1.7 0.399994 1.6 0.4 1.6 0.5C1.5 0.6 1.3 0.700003 1.2 0.800003C0.599997 1.3 0.199998 1.9 0.0999985 2.7C0.0999985 2.9 0 3.19999 0 3.39999C0 5.69999 0 8.09999 0 10.4C0 12.7 0 15.1 0 17.4C0 17.6 -1.52737e-06 17.9 0.0999985 18.1C0.199998 18.8 0.599997 19.5 1.2 20C1.3 20.1 1.4 20.2 1.6 20.3C1.6 20.3 1.7 20.3 1.7 20.4C1.8 20.5 2 20.5 2.1 20.6H2.2C2.3 20.6 2.5 20.7 2.6 20.7H2.7C2.8 20.7 2.9 20.7 3 20.8C4.1 20.8 6.2 20.8 7.2 20.8C9.7 20.8 12.4 20.8 14.6 20.8C14.7 20.8 14.8 20.8 14.9 20.7C16.4 20.4 17.5 19.1 17.5 17.5C17.5 15.8 17.5 7.1 17.5 5.5ZM15.3 18.7C15 18.9 14.7 19 14.3 19C12 19 9.3 19 6.8 19C6.7 19 6.7 19 6.6 19C5.6 19 4.7 19 3.8 19C3.7 19 3.6 19 3.5 19C3.2 19 2.9 18.9 2.7 18.8C2.4 18.7 2.2 18.5 2 18.2L1.9 18.1C1.8 18 1.8 17.9 1.8 17.7V17.6C1.8 17.5 1.8 17.4 1.8 17.2C1.8 14.9 1.8 12.6 1.8 10.2C1.8 7.9 1.8 5.6 1.8 3.2C1.8 3.1 1.8 2.9 1.8 2.8V2.7C1.8 2.6 1.9 2.5 1.9 2.3C1.9 2.3 1.9 2.2 2 2.2C2.1 2 2.4 1.80001 2.7 1.60001C2.9 1.50001 3.2 1.39999 3.5 1.39999C3.6 1.39999 3.7 1.39999 3.8 1.39999C4.7 1.39999 5.7 1.39999 6.7 1.39999H6.8C9.4 1.39999 12.1 1.39999 14.4 1.39999C14.8 1.39999 15.1 1.5 15.4 1.7C15.9 2.1 16 2.50001 16 3.10001C16 4.00001 16 4.8 16 5.7C16 8 16 15.6 16 17.1C15.9 17.9 15.7 18.4 15.3 18.7Z" fill="#CECECE"/>
<path d="M9.30078 4.80005C10.7008 4.80005 12.1008 4.80005 13.4008 4.80005C14.0008 4.80005 14.4008 5.40004 14.2008 5.90004C14.1008 6.20004 13.8008 6.40004 13.5008 6.40004C13.4008 6.40004 13.2008 6.40004 13.1008 6.40004C10.5008 6.40004 6.90078 6.40004 4.20078 6.40004C3.70078 6.40004 3.30078 6.00005 3.30078 5.60005C3.30078 5.10005 3.70078 4.80005 4.10078 4.80005C5.20078 4.80005 7.30079 4.80005 8.40079 4.80005C8.80079 4.80005 9.00078 4.80005 9.30078 4.80005Z" fill="#CECECE"/>
<path d="M9.29823 9.69997C7.89823 9.69997 5.49823 9.69997 4.19823 9.69997C3.69823 9.69997 3.29824 9.29997 3.39824 8.79997C3.39824 8.39997 3.69824 8.19998 4.09824 8.09998H4.19823C6.89823 8.09998 10.6982 8.09998 13.3982 8.09998C13.8982 8.09998 14.1982 8.39996 14.2982 8.89996C14.2982 9.39996 13.9982 9.69997 13.4982 9.69997C12.4982 9.69997 11.5982 9.69997 10.5982 9.69997C10.0982 9.69997 9.69823 9.69997 9.29823 9.69997Z" fill="#CECECE"/>
<path d="M9.29823 13.2C7.89823 13.2 5.49823 13.2 4.19823 13.2C3.69823 13.2 3.29824 12.8 3.39824 12.3C3.39824 11.9 3.69824 11.7 4.09824 11.6H4.19823C6.89823 11.6 10.6982 11.6 13.3982 11.6C13.8982 11.6 14.1982 11.9 14.2982 12.4C14.2982 12.9 13.9982 13.2 13.4982 13.2C12.4982 13.2 11.5982 13.2 10.5982 13.2C10.0982 13.2 9.69823 13.2 9.29823 13.2Z" fill="#CECECE"/>
</svg>
