<svg width="22" height="22" viewBox="0 0 22 22" fill="none" xmlns="http://www.w3.org/2000/svg">
<path d="M20.2294 1.35451C19.5294 0.954511 18.7294 0.654514 17.7294 0.454514C17.1294 0.354514 16.5294 0.254513 15.9294 0.254513C15.0294 0.254513 14.1294 0.35451 13.2294 0.65451C12.3294 0.954511 11.8294 1.25451 11.0294 1.95451C10.1294 0.954514 8.92941 0.554511 7.82941 0.354511C7.22941 0.254511 6.62939 0.15451 6.02939 0.15451C5.12939 0.15451 4.22941 0.254512 3.32941 0.554512C2.82941 0.754512 2.32941 0.954513 1.82941 1.25451C1.12941 1.65451 0.729395 2.25451 0.629395 2.95451V15.3545C0.929395 16.5545 1.72938 17.0545 2.42938 17.4545C3.32938 17.8545 4.32939 18.1545 5.52939 18.1545H5.62939C5.72939 19.0545 6.22939 19.5545 6.62939 19.8545C7.22939 20.3545 8.02938 20.6545 8.92938 20.8545C9.62938 21.0545 10.4294 21.0545 11.0294 21.0545C12.0294 21.0545 13.0294 20.8545 14.0294 20.5545C14.6294 20.3545 15.1294 20.0545 15.6294 19.6545C16.1294 19.1545 16.4294 18.6545 16.4294 18.0545C16.5294 18.0545 16.6294 18.0545 16.6294 18.0545C16.9294 18.0545 17.1294 18.0545 17.4294 17.9545C18.6294 17.7545 19.5294 17.4545 20.2294 16.9545C20.5294 16.7545 20.7294 16.5545 20.9294 16.3545C21.2294 16.0545 21.4294 15.7545 21.5294 15.2545V2.85451C21.4294 2.35451 21.0294 1.85451 20.2294 1.35451ZM1.52939 3.25451C1.52939 3.25451 1.52939 3.35451 1.52939 3.25451C1.52939 3.35451 1.52939 3.25451 1.52939 3.25451ZM20.6294 14.7545C20.6294 15.0545 20.6294 15.3545 20.5294 15.5545C20.6294 15.3545 20.7294 15.0545 20.6294 14.7545C20.6294 14.4545 20.6294 14.1545 20.6294 13.8545C19.8294 14.4545 19.0294 14.7545 18.1294 14.9545C19.0294 14.7545 19.8294 14.4545 20.6294 13.8545C20.6294 14.1545 20.6294 14.4545 20.6294 14.7545ZM7.02939 18.7545C6.82939 18.5545 6.7294 18.3545 6.7294 18.0545C6.7294 17.7545 6.7294 17.5545 6.7294 17.2545C6.7294 17.2545 6.7294 17.1545 6.7294 17.0545C7.6294 17.6545 8.52941 17.9545 9.32941 18.1545H9.42938C9.72938 18.1545 9.92938 17.9545 9.92938 17.6545C10.0294 17.2545 9.82938 16.9545 9.42938 16.9545C8.82938 16.8545 8.12938 16.6545 7.42938 16.2545C7.32938 16.1545 7.12939 16.0545 7.02939 15.9545C6.72939 15.6545 6.62939 15.4545 6.62939 15.0545C6.62939 14.8545 6.62939 14.5545 6.62939 14.3545V14.2545C7.82939 15.0545 9.12938 15.4545 10.9294 15.4545C12.2294 15.4545 13.8294 15.3545 15.3294 14.2545C15.3294 14.3545 15.3294 14.3545 15.3294 14.4545C15.3294 14.7545 15.3294 15.1545 15.3294 15.4545C15.3294 15.5545 15.2294 15.7545 15.1294 15.9545C14.7294 16.4545 14.2294 16.6545 13.7294 16.8545C13.3294 16.9545 13.0294 17.0545 12.6294 17.1545C12.2294 17.2545 12.0294 17.5545 12.1294 17.8545C12.1294 18.1545 12.3294 18.3545 12.6294 18.3545C12.7294 18.3545 12.7294 18.3545 12.8294 18.3545C13.5294 18.1545 14.5294 17.9545 15.3294 17.3545C15.3294 17.4545 15.3294 17.4545 15.3294 17.5545C15.3294 17.9545 15.3294 18.2545 15.3294 18.5545C15.3294 18.6545 15.2294 18.8545 15.0294 19.0545C14.7294 19.4545 14.2294 19.6545 13.6294 19.8545C12.7294 20.1545 11.8294 20.2545 10.9294 20.2545C9.82938 20.2545 8.82941 20.0545 7.82941 19.5545C7.62941 19.2545 7.32939 19.0545 7.02939 18.7545ZM6.92938 11.5545C7.02938 11.4545 7.02939 11.4545 7.12939 11.3545C7.02939 11.4545 6.92938 11.5545 6.92938 11.5545C6.72938 11.7545 6.62939 11.9545 6.62939 12.2545C6.62939 12.0545 6.72938 11.8545 6.92938 11.5545ZM6.02939 11.0545C6.02939 11.1545 5.92939 11.1545 6.02939 11.0545C4.92939 11.0545 3.62941 10.9545 2.32941 10.2545C2.22941 10.1545 2.12938 10.0545 1.92938 9.95451C1.62938 9.65451 1.42939 9.35451 1.52939 8.95451C1.52939 8.75451 1.52939 8.45451 1.52939 8.25451V8.15451C2.62939 8.95451 4.22939 9.35451 6.02939 9.35451C7.82939 9.35451 9.42938 8.95451 10.4294 8.15451V9.15451C10.3294 9.15451 10.2294 9.15451 10.0294 9.25451C9.72939 9.25451 9.32939 9.35451 9.02939 9.45451C8.02939 9.65451 7.3294 9.95451 6.7294 10.4545C6.5294 10.5545 6.4294 10.7545 6.2294 10.9545C6.2294 10.9545 6.12939 10.9545 6.02939 11.0545ZM2.32941 16.1545C2.22941 16.0545 2.12938 15.9545 1.92938 15.8545C1.62938 15.5545 1.42939 15.2545 1.52939 14.8545C1.52939 14.6545 1.52939 14.3545 1.52939 14.1545V14.0545C2.82939 14.9545 4.22939 15.1545 5.62939 15.2545V17.0545C5.52939 17.0545 5.42941 17.0545 5.32941 17.0545C5.02941 17.0545 4.72938 16.9545 4.42938 16.9545C3.62938 16.7545 2.92941 16.5545 2.32941 16.1545ZM4.7294 14.0545C3.7294 13.8545 3.02941 13.6545 2.32941 13.2545C2.22941 13.1545 2.02938 13.0545 1.92938 12.9545C1.62938 12.7545 1.52939 12.4545 1.52939 12.0545C1.52939 11.8545 1.52939 11.5545 1.52939 11.3545V11.2545C2.12939 11.6545 2.72938 11.9545 3.42938 12.1545C3.92938 12.2545 4.42938 12.3545 4.92938 12.4545C5.12938 12.4545 5.32939 12.5545 5.52939 12.5545V14.2545C5.42939 14.2545 5.42941 14.2545 5.32941 14.2545C5.22941 14.0545 5.0294 14.0545 4.7294 14.0545ZM2.62939 13.4545C2.52939 13.3545 2.42941 13.3545 2.32941 13.2545C2.22941 13.1545 2.12939 13.1545 2.12939 13.0545C2.22939 13.1545 2.32941 13.1545 2.32941 13.2545C2.42941 13.3545 2.52939 13.4545 2.62939 13.4545ZM1.62939 12.6545C1.62939 12.5545 1.52939 12.5545 1.52939 12.4545C1.52939 12.5545 1.62939 12.6545 1.62939 12.6545ZM2.52939 14.4545C2.22939 14.3545 1.92939 14.1545 1.62939 13.9545C1.92939 14.1545 2.22939 14.3545 2.52939 14.4545ZM4.62939 15.1545C4.02939 15.0545 3.52939 14.9545 3.02939 14.7545C3.52939 14.9545 4.12939 15.0545 4.62939 15.1545C5.02939 15.2545 5.3294 15.2545 5.7294 15.2545C5.4294 15.1545 5.02939 15.1545 4.62939 15.1545ZM5.42938 14.1545C5.52938 14.1545 5.6294 14.1545 5.7294 14.1545C5.7294 13.4545 5.7294 12.8545 5.7294 12.2545C5.2294 12.1545 4.62939 12.0545 4.12939 11.9545C4.62939 12.0545 5.2294 12.1545 5.7294 12.2545C5.7294 12.8545 5.7294 13.4545 5.7294 14.1545C5.6294 14.2545 5.52938 14.2545 5.42938 14.1545ZM1.52939 7.95451L1.62939 8.05451C1.52939 7.95451 1.52939 7.95451 1.52939 7.95451ZM1.92938 2.75451C2.42938 2.25451 3.02939 2.05451 3.62939 1.85451C4.32939 1.65451 5.2294 1.55451 6.2294 1.45451C7.2294 1.45451 8.42939 1.55451 9.62939 2.25451C9.82939 2.35451 10.1294 2.55451 10.3294 2.75451C10.5294 2.95451 10.6294 3.15451 10.6294 3.35451C10.6294 3.55451 10.5294 3.75451 10.3294 3.95451C10.0294 4.25451 9.72941 4.45451 9.32941 4.55451C8.42941 4.95451 7.32939 5.15451 6.12939 5.15451C5.92939 5.15451 5.72938 5.15451 5.42938 5.15451C4.42938 5.05451 3.52941 4.85451 2.82941 4.55451C2.52941 4.35451 2.12938 4.15451 1.92938 3.95451C1.72938 3.75451 1.62939 3.55451 1.62939 3.35451C1.62939 3.15451 1.72938 2.95451 1.92938 2.75451ZM9.32941 5.75451C9.22941 5.75451 9.12939 5.85451 9.02939 5.85451C9.12939 5.85451 9.22941 5.75451 9.32941 5.75451ZM8.7294 5.95451C8.6294 5.95451 8.52938 6.05451 8.42938 6.05451C8.52938 6.05451 8.6294 5.95451 8.7294 5.95451ZM8.12939 6.15451C8.02939 6.15451 7.92941 6.15451 7.82941 6.25451C7.92941 6.15451 8.02939 6.15451 8.12939 6.15451ZM7.52939 6.25451C7.42939 6.25451 7.3294 6.25451 7.2294 6.25451C7.3294 6.25451 7.42939 6.25451 7.52939 6.25451ZM6.92938 6.25451C6.82938 6.25451 6.72939 6.25451 6.62939 6.25451C6.72939 6.25451 6.82938 6.25451 6.92938 6.25451ZM6.32941 5.35451C6.42941 5.35451 6.52939 5.35451 6.62939 5.35451C6.52939 5.35451 6.42941 5.35451 6.32941 5.35451ZM7.2294 5.25451C7.3294 5.25451 7.42939 5.25451 7.52939 5.25451C7.42939 5.25451 7.3294 5.25451 7.2294 5.25451ZM8.12939 5.05451C8.22939 5.05451 8.32938 5.05451 8.42938 4.95451C8.32938 5.05451 8.22939 5.05451 8.12939 5.05451ZM10.2294 7.05451C10.3294 7.05451 10.3294 6.95451 10.2294 7.05451C10.3294 6.95451 10.3294 7.05451 10.2294 7.05451ZM5.82941 8.25451H5.92938C5.92938 8.25451 5.92941 8.25451 5.82941 8.25451ZM5.7294 9.25451C5.6294 9.25451 5.52938 9.25451 5.42938 9.25451C5.52938 9.25451 5.6294 9.25451 5.7294 9.25451ZM5.02939 9.25451C4.92939 9.25451 4.8294 9.25451 4.7294 9.25451C4.8294 9.15451 4.92939 9.25451 5.02939 9.25451ZM4.42938 9.15451C4.32938 9.15451 4.22939 9.15451 4.12939 9.05451C4.22939 9.05451 4.32938 9.15451 4.42938 9.15451ZM3.82941 8.95451C3.72941 8.95451 3.62939 8.95451 3.52939 8.85451C3.62939 8.95451 3.72941 8.95451 3.82941 8.95451ZM3.2294 8.85451C3.1294 8.85451 3.02938 8.75451 2.92938 8.75451C3.02938 8.75451 3.1294 8.75451 3.2294 8.85451ZM3.12939 7.75451C3.02939 7.75451 2.8294 7.65451 2.7294 7.55451C2.9294 7.65451 3.02939 7.75451 3.12939 7.75451ZM7.42938 9.15451C7.42938 9.15451 7.32938 9.15451 7.42938 9.15451C7.32938 9.15451 7.42938 9.15451 7.42938 9.15451ZM6.12939 9.25451C6.02939 9.25451 6.02939 9.25451 6.02939 9.25451C6.12939 9.25451 6.12939 9.25451 6.12939 9.25451ZM6.92938 8.25451C7.02938 8.25451 7.22941 8.25451 7.32941 8.25451C7.22941 8.25451 7.02938 8.25451 6.92938 8.25451ZM9.7294 7.45451C9.9294 7.35451 10.0294 7.25451 10.2294 7.05451C10.1294 7.15451 9.9294 7.35451 9.7294 7.45451ZM10.6294 7.95451C10.6294 8.35451 10.6294 8.85451 10.6294 9.25451C10.6294 8.85451 10.6294 8.35451 10.6294 7.95451ZM10.6294 4.95451C10.6294 5.15451 10.6294 5.45451 10.6294 5.65451C10.6294 5.45451 10.6294 5.25451 10.6294 4.95451ZM10.3294 3.95451C10.2294 4.05451 10.0294 4.15451 9.92938 4.25451C10.0294 4.25451 10.2294 4.15451 10.3294 3.95451C10.4294 3.85451 10.5294 3.75451 10.6294 3.65451C10.5294 3.75451 10.4294 3.85451 10.3294 3.95451ZM10.3294 5.15451C10.2294 5.25451 10.1294 5.25451 10.1294 5.35451C10.2294 5.25451 10.2294 5.25451 10.3294 5.15451ZM9.92938 5.45451C9.82938 5.55451 9.72939 5.55451 9.62939 5.65451C9.62939 5.55451 9.82938 5.55451 9.92938 5.45451ZM2.82941 4.65451C3.02941 4.75451 3.22938 4.85451 3.42938 4.95451C3.22938 4.85451 3.02941 4.75451 2.82941 4.65451C2.62941 4.55451 2.42939 4.35451 2.12939 4.25451C2.32939 4.45451 2.62941 4.55451 2.82941 4.65451ZM6.02939 6.35451C6.12939 6.35451 6.22941 6.35451 6.32941 6.35451C6.32941 6.35451 6.22939 6.35451 6.02939 6.35451C5.22939 6.35451 4.42939 6.25451 3.62939 6.05451C4.42939 6.25451 5.22939 6.35451 6.02939 6.35451ZM6.02939 6.45451C7.82939 6.45451 9.32939 6.05451 10.5294 5.25451C10.5294 5.35451 10.5294 5.35451 10.5294 5.45451C10.5294 5.75451 10.5294 6.15451 10.5294 6.45451C10.5294 6.65451 10.4294 6.85451 10.2294 7.05451C9.7294 7.55451 9.1294 7.75451 8.7294 7.85451C7.8294 8.15451 6.92939 8.25451 6.12939 8.25451C5.12939 8.25451 4.22941 8.05451 3.32941 7.75451C2.82941 7.55451 2.42939 7.35451 2.02939 6.95451C1.72939 6.75451 1.6294 6.45451 1.7294 6.15451C1.7294 5.85451 1.7294 5.65451 1.7294 5.35451V5.25451C2.8294 6.05451 4.22939 6.45451 6.02939 6.45451ZM2.62939 8.65451C2.52939 8.65451 2.42938 8.55451 2.42938 8.55451C2.42938 8.55451 2.52939 8.55451 2.62939 8.65451ZM2.12939 8.35451C2.02939 8.35451 2.02938 8.25451 1.92938 8.25451C1.92938 8.25451 2.02939 8.35451 2.12939 8.35451ZM9.12939 9.45451H9.2294H9.12939H9.02939H9.12939ZM11.4294 10.3545C12.3294 10.3545 13.4294 10.5545 14.5294 11.1545C14.8294 11.2545 15.0294 11.5545 15.2294 11.7545C15.5294 12.0545 15.5294 12.4545 15.2294 12.7545C14.8294 13.1545 14.4294 13.4545 13.9294 13.5545C13.0294 13.8545 12.1294 14.0545 11.1294 14.0545C10.9294 14.0545 10.7294 14.0545 10.4294 14.0545C9.42938 13.9545 8.62938 13.7545 7.92938 13.4545C7.52938 13.2545 7.22939 13.0545 7.02939 12.7545C6.62939 12.3545 6.62939 12.0545 7.02939 11.5545C7.42939 11.0545 8.02939 10.8545 8.52939 10.6545C9.32939 10.3545 10.1294 10.2545 11.2294 10.2545C11.2294 10.3545 11.3294 10.3545 11.4294 10.3545ZM11.0294 15.2545C12.6294 15.2545 14.1294 14.9545 15.5294 13.9545C14.1294 14.9545 12.6294 15.2545 11.0294 15.2545C10.4294 15.2545 9.82941 15.2545 9.32941 15.1545C9.92941 15.1545 10.4294 15.2545 11.0294 15.2545ZM11.2294 14.2545C11.3294 14.2545 11.4294 14.2545 11.5294 14.2545C11.4294 14.2545 11.3294 14.2545 11.2294 14.2545ZM12.0294 14.1545C12.1294 14.1545 12.2294 14.1545 12.3294 14.1545C12.2294 14.1545 12.1294 14.1545 12.0294 14.1545ZM12.9294 14.0545C13.0294 14.0545 13.1294 14.0545 13.2294 13.9545C13.1294 13.9545 13.0294 13.9545 12.9294 14.0545ZM9.7294 14.1545C9.1294 14.0545 8.52938 13.9545 7.92938 13.6545C8.42938 13.8545 9.0294 14.0545 9.7294 14.1545ZM8.7294 14.9545C8.0294 14.7545 7.22939 14.4545 6.52939 13.9545C7.32939 14.4545 8.0294 14.7545 8.7294 14.9545ZM9.42938 17.0545C9.72938 17.1545 9.82941 17.3545 9.82941 17.6545C9.92941 17.3545 9.72938 17.0545 9.42938 17.0545ZM9.7294 17.8545C9.7294 17.9545 9.7294 17.9545 9.7294 17.8545C9.7294 17.9545 9.7294 17.9545 9.7294 17.8545ZM9.32941 18.0545H9.42938H9.32941C8.62941 17.9545 7.9294 17.7545 7.2294 17.3545C7.9294 17.6545 8.62941 17.8545 9.32941 18.0545ZM7.12939 16.0545C7.22939 16.1545 7.32938 16.2545 7.42938 16.2545C7.62938 16.3545 7.72938 16.4545 7.92938 16.5545C7.72938 16.4545 7.62938 16.3545 7.42938 16.2545C7.32938 16.2545 7.22939 16.1545 7.12939 16.0545ZM12.3294 17.2545L12.4294 17.1545C12.4294 17.2545 12.3294 17.2545 12.3294 17.2545ZM12.8294 18.0545H12.7294H12.8294ZM12.7294 17.0545C13.1294 16.9545 13.4294 16.8545 13.8294 16.7545C14.0294 16.6545 14.2294 16.5545 14.4294 16.5545C14.2294 16.6545 14.0294 16.7545 13.8294 16.7545C13.4294 16.8545 13.1294 16.9545 12.7294 17.0545ZM15.5294 16.8545C15.4294 16.9545 15.4294 16.9545 15.3294 16.9545C15.3294 16.9545 15.4294 16.9545 15.5294 16.8545C15.5294 17.3545 15.5294 17.8545 15.5294 18.2545C15.5294 17.8545 15.5294 17.3545 15.5294 16.8545ZM15.2294 15.8545C15.2294 15.9545 15.1294 15.9545 15.0294 16.0545C15.1294 15.9545 15.2294 15.8545 15.2294 15.8545C15.3294 15.7545 15.4294 15.5545 15.5294 15.3545C15.5294 15.4545 15.3294 15.6545 15.2294 15.8545ZM15.3294 12.7545C15.4294 12.5545 15.5294 12.4545 15.5294 12.2545C15.5294 12.0545 15.4294 11.8545 15.2294 11.6545C15.4294 11.8545 15.5294 12.0545 15.5294 12.2545C15.5294 12.3545 15.4294 12.5545 15.3294 12.7545ZM11.5294 5.15451C12.7294 5.95451 14.1294 6.35451 16.0294 6.35451C17.9294 6.35451 19.3294 5.95451 20.5294 5.15451C20.5294 5.25451 20.5294 5.25451 20.5294 5.35451C20.5294 5.65451 20.5294 5.95451 20.5294 6.35451C20.5294 6.55451 20.4294 6.75451 20.2294 6.95451C19.7294 7.45451 19.2294 7.65451 18.7294 7.85451C17.8294 8.15451 16.9294 8.25451 16.1294 8.25451C15.1294 8.25451 14.2294 8.05451 13.3294 7.75451C12.8294 7.55451 12.4294 7.35451 12.0294 6.95451C11.7294 6.75451 11.6294 6.45451 11.7294 6.15451C11.7294 5.85451 11.7294 5.65451 11.7294 5.35451C11.6294 5.25451 11.6294 5.25451 11.5294 5.15451ZM20.5294 8.85451C20.6294 9.35451 20.4294 9.75451 20.0294 10.0545C19.4294 10.4545 18.8294 10.7545 18.0294 10.9545C17.6294 11.0545 17.1294 11.0545 16.7294 11.1545C16.6294 11.1545 16.4294 11.1545 16.3294 11.1545C16.2294 11.1545 16.2294 11.1545 16.2294 11.1545C15.7294 10.4545 15.0294 10.0545 14.4294 9.75451C13.6294 9.45451 12.8294 9.25451 11.7294 9.15451V8.15451C12.9294 8.95451 14.3294 9.35451 16.2294 9.35451C18.0294 9.35451 19.4294 8.95451 20.7294 8.15451V8.25451C20.5294 8.45451 20.5294 8.65451 20.5294 8.85451ZM15.8294 8.25451H15.9294H15.8294ZM13.5294 8.95451C12.8294 8.75451 12.1294 8.45451 11.4294 7.95451C12.1294 8.45451 12.8294 8.75451 13.5294 8.95451ZM16.0294 9.25451C16.1294 9.25451 16.1294 9.25451 16.2294 9.25451C16.2294 9.25451 16.1294 9.25451 16.0294 9.25451ZM18.8294 8.85451C18.6294 8.95451 18.5294 8.95451 18.3294 8.95451C18.5294 8.95451 18.7294 8.95451 18.8294 8.85451ZM18.1294 9.05451C18.0294 9.05451 17.9294 9.15451 17.8294 9.15451C17.9294 9.15451 18.0294 9.05451 18.1294 9.05451ZM17.5294 9.15451C17.4294 9.15451 17.3294 9.15451 17.2294 9.15451C17.3294 9.25451 17.4294 9.15451 17.5294 9.15451ZM16.9294 9.25451C16.8294 9.25451 16.7294 9.25451 16.6294 9.25451C16.7294 9.25451 16.8294 9.25451 16.9294 9.25451ZM16.9294 8.25451C17.0294 8.25451 17.2294 8.25451 17.3294 8.25451C17.1294 8.25451 17.0294 8.25451 16.9294 8.25451ZM11.6294 9.25451C12.3294 9.25451 12.9294 9.35451 13.6294 9.55451C12.9294 9.45451 12.2294 9.35451 11.6294 9.25451ZM20.5294 14.7545C20.6294 15.2545 20.4294 15.6545 19.9294 15.9545C19.1294 16.5545 18.3294 16.7545 17.6294 16.8545C17.3294 16.9545 17.0294 16.9545 16.7294 16.9545C16.6294 16.9545 16.5294 16.9545 16.4294 16.9545V15.1545C17.8294 15.0545 19.2294 14.8545 20.5294 13.9545V14.0545C20.5294 14.3545 20.5294 14.5545 20.5294 14.7545ZM16.3294 17.2545C16.5294 17.2545 16.8294 17.1545 17.0294 17.1545C16.8294 17.1545 16.5294 17.1545 16.3294 17.2545ZM17.1294 14.1545C17.7294 14.0545 18.2294 13.9545 18.7294 13.7545C18.2294 13.9545 17.6294 14.0545 17.1294 14.1545ZM19.4294 13.3545C18.4294 13.8545 17.3294 14.0545 16.4294 14.0545V12.2545C17.7294 12.1545 19.2294 11.9545 20.5294 11.0545C20.5294 11.1545 20.5294 11.1545 20.5294 11.2545C20.5294 11.5545 20.5294 11.8545 20.5294 12.1545C20.5294 12.3545 20.4294 12.5545 20.2294 12.6545C20.0294 13.0545 19.7294 13.2545 19.4294 13.3545ZM16.3294 12.2545C16.5294 12.2545 16.6294 12.2545 16.8294 12.2545C16.7294 12.2545 16.5294 12.2545 16.3294 12.2545ZM18.4294 11.9545C18.1294 12.0545 17.8294 12.0545 17.5294 12.1545C17.8294 12.0545 18.1294 12.0545 18.4294 11.9545ZM20.0294 10.1545C20.1294 10.0545 20.2294 9.95451 20.3294 9.95451C20.2294 10.0545 20.1294 10.0545 20.0294 10.1545C19.7294 10.3545 19.3294 10.5545 19.0294 10.7545C19.4294 10.5545 19.7294 10.4545 20.0294 10.1545ZM20.6294 8.85451C20.6294 8.55451 20.6294 8.25451 20.6294 7.95451C20.2294 8.25451 19.9294 8.45451 19.5294 8.65451C19.9294 8.45451 20.2294 8.25451 20.6294 7.95451C20.6294 8.25451 20.6294 8.55451 20.6294 8.85451ZM19.0294 8.85451C19.2294 8.75451 19.3294 8.75451 19.5294 8.65451C19.3294 8.65451 19.1294 8.75451 19.0294 8.85451ZM20.6294 6.35451C20.6294 6.55451 20.4294 6.85451 20.2294 6.95451C20.0294 7.15451 19.8294 7.25451 19.6294 7.35451C19.8294 7.25451 20.0294 7.05451 20.2294 6.95451C20.4294 6.85451 20.6294 6.55451 20.6294 6.35451C20.6294 6.15451 20.6294 5.95451 20.6294 5.65451C20.6294 5.95451 20.6294 6.15451 20.6294 6.35451ZM20.6294 5.65451C20.6294 5.45451 20.6294 5.15451 20.6294 4.95451C20.2294 5.25451 19.9294 5.45451 19.5294 5.65451C19.9294 5.45451 20.2294 5.25451 20.6294 4.95451C20.6294 5.25451 20.6294 5.45451 20.6294 5.65451ZM20.1294 2.75451C20.3294 2.95451 20.5294 3.15451 20.5294 3.45451C20.5294 3.65451 20.4294 3.85451 20.1294 4.05451C19.7294 4.35451 19.4294 4.55451 19.0294 4.75451C18.1294 5.15451 17.2294 5.25451 16.1294 5.25451C15.9294 5.25451 15.6294 5.25451 15.4294 5.25451C14.4294 5.15451 13.5294 4.95451 12.8294 4.65451C12.5294 4.45451 12.2294 4.25451 11.9294 4.05451C11.7294 3.85451 11.6294 3.65451 11.6294 3.45451C11.6294 3.25451 11.7294 3.05451 11.9294 2.85451C12.4294 2.35451 13.0294 2.15451 13.6294 1.95451C14.4294 1.75451 15.2294 1.65451 16.2294 1.55451C17.1294 1.55451 18.4294 1.65451 19.6294 2.35451C19.7294 2.35451 19.9294 2.55451 20.1294 2.75451ZM20.6294 3.55451C20.6294 3.45451 20.6294 3.45451 20.6294 3.35451C20.6294 3.45451 20.6294 3.45451 20.6294 3.55451ZM13.6294 4.95451C13.3294 4.85451 13.1294 4.75451 12.8294 4.65451C13.0294 4.75451 13.3294 4.85451 13.6294 4.95451ZM15.4294 5.25451C15.2294 5.25451 15.0294 5.25451 14.7294 5.15451C14.9294 5.25451 15.2294 5.25451 15.4294 5.25451ZM18.2294 5.05451C18.1294 5.05451 18.0294 5.05451 17.9294 5.15451C18.1294 5.05451 18.1294 5.05451 18.2294 5.05451ZM17.4294 5.25451C17.3294 5.25451 17.2294 5.25451 17.1294 5.25451C17.2294 5.25451 17.3294 5.25451 17.4294 5.25451ZM16.5294 5.35451C16.4294 5.35451 16.3294 5.35451 16.2294 5.35451C16.3294 5.35451 16.4294 5.35451 16.5294 5.35451ZM19.1294 4.75451C19.1294 4.75451 19.2294 4.75451 19.2294 4.65451C19.1294 4.75451 19.1294 4.75451 19.1294 4.75451ZM19.5294 5.65451C19.3294 5.75451 19.2294 5.85451 19.0294 5.85451C19.1294 5.75451 19.3294 5.75451 19.5294 5.65451ZM20.2294 2.65451C20.1294 2.55451 20.0294 2.45451 19.9294 2.45451C20.0294 2.45451 20.1294 2.55451 20.2294 2.65451C20.4294 2.85451 20.5294 3.05451 20.6294 3.25451C20.6294 3.05451 20.5294 2.85451 20.2294 2.65451ZM16.1294 1.35451C15.2294 1.35451 14.3294 1.45451 13.5294 1.75451C14.3294 1.45451 15.2294 1.35451 16.1294 1.35451C16.7294 1.35451 17.4294 1.45451 18.0294 1.55451C17.4294 1.45451 16.7294 1.35451 16.1294 1.35451ZM11.8294 2.65451C11.8294 2.65451 11.9294 2.65451 11.8294 2.65451C11.9294 2.65451 11.8294 2.65451 11.8294 2.65451ZM15.4294 6.25451C15.6294 6.25451 15.8294 6.25451 16.0294 6.25451C16.1294 6.25451 16.2294 6.25451 16.4294 6.25451C16.3294 6.25451 16.2294 6.25451 16.1294 6.25451C15.8294 6.35451 15.6294 6.35451 15.4294 6.25451C14.0294 6.15451 12.7294 5.85451 11.4294 4.95451C12.7294 5.85451 14.0294 6.25451 15.4294 6.25451ZM18.9294 5.85451C18.7294 5.95451 18.6294 5.95451 18.4294 5.95451C18.5294 5.95451 18.7294 5.95451 18.9294 5.85451ZM18.2294 6.05451C18.1294 6.05451 17.9294 6.15451 17.8294 6.15451C17.9294 6.15451 18.1294 6.15451 18.2294 6.05451ZM17.5294 6.15451C17.4294 6.15451 17.3294 6.15451 17.2294 6.15451C17.3294 6.25451 17.4294 6.25451 17.5294 6.15451ZM16.9294 6.25451C16.8294 6.25451 16.7294 6.25451 16.6294 6.25451C16.7294 6.25451 16.8294 6.25451 16.9294 6.25451ZM14.5294 11.0545C14.6294 11.1545 14.7294 11.1545 14.8294 11.2545C14.7294 11.1545 14.6294 11.1545 14.5294 11.0545C14.3294 10.9545 14.1294 10.8545 13.9294 10.7545C14.1294 10.8545 14.3294 10.9545 14.5294 11.0545ZM10.5294 10.2545C10.6294 10.2545 10.7294 10.2545 10.8294 10.2545C10.7294 10.2545 10.6294 10.2545 10.5294 10.2545ZM9.12939 10.4545C9.22939 10.4545 9.32941 10.4545 9.32941 10.4545C9.32941 10.4545 9.22939 10.4545 9.12939 10.4545ZM9.82941 10.3545C9.92941 10.3545 10.0294 10.3545 10.1294 10.3545C10.0294 10.3545 9.92941 10.3545 9.82941 10.3545ZM10.0294 2.45451C10.1294 2.55451 10.2294 2.65451 10.3294 2.75451C10.5294 2.95451 10.6294 3.15451 10.6294 3.45451C10.6294 3.25451 10.5294 3.05451 10.3294 2.75451C10.2294 2.55451 10.1294 2.45451 10.0294 2.45451C9.92939 2.35451 9.82939 2.25451 9.62939 2.25451C8.72939 1.75451 7.82939 1.55451 7.02939 1.45451C7.92939 1.55451 8.82939 1.75451 9.62939 2.25451C9.72939 2.25451 9.82939 2.35451 10.0294 2.45451ZM3.52939 1.75451C3.42939 1.75451 3.3294 1.85451 3.2294 1.85451C3.3294 1.75451 3.42939 1.75451 3.52939 1.75451C4.02939 1.55451 4.6294 1.55451 5.2294 1.45451C4.6294 1.45451 4.12939 1.55451 3.52939 1.75451ZM2.2294 2.35451C2.4294 2.15451 2.72938 2.05451 2.92938 1.95451C2.72938 2.05451 2.4294 2.15451 2.2294 2.35451ZM1.42938 8.95451C1.42938 9.45451 1.52941 9.75451 1.82941 9.95451C1.62941 9.75451 1.42938 9.35451 1.42938 8.95451ZM2.32941 16.2545C2.52941 16.3545 2.62941 16.4545 2.82941 16.5545C2.62941 16.4545 2.52941 16.3545 2.32941 16.2545C2.22941 16.1545 2.12939 16.1545 2.02939 16.0545C2.12939 16.1545 2.22941 16.2545 2.32941 16.2545ZM5.7294 17.2545C5.6294 17.2545 5.42941 17.2545 5.32941 17.1545C5.52941 17.1545 5.6294 17.1545 5.7294 17.2545ZM5.02939 11.1545C5.32939 11.1545 5.62938 11.2545 5.92938 11.2545C5.62938 11.2545 5.32939 11.2545 5.02939 11.1545ZM8.62939 19.7545C8.32939 19.6545 8.12941 19.5545 7.82941 19.4545C8.12941 19.6545 8.32939 19.7545 8.62939 19.7545ZM10.9294 20.1545C10.8294 20.1545 10.6294 20.1545 10.5294 20.1545C10.6294 20.1545 10.7294 20.1545 10.9294 20.1545ZM10.1294 20.1545C9.92939 20.1545 9.82939 20.1545 9.62939 20.0545C9.82939 20.0545 10.0294 20.0545 10.1294 20.1545ZM9.42938 19.9545C9.22938 19.9545 9.12938 19.8545 8.92938 19.8545C9.02938 19.9545 9.22938 19.9545 9.42938 19.9545ZM13.7294 19.7545C13.3294 19.8545 12.9294 19.9545 12.4294 20.0545C12.9294 19.9545 13.3294 19.8545 13.7294 19.7545ZM12.3294 20.0545C11.9294 20.1545 11.5294 20.1545 11.1294 20.1545C11.5294 20.1545 11.9294 20.1545 12.3294 20.0545ZM15.1294 18.8545C15.2294 18.7545 15.2294 18.6545 15.3294 18.5545C15.3294 18.7545 15.2294 18.8545 15.1294 18.8545C14.9294 19.1545 14.6294 19.2545 14.3294 19.4545C14.6294 19.3545 14.9294 19.1545 15.1294 18.8545ZM20.6294 12.2545C20.6294 12.3545 20.6294 12.4545 20.5294 12.5545C20.4294 12.6545 20.4294 12.7545 20.3294 12.8545C20.2294 12.9545 20.0294 13.0545 19.9294 13.1545C20.0294 13.0545 20.2294 12.9545 20.3294 12.8545C20.4294 12.7545 20.4294 12.6545 20.5294 12.5545C20.5294 12.4545 20.6294 12.3545 20.6294 12.2545C20.6294 12.0545 20.6294 11.8545 20.6294 11.5545C20.6294 11.3545 20.6294 11.0545 20.6294 10.8545C20.0294 11.3545 19.3294 11.6545 18.7294 11.8545C19.4294 11.6545 20.0294 11.3545 20.6294 10.8545C20.6294 11.0545 20.6294 11.3545 20.6294 11.5545C20.6294 11.8545 20.6294 12.0545 20.6294 12.2545ZM20.2294 1.45451C20.3294 1.55451 20.5294 1.65451 20.6294 1.75451C20.5294 1.65451 20.3294 1.55451 20.2294 1.45451C20.0294 1.35451 19.8294 1.25451 19.6294 1.15451C19.8294 1.15451 20.0294 1.35451 20.2294 1.45451ZM16.4294 0.354511C16.2294 0.354511 16.0294 0.354511 15.8294 0.354511C15.9294 0.354511 15.9294 0.354511 16.0294 0.354511C16.2294 0.354511 16.3294 0.354511 16.4294 0.354511ZM17.8294 0.554512C17.5294 0.454512 17.1294 0.454514 16.8294 0.454514C17.1294 0.454514 17.4294 0.454512 17.8294 0.554512ZM14.6294 0.454514C14.7294 0.454514 14.9294 0.454514 15.0294 0.454514C14.8294 0.454514 14.7294 0.454514 14.6294 0.454514ZM13.3294 0.754513C12.4294 1.05451 11.9294 1.35451 11.0294 2.15451C11.9294 1.35451 12.4294 1.05451 13.3294 0.754513ZM6.42938 0.354511C6.22938 0.354511 6.02941 0.354511 5.82941 0.354511C5.92941 0.354511 5.92939 0.354511 6.02939 0.354511C6.12939 0.354511 6.32938 0.354511 6.42938 0.354511ZM7.82941 0.554512C7.52941 0.454512 7.12941 0.454514 6.82941 0.454514C7.12941 0.454514 7.42941 0.454512 7.82941 0.554512ZM4.62939 0.454514C4.72939 0.454514 4.92939 0.454514 5.02939 0.454514C4.82939 0.454514 4.72939 0.454514 4.62939 0.454514ZM3.32941 0.754513C3.02941 0.854513 2.82939 0.954512 2.52939 1.05451C2.82939 0.954512 3.12941 0.854513 3.32941 0.754513ZM1.7294 1.55451C1.5294 1.65451 1.4294 1.75451 1.2294 1.95451C1.4294 1.75451 1.5294 1.65451 1.7294 1.55451ZM5.52939 18.1545C4.42939 18.0545 3.42938 17.9545 2.42938 17.4545C2.22938 17.3545 2.02941 17.2545 1.82941 17.1545C1.22941 16.7545 0.829395 16.3545 0.629395 15.4545C0.629395 11.3545 0.629395 7.25451 0.629395 3.05451C0.729395 2.75451 0.829382 2.55451 0.929382 2.35451C0.829382 2.55451 0.729395 2.75451 0.629395 3.05451C0.629395 7.15451 0.629395 11.2545 0.629395 15.4545C0.829395 16.2545 1.32941 16.7545 1.82941 17.1545C2.02941 17.2545 2.22938 17.3545 2.42938 17.4545C3.42938 17.9545 4.52939 18.1545 5.52939 18.1545H5.62939C5.62939 18.1545 5.62939 18.1545 5.52939 18.1545ZM6.7294 19.8545C6.5294 19.6545 6.3294 19.4545 6.2294 19.2545C6.3294 19.5545 6.5294 19.7545 6.7294 19.8545C7.0294 20.1545 7.42941 20.3545 7.82941 20.5545C8.12941 20.6545 8.4294 20.7545 8.7294 20.8545C8.4294 20.7545 8.12941 20.6545 7.82941 20.5545C7.42941 20.3545 7.0294 20.1545 6.7294 19.8545ZM10.5294 21.1545C10.8294 21.1545 11.1294 21.1545 11.4294 21.1545C11.3294 21.1545 11.2294 21.1545 11.1294 21.1545C10.9294 21.1545 10.7294 21.1545 10.5294 21.1545ZM9.02939 20.9545C9.42939 21.0545 9.8294 21.0545 10.2294 21.1545C9.7294 21.0545 9.42939 21.0545 9.02939 20.9545ZM14.0294 20.6545C13.6294 20.7545 13.2294 20.8545 12.9294 20.9545C13.3294 20.8545 13.6294 20.7545 14.0294 20.6545C14.3294 20.5545 14.5294 20.4545 14.8294 20.2545C14.6294 20.4545 14.3294 20.5545 14.0294 20.6545ZM11.6294 21.1545C12.0294 21.1545 12.3294 21.0545 12.7294 21.0545C12.3294 21.0545 12.0294 21.1545 11.6294 21.1545Z" fill="white"/>
<path d="M11.0293 18.2545C11.3293 18.2545 11.5293 17.9545 11.5293 17.6545C11.5293 17.3545 11.3293 17.0545 11.0293 17.0545C10.7293 17.0545 10.5293 17.3545 10.5293 17.6545C10.5293 17.9545 10.7293 18.2545 11.0293 18.2545ZM11.0293 18.1545C11.1293 18.1545 11.1293 18.1545 11.0293 18.1545C11.1293 18.1545 11.1293 18.1545 11.0293 18.1545ZM11.3293 18.0545C11.3293 18.0545 11.3293 17.9545 11.4293 17.9545L11.3293 18.0545ZM11.4293 17.8545C11.4293 17.7545 11.4293 17.7545 11.4293 17.6545C11.4293 17.7545 11.4293 17.8545 11.4293 17.8545ZM11.0293 17.1545C11.0293 17.1545 11.0293 17.2545 11.0293 17.1545C11.0293 17.2545 11.0293 17.1545 11.0293 17.1545ZM10.8293 17.2545C10.8293 17.2545 10.9293 17.2545 10.8293 17.2545C10.9293 17.2545 10.8293 17.2545 10.8293 17.2545ZM10.8293 17.3545C10.7293 17.3545 10.7293 17.3545 10.8293 17.3545C10.7293 17.3545 10.7293 17.3545 10.8293 17.3545ZM10.7293 17.4545C10.7293 17.5545 10.7293 17.5545 10.7293 17.6545C10.7293 17.7545 10.7293 17.9545 10.8293 17.9545C10.7293 17.8545 10.7293 17.7545 10.7293 17.6545C10.6293 17.6545 10.6293 17.5545 10.7293 17.4545Z" fill="white"/>
</svg>
