<svg width="16" height="22" viewBox="0 0 16 22" fill="none" xmlns="http://www.w3.org/2000/svg">
<path d="M14.9 21.1097C10.5 21.1097 6.09995 21.1097 1.69995 21.1097C0.799951 20.7069 0.5 20.4048 0.5 19.3979C0.5 13.5577 0.5 7.7176 0.5 1.97815C0.5 1.87745 0.5 1.77677 0.5 1.67608C0.5 1.07193 0.800049 0.669148 1.30005 0.467764C1.40005 0.367072 1.59995 0.367065 1.69995 0.367065C4.39995 0.367065 6.99995 0.367065 9.69995 0.367065C9.79995 0.467758 9.99998 0.568468 10.1 0.66916C12 2.58231 13.8 4.39475 15.7 6.3079C15.9 6.50928 16 6.71068 16 7.01275C16 10.9397 16 14.9674 16 18.8944C16 19.1965 16 19.4986 16 19.6999C16 20.3041 15.6 20.8076 15 21.009C15 21.009 14.9 21.009 14.9 21.1097ZM8.90002 1.57538C8.80002 1.57538 8.79995 1.57538 8.69995 1.57538C6.49995 1.57538 4.29998 1.57538 2.09998 1.57538C1.79998 1.57538 1.80005 1.57537 1.80005 1.87745C1.80005 7.81829 1.80005 13.6584 1.80005 19.5993C1.80005 19.9014 1.79998 19.9013 2.09998 19.9013C6.19998 19.9013 10.4 19.9013 14.5 19.9013C14.8 19.9013 14.8 19.9014 14.8 19.5993C14.8 15.6723 14.8 11.6446 14.8 7.71761C14.8 7.61692 14.8 7.61691 14.8 7.51622C14.7 7.51622 14.6 7.51622 14.5 7.51622C13.1 7.51622 11.8 7.51622 10.4 7.51622C9.50002 7.51622 8.90002 6.91206 8.90002 6.00583C8.90002 4.59614 8.90002 3.28714 8.90002 1.87745C8.90002 1.67606 8.90002 1.67608 8.90002 1.57538ZM10.2 2.48161V2.58231C10.2 3.68992 10.2 4.69682 10.2 5.80444C10.2 6.00582 10.3 6.00583 10.5 6.00583C11.5 6.00583 12.6 6.00583 13.6 6.00583C13.7 6.00583 13.7 6.00583 13.8 6.00583C12.6 4.89822 11.4 3.68991 10.2 2.48161Z" fill="#858584"/>
<path d="M7.59915 12.9536C7.59915 11.6446 7.59915 10.4363 7.59915 9.12727C7.59915 8.62381 7.79912 8.32172 8.19912 8.32172C8.59912 8.32172 8.79922 8.62381 8.79922 9.12727C8.79922 10.3356 8.79922 11.6446 8.79922 12.9536C8.89922 12.9536 8.89919 12.8529 8.89919 12.8529C9.09919 12.6515 9.39915 12.3494 9.59915 12.148C9.89915 11.8459 10.2992 11.8459 10.4992 12.148C10.7992 12.4501 10.6992 12.7522 10.4992 13.0543C9.89917 13.6584 9.19915 14.3633 8.59915 14.9674C8.29915 15.2695 7.89912 15.2695 7.69912 14.9674C7.09912 14.3633 6.39922 13.6584 5.79922 13.0543C5.49922 12.7522 5.49922 12.3494 5.79922 12.148C6.09922 11.8459 6.39912 11.8459 6.69912 12.148C7.09912 12.4501 7.29915 12.6515 7.59915 12.9536Z" fill="#858584"/>
<path d="M8.30042 17.7868C7.20042 17.7868 6.20034 17.7868 5.10034 17.7868C4.70034 17.7868 4.40039 17.4847 4.40039 17.1826C4.40039 16.7799 4.70034 16.4778 5.10034 16.4778C7.20034 16.4778 9.30039 16.4778 11.4004 16.4778C11.8004 16.4778 12.1003 16.7799 12.1003 17.1826C12.1003 17.5854 11.8004 17.7868 11.4004 17.7868C10.4004 17.7868 9.30042 17.7868 8.30042 17.7868Z" fill="#858584"/>
</svg>
