<svg width="21" height="20" viewBox="0 0 21 20" fill="none" xmlns="http://www.w3.org/2000/svg">
<path d="M9.4996 0C9.8996 0 10.2996 0 10.7996 0C11.0996 0 11.4996 0.0999756 11.7996 0.0999756C14.3996 0.599976 16.4996 1.80002 18.0996 3.90002C19.8996 6.30002 20.4996 8.89999 19.9996 11.8C19.5996 14.1 18.3996 16.1 16.5996 17.6C14.2996 19.5 11.6996 20.2 8.79961 19.9C6.79961 19.6 5.09961 18.8 3.59961 17.5C1.89961 16 0.799606 14 0.299606 11.7C0.199606 11.3 0.199609 11 0.0996094 10.6C0.0996094 10.2 0.0996094 9.79999 0.0996094 9.29999C0.0996094 8.99999 0.1996 8.59999 0.1996 8.29999C0.5996 6.19999 1.4996 4.40002 2.8996 2.90002C4.3996 1.40002 6.19961 0.399976 8.29961 0.0999756C8.69961 0.0999756 9.0996 0 9.4996 0ZM10.0996 18.7C14.8996 18.7 18.7996 14.8 18.8996 10C18.8996 5.2 14.9996 1.20001 10.1996 1.20001C5.3996 1.20001 1.4996 5.10002 1.3996 9.90002C1.2996 14.8 5.29961 18.7 10.0996 18.7Z" fill="#A0A0A0"/>
<path d="M9.5 10.6001C8.9 10.6001 8.39999 10.6001 7.89999 10.6001C7.19999 10.6001 5.9 10.6001 5.2 10.6001C4.8 10.6001 4.5 10.3001 4.5 10.0001C4.5 9.60015 4.8 9.40017 5.2 9.40017C6.4 9.40017 8.1 9.40017 9.3 9.40017C9.4 9.40017 9.4 9.40017 9.5 9.40017C9.5 9.30017 9.5 9.30016 9.5 9.20016C9.5 8.00016 9.5 6.20012 9.5 5.10012C9.5 4.60012 9.9 4.30015 10.3 4.50015C10.6 4.60015 10.7 4.80012 10.7 5.10012C10.7 6.30012 10.7 8.00016 10.7 9.20016C10.7 9.30016 10.7 9.30017 10.7 9.40017C10.8 9.40017 10.8 9.40017 10.9 9.40017C12.1 9.40017 13.9 9.40017 15 9.40017C15.5 9.40017 15.8 9.80014 15.6 10.3001C15.5 10.6001 15.3 10.7002 15 10.7002C13.8 10.7002 12.1 10.7002 10.9 10.7002C10.8 10.7002 10.8 10.7002 10.7 10.7002C10.7 10.8002 10.7 10.9002 10.7 10.9002C10.7 12.1002 10.7 13.9001 10.7 15.0001C10.7 15.3001 10.5 15.5001 10.2 15.6001C9.9 15.7001 9.7 15.6001 9.5 15.3001C9.4 15.2001 9.39999 15.0002 9.39999 14.9002C9.39999 13.8002 9.39999 12.0001 9.39999 10.8001C9.49999 10.8001 9.5 10.7001 9.5 10.6001Z" fill="#A0A0A0"/>
</svg>
