<svg width="18" height="22" viewBox="0 0 18 22" fill="none" xmlns="http://www.w3.org/2000/svg">
<path d="M17.5 5.8999C17.5 5.1999 17.5 4.3999 17.5 3.6999C17.5 2.0999 16.4 0.799903 14.9 0.499903C14.8 0.499903 14.7 0.499902 14.6 0.399902C12.4 0.399902 9.7 0.399902 7.2 0.399902C5.7 0.399902 4.3 0.399902 3 0.399902C2.9 0.399902 2.8 0.399903 2.7 0.499903H2.6C2.5 0.499903 2.3 0.599903 2.2 0.599903H2.1C2 0.699903 1.8 0.699903 1.7 0.799903C1.7 0.799903 1.6 0.799902 1.6 0.899902C1.5 0.999902 1.3 1.0999 1.2 1.1999C0.600001 1.6999 0.2 2.2999 0.1 3.0999C0.1 3.2999 0 3.5999 0 3.7999C0 6.0999 0 8.4999 0 10.7999C0 13.0999 0 15.4999 0 17.7999C0 17.9999 3.7998e-07 18.2999 0.1 18.4999C0.2 19.1999 0.600001 19.8999 1.2 20.3999C1.3 20.4999 1.4 20.5999 1.6 20.6999C1.6 20.6999 1.7 20.6999 1.7 20.7999C1.8 20.8999 2 20.8999 2.1 20.9999H2.2C2.3 20.9999 2.5 21.0999 2.6 21.0999H2.7C2.8 21.0999 2.9 21.0999 3 21.1999C4.1 21.1999 6.2 21.1999 7.2 21.1999C9.7 21.1999 12.4 21.1999 14.6 21.1999C14.7 21.1999 14.8 21.1999 14.9 21.0999C16.4 20.7999 17.5 19.4999 17.5 17.8999C17.5 16.1999 17.5 7.4999 17.5 5.8999ZM15.3 19.1999C15 19.3999 14.7 19.4999 14.3 19.4999C12 19.4999 9.3 19.4999 6.8 19.4999C6.7 19.4999 6.7 19.4999 6.6 19.4999C5.6 19.4999 4.7 19.4999 3.8 19.4999C3.7 19.4999 3.6 19.4999 3.5 19.4999C3.2 19.4999 2.9 19.3999 2.7 19.2999C2.4 19.1999 2.2 18.9999 2 18.6999L1.9 18.5999C1.8 18.4999 1.8 18.3999 1.8 18.1999V18.0999C1.8 17.9999 1.8 17.8999 1.8 17.6999C1.8 15.3999 1.8 13.0999 1.8 10.6999C1.8 8.3999 1.8 6.0999 1.8 3.6999C1.8 3.5999 1.8 3.3999 1.8 3.2999V3.1999C1.8 3.0999 1.9 2.9999 1.9 2.7999C1.9 2.7999 1.9 2.6999 2 2.6999C2.1 2.4999 2.4 2.2999 2.7 2.0999C2.9 1.9999 3.2 1.8999 3.5 1.8999C3.6 1.8999 3.7 1.8999 3.8 1.8999C4.7 1.8999 5.7 1.8999 6.7 1.8999H6.8C9.4 1.8999 12.1 1.8999 14.4 1.8999C14.8 1.8999 15.1 1.9999 15.4 2.1999C15.9 2.5999 16 2.9999 16 3.5999C16 4.4999 16 5.2999 16 6.1999C16 8.4999 16 16.0999 16 17.5999C15.9 18.2999 15.7 18.7999 15.3 19.1999Z" fill="#9A9A9A"/>
<path d="M9.30078 5.2998C10.7008 5.2998 12.1008 5.2998 13.4008 5.2998C14.0008 5.2998 14.4008 5.89981 14.2008 6.39981C14.1008 6.69981 13.8008 6.89981 13.5008 6.89981C13.4008 6.89981 13.2008 6.89981 13.1008 6.89981C10.5008 6.89981 6.90078 6.89981 4.20078 6.89981C3.70078 6.89981 3.30078 6.49981 3.30078 6.09981C3.30078 5.59981 3.70078 5.2998 4.10078 5.2998C5.20078 5.2998 7.30078 5.2998 8.40078 5.2998C8.80078 5.2998 9.00078 5.2998 9.30078 5.2998Z" fill="#9A9A9A"/>
<path d="M9.30019 10.1C7.90019 10.1 5.50019 10.1 4.20019 10.1C3.70019 10.1 3.30019 9.7 3.40019 9.2C3.40019 8.8 3.70019 8.6 4.10019 8.5H4.20019C6.90019 8.5 10.7002 8.5 13.4002 8.5C13.9002 8.5 14.2002 8.8 14.3002 9.3C14.3002 9.8 14.0002 10.1 13.5002 10.1C12.5002 10.1 11.6002 10.1 10.6002 10.1C10.1002 10.1 9.70019 10.1 9.30019 10.1Z" fill="#9A9A9A"/>
<path d="M9.30019 13.6999C7.90019 13.6999 5.50019 13.6999 4.20019 13.6999C3.70019 13.6999 3.30019 13.2999 3.40019 12.7999C3.40019 12.3999 3.70019 12.1999 4.10019 12.0999H4.20019C6.90019 12.0999 10.7002 12.0999 13.4002 12.0999C13.9002 12.0999 14.2002 12.3999 14.3002 12.8999C14.3002 13.3999 14.0002 13.6999 13.5002 13.6999C12.5002 13.6999 11.6002 13.6999 10.6002 13.6999C10.1002 13.6999 9.70019 13.6999 9.30019 13.6999Z" fill="#9A9A9A"/>
</svg>
