<svg width="18" height="13" viewBox="0 0 18 13" fill="none" xmlns="http://www.w3.org/2000/svg">
<path d="M16.8001 2.70004C16.9001 2.60004 17.0001 2.50002 17.1001 2.40002C17.3001 2.10002 17.4001 1.70002 17.3001 1.30002C17.2001 0.900015 16.9001 0.700034 16.5001 0.600034C16.0001 0.500034 15.6001 0.600028 15.2001 1.00003L11.3001 4.90002C9.90014 6.30002 8.50014 7.70004 7.00014 9.20004C7.00014 9.20004 6.90014 9.30002 6.90014 9.40002C6.90014 9.40002 6.80014 9.50003 6.80014 9.60003L6.60014 9.90002L3.70014 7.00003C3.40014 6.70003 3.00014 6.30003 2.70014 6.00003C2.50014 5.80003 2.20014 5.70004 1.90014 5.70004C1.50014 5.70004 1.20014 5.90004 0.900139 6.20004C0.500139 6.70004 0.600136 7.30002 1.10014 7.80002C2.20014 8.90002 3.20014 9.90003 4.30014 11L5.40014 12.1C6.20014 12.9 6.70014 12.9 7.50014 12.1L16.8001 2.70004Z" fill="#9A9A9A"/>
</svg>
