<svg width="14" height="14" viewBox="0 0 14 14" fill="none" xmlns="http://www.w3.org/2000/svg">
<path d="M7.40002 7.89999C6.80002 8.49999 6.20002 9.10001 5.60002 9.70001C4.80002 10.5 3.40002 11.9 2.60002 12.7C2.20002 13.1 1.60002 13.1 1.20002 12.7C0.80002 12.3 0.80002 11.7 1.20002 11.3C2.50002 9.99998 4.50002 7.99998 5.70002 6.79998C5.80002 6.69999 5.90002 6.6 6.00002 6.5C5.90002 6.4 5.80003 6.29998 5.80003 6.29998C4.50003 4.99998 2.50002 3.00001 1.20002 1.70001C0.70002 1.20001 0.800025 0.400003 1.40002 0.100003C1.80002 -0.0999968 2.20002 -9.05991e-06 2.50002 0.399991C3.80002 1.69999 5.70002 3.59999 7.00002 4.89999C7.10002 4.99999 7.20003 5.10001 7.30003 5.20001C7.40003 5.10001 7.50002 5 7.50002 5C8.80002 3.7 10.8 1.69999 12.1 0.399991C12.6 -0.100009 13.5 9.29832e-06 13.7 0.700009C13.9 1.10001 13.8 1.49998 13.4 1.79998C12.1 3.09998 10.1 5.09999 8.90002 6.29998C8.80002 6.39998 8.70002 6.5 8.60002 6.6C8.70002 6.7 8.80003 6.79998 8.80003 6.79998C10.1 8.09999 12.1 10.1 13.4 11.4C13.7 11.7 13.8 12.2 13.6 12.6C13.4 13 13 13.2 12.6 13.1C12.4 13 12.2 12.9 12 12.8C10.7 11.5 8.80002 9.59999 7.50002 8.29998C7.50002 8.09999 7.50002 7.99999 7.40002 7.89999Z" fill="#9A9A9A"/>
</svg>
