<svg width="22" height="22" viewBox="0 0 22 22" fill="none" xmlns="http://www.w3.org/2000/svg">
<path d="M5.20001 21.1C4.90001 21 4.70002 21 4.40002 20.9C2.80002 20.4 1.70001 19.1 1.70001 17.6C1.70001 17.4 1.70001 17.2 1.70001 17C1.70001 16.9 1.69997 16.9 1.59997 16.8C1.09997 16.7 0.800022 16.4 0.900022 16C0.900022 15.6 1.29999 15.4 1.79999 15.4C2.49999 15.4 3.3 15.4 4 15.4C4.1 15.4 4.20001 15.4 4.20001 15.3C4.30001 14.9 4.69997 14.7 5.09997 14.7C5.49997 14.7 5.79998 15 5.79998 15.4C5.79998 15.9 5.79998 16.4 5.79998 16.9C5.79998 17.3 5.5 17.6 5 17.6C4.6 17.6 4.20001 17.3 4.20001 17C4.20001 16.8 4.10002 16.8 3.90002 16.8C3.30002 16.8 3.29999 16.8 3.29999 17.3C3.29999 18.4 3.9 19.2 5 19.5C5.3 19.6 5.60002 19.6 5.90002 19.6C9.80002 19.6 13.7 19.6 17.6 19.6C19.1 19.6 20.1 18.7 20.1 17.4C20.1 13.1 20.1 8.7 20.1 4.4C20.1 3.9 20.2 3.5 20 3C19.7 2.1 18.8 1.4 17.7 1.4C17.1 1.4 16.5 1.4 15.9 1.4C12.5 1.4 9.19999 1.4 5.79998 1.4C4.39998 1.4 3.49999 2.1 3.29999 3C3.19999 3.4 2.69999 3.6 2.29999 3.5C1.89999 3.4 1.60001 3 1.70001 2.6C2.00001 1.3 3.49997 0.2 5.09997 0C5.19997 0 5.30002 0 5.40002 0C9.50002 0 13.6 0 17.7 0C17.8 0 17.9 0 18 0H18.1C18.5 0 18.9 0.0999992 19.3 0.299999C20.6 0.899999 21.4 1.8 21.6 3.1C21.6 3.4 21.7 3.6 21.7 3.9C21.7 8.4 21.7 12.9 21.7 17.5C21.7 18.9 21 20 19.6 20.7C19.1 20.9 18.6 21.1 18 21.1C13.8 21.1 9.50001 21.1 5.20001 21.1Z" fill="white"/>
<path d="M5.50018 0.100006C5.40018 0.200006 5.3002 0.100006 5.2002 0.100006C5.3002 0.100006 5.40018 0.100006 5.50018 0.100006Z" fill="white"/>
<path d="M18.0002 0.100006C17.9002 0.200006 17.8002 0.200006 17.7002 0.100006C17.9002 0.100006 17.9002 0.100006 18.0002 0.100006Z" fill="white"/>
<path d="M12.3 6.69999C13.2 6.69999 13.8 7.39999 13.8 8.29999C13.8 8.69999 13.6 9.09999 13.3 9.39999C13 9.69999 12.6001 9.89999 12.2001 9.89999C11.3001 9.89999 10.6 9.19999 10.6 8.29999C10.6 7.89999 10.8 7.49999 11.1 7.19999C11.4 6.89999 11.8 6.69999 12.3 6.69999ZM12.3 5.29999C10.6 5.29999 9.30005 6.59999 9.30005 8.29999C9.30005 9.89999 10.6 11.2 12.3 11.3C13.9 11.3 15.2001 9.99999 15.2001 8.29999C15.2001 6.69999 13.9 5.29999 12.3 5.29999Z" fill="white"/>
<path d="M3.30005 7.19999C3.30005 7.59999 3.30005 8 3.30005 8.5C3.30005 8.9 3.00006 9.3 2.50006 9.3C2.00006 9.3 1.70007 9 1.70007 8.5C1.70007 7.6 1.70007 6.69999 1.70007 5.89999C1.70007 5.79999 1.70006 5.69999 1.50006 5.69999C1.10006 5.59999 0.800049 5.3 0.800049 5C0.800049 4.6 1.20007 4.3 1.70007 4.3C2.40007 4.3 3.20009 4.3 3.90009 4.3C4.00009 4.3 4.10004 4.29999 4.10004 4.09999C4.10004 3.69999 4.50009 3.39999 4.90009 3.39999C5.30009 3.39999 5.70007 3.69999 5.70007 4.09999C5.70007 4.59999 5.70007 5.1 5.70007 5.5C5.70007 5.9 5.40006 6.19999 5.00006 6.19999C4.60006 6.29999 4.20004 5.99999 4.10004 5.59999C4.10004 5.49999 4.00009 5.5 3.90009 5.5C3.30009 5.5 3.30005 5.5 3.30005 6C3.30005 6.6 3.30005 6.89999 3.30005 7.19999Z" fill="white"/>
<path d="M3.30008 12.8C3.30008 13.2 3.30008 13.7 3.30008 14.1C3.30008 14.5 3.00009 14.8 2.50009 14.8C2.00009 14.8 1.70011 14.5 1.70011 14.1C1.70011 13.2 1.70011 12.4 1.70011 11.5C1.70011 11.4 1.70009 11.3 1.50009 11.2C1.10009 11.1 0.900093 10.8 1.00009 10.4C1.10009 10.1 1.40008 9.8 1.80008 9.8C2.50008 9.8 3.20012 9.8 3.90012 9.8C4.00012 9.8 4.10007 9.79999 4.10007 9.59999C4.10007 9.19999 4.50012 8.89999 4.90012 8.89999C5.30012 8.89999 5.70011 9.19999 5.70011 9.59999C5.70011 10.1 5.70011 10.7 5.70011 11.2C5.70011 11.6 5.40012 11.9 4.90012 11.9C4.50012 11.9 4.10007 11.6 4.10007 11.2C4.10007 11.1 4.10012 11 3.90012 11C3.70012 11 3.40008 10.9 3.30008 11C3.20008 11.1 3.30008 11.3 3.30008 11.5C3.30008 12.2 3.30008 12.5 3.30008 12.8Z" fill="white"/>
<path d="M12.3 12.6C13.9 12.6 15.3 13.1 16.5 14.2C16.9 14.6 16.9 15.1 16.5 15.4C16.1 15.7 15.6 15.7 15.2 15.3C13.5 13.8 10.9 13.8 9.20003 15.4C8.90003 15.7 8.30005 15.8 7.90005 15.5C7.50005 15.2 7.50001 14.7 7.80001 14.4C9.10001 13.3 10.5 12.7 12.3 12.6Z" fill="white"/>
</svg>
