<svg width="27" height="27" viewBox="0 0 27 27" fill="none" xmlns="http://www.w3.org/2000/svg">
<path d="M13.5 26C20.4036 26 26 20.4036 26 13.5C26 6.59644 20.4036 1 13.5 1C6.59644 1 1 6.59644 1 13.5C1 20.4036 6.59644 26 13.5 26Z" stroke="#2F65F6" stroke-miterlimit="10"/>
<path d="M12.2568 6.45559H14.7728L14.3478 14.4116H12.6648L12.2568 6.45559ZM13.5148 18.4746C13.1181 18.4746 12.7894 18.3499 12.5288 18.1006C12.2681 17.8399 12.1378 17.5226 12.1378 17.1486C12.1378 16.7746 12.2681 16.4629 12.5288 16.2136C12.7894 15.9643 13.1181 15.8396 13.5148 15.8396C13.9001 15.8396 14.2174 15.9643 14.4668 16.2136C14.7274 16.4629 14.8578 16.7746 14.8578 17.1486C14.8578 17.5226 14.7274 17.8399 14.4668 18.1006C14.2174 18.3499 13.9001 18.4746 13.5148 18.4746Z" fill="#222220"/>
</svg>
