<svg width="13" height="15" viewBox="0 0 13 15" fill="none" xmlns="http://www.w3.org/2000/svg">
<g opacity="0.5">
<path d="M9.09995 0.199951C9.09995 0.599951 9.09995 1 9.09995 1.5C6.49995 1.5 3.99994 1.5 1.49994 1.5C1.49994 4.5 1.49994 7.40002 1.49994 10.4C1.09994 10.4 0.699951 10.4 0.199951 10.4C0.199951 10.3 0.199951 10.3 0.199951 10.2C0.199951 7.29995 0.199951 4.39998 0.199951 1.59998C0.199951 0.899976 0.699927 0.299951 1.29993 0.199951C3.89993 0.199951 6.49995 0.199951 9.09995 0.199951Z" fill="#858584"/>
<path d="M12.2998 8.40002C12.2998 9.90002 12.2998 11.3 12.2998 12.8C12.2998 13.3 12.0998 13.8 11.5998 14C11.3998 14.1 11.1998 14.1 10.9998 14.1C8.69982 14.1 6.39982 14.1 4.09982 14.1C3.29982 14.1 2.7998 13.5 2.7998 12.8C2.7998 9.90005 2.7998 6.9 2.7998 4C2.7998 3.2 3.29982 2.69995 4.09982 2.69995C6.39982 2.69995 8.69982 2.69995 10.9998 2.69995C11.7998 2.69995 12.2998 3.3 12.2998 4C12.2998 5.5 12.2998 7.00002 12.2998 8.40002ZM3.99982 4C3.99982 7 3.99982 9.90002 3.99982 12.9C6.29982 12.9 8.69982 12.9 10.9998 12.9C10.9998 9.90002 10.9998 7 10.9998 4C8.69982 4 6.29982 4 3.99982 4Z" fill="#858584"/>
</g>
</svg>
