<svg width="21" height="21" viewBox="0 0 21 21" fill="none" xmlns="http://www.w3.org/2000/svg">
<path d="M15.1992 0C15.2992 0 15.3992 6.10203e-06 15.4992 0.100006C16.9992 0.400006 18.0992 1.7 18.0992 3.3C18.0992 4.9 18.0992 6.5 18.0992 8.2C18.0992 8.6 17.8992 8.9 17.4992 9C17.1992 9.1 16.7992 9 16.5992 8.7C16.4992 8.5 16.3992 8.30001 16.3992 8.10001C16.3992 6.50001 16.3992 4.99999 16.3992 3.39999C16.3992 2.79999 16.1992 2.3 15.7992 2C15.4992 1.8 15.1992 1.7 14.7992 1.7C11.4992 1.7 7.19922 1.7 3.89922 1.7C2.99922 1.7 2.29922 2.3 2.29922 3.3C2.29922 3.4 2.29922 3.4 2.29922 3.5C2.29922 8.1 2.29922 12.8 2.29922 17.4C2.29922 18.1 2.59922 18.7 3.19922 19C3.39922 19.1 3.69922 19.2 3.99922 19.2C4.89922 19.2 6.69923 19.2 7.59923 19.2C7.99923 19.2 8.29922 19.4 8.39922 19.7C8.49922 20 8.39922 20.4 8.19922 20.6C8.09922 20.7 7.99922 20.7 7.89922 20.8C6.79922 20.8 4.69922 20.8 3.69922 20.8C3.59922 20.8 3.59922 20.8 3.49922 20.8C2.19922 20.6 0.999225 19.5 0.799225 18.2C0.699225 17.6 0.699219 17.1 0.699219 16.5C0.699219 12.2 0.699219 7.9 0.699219 3.5C0.699219 1.8 1.89922 0.499997 3.29922 0.199997C3.39922 0.199997 3.49923 0.200006 3.59923 0.100006C7.09923 6.10203e-06 11.5992 0 15.1992 0Z" fill="#2F65F6"/>
<path d="M11 20.7C10.5 20.5 10.3 20.1 10.4 19.6C10.7 18.5 11 17.5 11.4 16.5C11.4 16.3 11.6 16.2 11.7 16.1C13.1 14.6 14.6 13.2 16.1 11.8C16.8 11.1 17.6 10.9 18.6 11.2C19.5 11.5 20.1 12.1 20.3 13.1C20.4 13.8 20.2 14.5 19.8 15.1C19.7 15.2 19.6 15.3 19.5 15.5C18.1 16.9 16.8 18.2 15.4 19.6C15.2 19.8 15 19.9 14.7 20C13.6 20.3 12.6 20.6 11.5 20.9C11.3 20.7 11.2 20.7 11 20.7ZM15.8 14.2C15.8 14.2 15.7 14.3 15.7 14.4C14.9 15.2 14.1 16 13.2 16.9C12.9 17.1 12.8 17.4 12.7 17.8C12.6 18.2 12.5 18.5 12.4 18.9C12.9 18.8 13.4 18.6 13.8 18.5C13.9 18.5 14 18.4 14.1 18.3C14.8 17.6 15.5 16.9 16.3 16.2C16.5 16 16.8 15.7 17 15.5C16.6 15 16.3 14.6 15.8 14.2ZM17.1 13C17.5 13.4 17.9 13.8 18.2 14.1C18.5 13.9 18.6 13.6 18.5 13.2C18.4 12.9 18.2 12.7 17.9 12.6C17.6 12.6 17.3 12.8 17.1 13Z" fill="#2F65F6"/>
<path d="M9.89844 4.90002C11.2984 4.90002 12.6984 4.90002 13.9984 4.90002C14.5984 4.90002 14.9984 5.50003 14.7984 6.00003C14.6984 6.30003 14.3984 6.50003 14.0984 6.50003C13.9984 6.50003 13.7984 6.50003 13.6984 6.50003C11.0984 6.50003 7.49845 6.50003 4.79845 6.50003C4.29845 6.50003 3.89844 6.10003 3.89844 5.70003C3.89844 5.20003 4.29844 4.90002 4.69844 4.90002C5.79844 4.90002 7.89844 4.90002 8.99844 4.90002C9.29844 4.90002 9.59844 4.90002 9.89844 4.90002Z" fill="#2F65F6"/>
<path d="M9.8998 9.69997C8.49979 9.69997 6.0998 9.69997 4.7998 9.69997C4.2998 9.69997 3.8998 9.29997 3.9998 8.79997C3.9998 8.39997 4.2998 8.19998 4.6998 8.09998H4.7998C7.4998 8.09998 11.2998 8.09998 13.9998 8.09998C14.4998 8.09998 14.7998 8.39996 14.8998 8.89996C14.8998 9.39996 14.5998 9.69997 14.0998 9.69997C13.0998 9.69997 12.1998 9.69997 11.1998 9.69997C10.6998 9.69997 10.2998 9.69997 9.8998 9.69997Z" fill="#2F65F6"/>
<path d="M8.19844 11.4C8.99844 11.4 9.89844 11.4 10.6984 11.4C11.0984 11.4 11.3984 11.6 11.4984 12C11.5984 12.3 11.4984 12.7 11.1984 12.9C11.0984 13 10.8984 13.1 10.6984 13.1C8.99844 13.1 6.39844 13.1 4.69844 13.1C4.19844 13.1 3.89844 12.8 3.89844 12.3C3.89844 11.8 4.29844 11.5 4.69844 11.5C5.59844 11.4 7.39844 11.4 8.19844 11.4Z" fill="#2F65F6"/>
</svg>
