<svg width="20" height="20" viewBox="0 0 20 20" fill="none" xmlns="http://www.w3.org/2000/svg">
<path d="M5.52734 19.1C6.82734 19.5 8.22733 19.8 9.82733 19.8C10.0273 19.8 10.2273 19.8 10.4273 19.8C12.1273 19.8 13.6273 19.6 15.0273 19.2C16.2273 18.8 17.2273 18.3 17.9273 17.7C18.6273 17 19.0273 16.3 19.0273 15.3C19.0273 14.7 19.0273 14.2 19.0273 13.6C19.0273 13.2 19.0273 12.7 19.0273 12.3C19.0273 11.1 18.4273 10.1 17.3273 9.5C17.2273 9.5 17.2274 9.39999 17.2274 9.39999C17.2274 9.29999 17.2274 9.2 17.2274 9C17.2274 8.8 17.2274 8.5 17.2274 8.3C17.2274 7.5 17.2274 6.6 17.2274 5.8V5.3C17.2274 5.2 17.2274 4.99999 17.2274 4.89999C17.1274 4.19999 16.7273 3.49999 16.0273 2.89999C15.3273 2.29999 14.5273 1.90001 13.4273 1.60001C12.1273 1.20001 10.7274 0.999994 9.22736 0.899994C9.02736 0.899994 8.82732 0.899994 8.62732 0.899994C6.92732 0.899994 5.32731 1.10001 3.92731 1.60001C2.72731 2.00001 1.82732 2.40001 1.12732 3.10001C0.327319 3.80001 0.0273438 4.6 0.0273438 5.5C0.0273438 6 0.0273438 6.49999 0.0273438 6.89999C0.0273438 7.39999 0.0273438 7.89999 0.0273438 8.39999C0.0273438 8.79999 0.127356 9.2 0.227356 9.5C0.527356 10.3 1.02733 10.8 1.82733 11.3C1.82733 11.4 1.82733 11.5 1.82733 11.6C1.82733 11.8 1.82733 12 1.82733 12.2C1.82733 12.6 1.82733 13.1 1.82733 13.5C1.82733 14.1 1.82733 14.7 1.82733 15.3C1.82733 16.1 2.12736 16.8 2.72736 17.4C3.42736 18.2 4.22734 18.7 5.52734 19.1ZM17.3273 15.6C17.3273 15.8 17.1273 16.1 17.0273 16.2C16.6273 16.6 16.1274 16.9 15.7274 17.1C14.8274 17.5 13.7273 17.8 12.5273 18C11.8273 18.1 11.1273 18.1 10.4273 18.1C9.42731 18.1 8.42731 18 7.42731 17.8C6.22731 17.6 5.42732 17.3 4.62732 16.8C4.32732 16.6 4.02736 16.4 3.72736 16.1C3.52736 15.9 3.42731 15.6 3.42731 15.3C3.42731 15.2 3.42731 15 3.42731 14.9C3.42731 14.8 3.42731 14.7 3.42731 14.7V14.6L3.52734 14.7C3.52734 14.7 3.62732 14.7 3.62732 14.8C5.52732 15.8 7.62736 16.4 9.72736 16.4C9.82736 16.4 10.0273 16.4 10.1273 16.4C10.3273 16.4 10.5274 16.4 10.7274 16.4C11.2274 16.4 11.8273 16.4 12.3273 16.3C13.9273 16.1 15.4273 15.6 16.9273 14.8C16.9273 14.8 17.0273 14.7 17.1273 14.7L17.2274 14.6V14.7C17.2274 14.8 17.2274 14.9 17.2274 15C17.4274 15.2 17.4273 15.4 17.3273 15.6ZM16.2274 10.7C16.4274 10.8 16.4273 10.9 16.5273 10.9C16.7273 11.1 16.9273 11.3 17.1273 11.5C17.4273 11.9 17.4273 12.2 17.1273 12.6C16.8273 13.1 16.3273 13.4 15.8273 13.6C14.9273 14.1 13.8273 14.4 12.5273 14.6C11.8273 14.7 11.0273 14.8 10.3273 14.8C9.72733 14.8 9.02731 14.8 8.42731 14.7C6.92731 14.5 5.72736 14.2 4.72736 13.6C4.32736 13.4 3.92732 13.2 3.62732 12.7C3.52732 12.6 3.52731 12.5 3.42731 12.4C3.42731 12.3 3.32733 12.3 3.32733 12.2L3.42731 12.1C3.52731 12.1 3.62736 12.2 3.72736 12.2C3.92736 12.3 4.12733 12.3 4.32733 12.4C5.62733 12.8 7.02731 12.9 8.42731 12.9C8.72731 12.9 9.12731 12.9 9.42731 12.9C10.8273 12.8 12.1274 12.6 13.2274 12.2C14.6274 11.8 15.4274 11.4 16.2274 10.7ZM2.02734 4.5C2.52734 3.9 3.12736 3.59999 3.72736 3.39999C4.82736 2.89999 6.12732 2.7 7.62732 2.5C7.92732 2.5 8.12731 2.5 8.42731 2.5C8.52731 2.5 8.62732 2.5 8.62732 2.5C10.6273 2.5 12.2273 2.8 13.6273 3.3C14.3273 3.6 14.7274 3.8 15.2274 4.2C15.6274 4.5 15.8273 4.8 15.8273 5.2C15.8273 5.5 15.6274 5.80001 15.2274 6.10001C14.6274 6.60001 13.8274 7 12.7274 7.3C11.5274 7.6 10.2273 7.8 8.92731 7.8C8.02731 7.8 7.12736 7.70001 6.22736 7.60001C4.92736 7.40001 3.92732 7 3.12732 6.5C2.82732 6.3 2.52736 6.1 2.22736 5.8C1.62736 5.4 1.62734 5 2.02734 4.5ZM1.72736 8.2C1.72736 8.1 1.72736 7.99999 1.72736 7.89999V7.8V7.7L2.02734 7.89999C2.12734 7.99999 2.22733 8.00001 2.32733 8.10001C4.12733 9.00001 6.12733 9.5 8.32733 9.5H8.42731H8.52734C9.52734 9.5 10.5273 9.5 11.4273 9.3C12.8273 9.1 14.1273 8.59999 15.4273 7.89999C15.4273 7.89999 15.5273 7.9 15.5273 7.8C15.5273 7.9 15.5273 8.00001 15.5273 8.10001C15.5273 8.30001 15.5273 8.5 15.5273 8.7C15.5273 9 15.3273 9.19999 15.1273 9.39999C14.6273 9.89999 13.9273 10.2 13.4273 10.4C12.1273 10.9 10.6273 11.2 9.02734 11.2C8.92734 11.2 8.72732 11.2 8.62732 11.2C6.92732 11.2 5.42732 11 4.12732 10.5C3.42732 10.3 2.92731 10 2.42731 9.60001C1.82731 9.30001 1.62736 8.8 1.72736 8.2Z" fill="#9A9A9A"/>
</svg>
