<svg width="19" height="21" viewBox="0 0 19 21" fill="none" xmlns="http://www.w3.org/2000/svg">
<path d="M18.4004 5.5C18.4004 4.8 18.4004 4 18.4004 3.3C18.4004 1.7 17.3004 0.400006 15.8004 0.100006C15.7004 0.100006 15.6004 0.1 15.5004 0C13.3004 0 10.6004 0 8.10039 0C6.60039 0 5.20039 0 3.90039 0C3.80039 0 3.70039 6.10203e-06 3.60039 0.100006H3.50039C3.40039 0.100006 3.20039 0.199997 3.10039 0.199997H3.00039C2.90039 0.299997 2.70039 0.299994 2.60039 0.399994C2.60039 0.399994 2.50039 0.4 2.50039 0.5C2.40039 0.6 2.20039 0.700003 2.10039 0.800003C1.50039 1.3 1.10039 1.9 1.00039 2.7C1.00039 2.9 0.900391 3.19999 0.900391 3.39999C0.900391 5.69999 0.900391 8.09999 0.900391 10.4C0.900391 12.7 0.900391 15.1 0.900391 17.4C0.900391 17.6 0.900389 17.9 1.00039 18.1C1.10039 18.8 1.50039 19.5 2.10039 20C2.20039 20.1 2.30039 20.2 2.50039 20.3C2.50039 20.3 2.60039 20.3 2.60039 20.4C2.70039 20.5 2.90039 20.5 3.00039 20.6H3.10039C3.20039 20.6 3.40039 20.7 3.50039 20.7H3.60039C3.70039 20.7 3.80039 20.7 3.90039 20.8C5.00039 20.8 7.10039 20.8 8.10039 20.8C10.6004 20.8 13.3004 20.8 15.5004 20.8C15.6004 20.8 15.7004 20.8 15.8004 20.7C17.3004 20.4 18.4004 19.1 18.4004 17.5C18.4004 15.8 18.4004 7.1 18.4004 5.5ZM16.2004 18.7C15.9004 18.9 15.6004 19 15.2004 19C12.9004 19 10.2004 19 7.70039 19C7.60039 19 7.60039 19 7.50039 19C6.50039 19 5.60039 19 4.70039 19C4.60039 19 4.50039 19 4.40039 19C4.10039 19 3.80039 18.9 3.60039 18.8C3.30039 18.7 3.10039 18.5 2.90039 18.2L2.80039 18.1C2.70039 18 2.70039 17.9 2.70039 17.7V17.6C2.70039 17.5 2.70039 17.4 2.70039 17.2C2.70039 14.9 2.70039 12.6 2.70039 10.2C2.70039 7.9 2.70039 5.6 2.70039 3.2C2.70039 3.1 2.70039 2.9 2.70039 2.8V2.7C2.70039 2.6 2.80039 2.5 2.80039 2.3C2.80039 2.3 2.80039 2.2 2.90039 2.2C3.00039 2 3.30039 1.80001 3.60039 1.60001C3.80039 1.50001 4.10039 1.39999 4.40039 1.39999C4.50039 1.39999 4.60039 1.39999 4.70039 1.39999C5.60039 1.39999 6.60039 1.39999 7.60039 1.39999H7.70039C10.3004 1.39999 13.0004 1.39999 15.3004 1.39999C15.7004 1.39999 16.0004 1.5 16.3004 1.7C16.8004 2.1 16.9004 2.50001 16.9004 3.10001C16.9004 4.00001 16.9004 4.8 16.9004 5.7C16.9004 8 16.9004 15.6 16.9004 17.1C16.8004 17.9 16.6004 18.4 16.2004 18.7Z" fill="#9A9A9A"/>
<path d="M10.2012 4.79999C11.6012 4.79999 13.0012 4.79999 14.3012 4.79999C14.9012 4.79999 15.3012 5.39998 15.1012 5.89998C15.0012 6.19998 14.7012 6.39998 14.4012 6.39998C14.3012 6.39998 14.1012 6.39998 14.0012 6.39998C11.4012 6.39998 7.80117 6.39998 5.10117 6.39998C4.60117 6.39998 4.20117 5.99999 4.20117 5.59999C4.20117 5.09999 4.60117 4.79999 5.00117 4.79999C6.10117 4.79999 8.20118 4.79999 9.30118 4.79999C9.70118 4.79999 9.90117 4.79999 10.2012 4.79999Z" fill="#9A9A9A"/>
<path d="M10.2006 9.7C8.80058 9.7 6.40058 9.7 5.10058 9.7C4.60058 9.7 4.20058 9.3 4.30058 8.8C4.30058 8.4 4.60058 8.20001 5.00058 8.10001H5.10058C7.80058 8.10001 11.6006 8.10001 14.3006 8.10001C14.8006 8.10001 15.1006 8.39999 15.2006 8.89999C15.2006 9.39999 14.9006 9.7 14.4006 9.7C13.4006 9.7 12.5006 9.7 11.5006 9.7C11.0006 9.7 10.6006 9.7 10.2006 9.7Z" fill="#9A9A9A"/>
<path d="M10.2006 13.2C8.80058 13.2 6.40058 13.2 5.10058 13.2C4.60058 13.2 4.20058 12.8 4.30058 12.3C4.30058 11.9 4.60058 11.7 5.00058 11.6H5.10058C7.80058 11.6 11.6006 11.6 14.3006 11.6C14.8006 11.6 15.1006 11.9 15.2006 12.4C15.2006 12.9 14.9006 13.2 14.4006 13.2C13.4006 13.2 12.5006 13.2 11.5006 13.2C11.0006 13.2 10.6006 13.2 10.2006 13.2Z" fill="#9A9A9A"/>
</svg>
