<svg width="16" height="17" viewBox="0 0 16 17" fill="none" xmlns="http://www.w3.org/2000/svg">
<path d="M8 16.5C6.4 16.5 4.80001 16.5 3.20001 16.5C1.40001 16.5 0 15.2 0 13.4C0 12.7 0 11.9 0 11.2C0 10.7 0.300012 10.4 0.700012 10.4C1.10001 10.4 1.40002 10.7 1.40002 11.2C1.40002 11.9 1.40002 12.7 1.40002 13.4C1.40002 14.4 2.09998 15.1 3.09998 15.1C6.29998 15.1 9.59999 15.1 12.8 15.1C13.8 15.1 14.5 14.4 14.5 13.4C14.5 12.7 14.5 11.9 14.5 11.2C14.5 10.7 14.8 10.4 15.2 10.4C15.6 10.4 15.9 10.7 15.9 11.2C15.9 12 15.9 12.8 15.9 13.6C15.9 15.3 14.5 16.6 12.9 16.6C11.3 16.5 9.7 16.5 8 16.5Z" fill="#2F65F6"/>
<path d="M7.29976 9.70006C7.29976 9.60006 7.29976 9.50004 7.29976 9.40004C7.29976 6.70004 7.29976 4.10004 7.29976 1.40004C7.29976 1.10004 7.29977 0.900056 7.49977 0.700056C7.69977 0.500056 7.89978 0.400044 8.19978 0.500044C8.49978 0.600044 8.69978 0.800044 8.69978 1.00004C8.69978 1.10004 8.69978 1.20004 8.69978 1.40004C8.69978 4.00004 8.69978 6.70003 8.69978 9.30003C8.69978 9.40003 8.69978 9.50005 8.69978 9.60005C8.79978 9.60005 8.79979 9.50004 8.89979 9.50004C9.79979 8.60004 10.5998 7.80004 11.4998 6.90004C11.7998 6.60004 12.1998 6.60003 12.4998 6.80003C12.7998 7.00003 12.8998 7.50003 12.6998 7.80003C12.5998 7.90003 12.5998 7.90004 12.4998 8.00004C11.1998 9.30004 9.89975 10.6 8.59975 11.9C8.19975 12.3 7.79979 12.3 7.39979 11.9C6.09979 10.6 4.79977 9.30004 3.49977 8.00004C3.09977 7.60004 3.19976 6.90006 3.79976 6.70006C4.09976 6.60006 4.29975 6.70004 4.59975 6.90004C5.49975 7.80004 6.29978 8.60004 7.19978 9.50004C7.09978 9.60004 7.19976 9.60006 7.29976 9.70006Z" fill="#2F65F6"/>
</svg>
