<svg width="23" height="21" viewBox="0 0 23 21" fill="none" xmlns="http://www.w3.org/2000/svg">
<path d="M22.2 11.2C22.1 11.6 22.1 11.9 22 12.3C21.2 16.1 19 18.7 15.4 19.9C11.3 21.3 6.6 19.7 4.2 16.2C3.9 15.8 3.99999 15.2 4.39999 14.9C4.79999 14.6 5.4 14.7 5.7 15.1C6.9 16.7 8.39999 17.8 10.4 18.3C14.9 19.4 19.5 16.4 20.3 11.9C21 7.70001 18.6 3.80002 14.5 2.60002C10.1 1.40002 5.7 4.00002 4.5 8.30002V8.40001C5 8.10001 5.39999 7.80002 5.89999 7.50002C6.29999 7.30002 6.7 7.30002 7 7.60002C7.3 7.90002 7.4 8.30002 7.2 8.60002C7.1 8.80002 6.99999 8.90002 6.89999 9.00002C5.89999 9.70002 4.89999 10.3 3.89999 11C3.39999 11.3 2.90001 11.2 2.60001 10.7C1.90001 9.60001 1.2 8.60002 0.5 7.50002C0.5 7.30002 0.5 7.10001 0.5 6.90001C0.8 6.10001 1.9 6.00002 2.3 6.80002C2.5 7.10002 2.69999 7.40001 2.89999 7.70001C2.89999 7.60001 3 7.50001 3 7.40001C4.4 2.60001 9.3 -0.49999 14.3 0.40001C18.3 1.10001 21.4 4.20001 22.2 8.20001C22.3 8.70001 22.3 9.10002 22.4 9.60002C22.2 10.2 22.2 10.7 22.2 11.2Z" fill="#2F65F6"/>
<path d="M16.1 10.3C14.8 10.3 13.6 10.3 12.3 10.3C12.3 9.10003 12.3 7.80004 12.3 6.60004C12.3 6.00004 11.9 5.60004 11.4 5.60004C10.9 5.60004 10.5 6.00004 10.5 6.60004C10.5 7.10004 10.5 9.70004 10.5 11.1C10.5 11.7 11 12.1 11.5 12.1C12.9 12.1 15.5 12.1 16 12.1C16.6 12.1 17 11.7 17 11.2C17.1 10.6 16.7 10.3 16.1 10.3Z" fill="#2F65F6"/>
</svg>
