<svg width="19" height="19" viewBox="0 0 19 19" fill="none" xmlns="http://www.w3.org/2000/svg">
<path d="M9.80078 18.2C14.7713 18.2 18.8008 14.1706 18.8008 9.20001C18.8008 4.22945 14.7713 0.200012 9.80078 0.200012C4.83022 0.200012 0.800781 4.22945 0.800781 9.20001C0.800781 14.1706 4.83022 18.2 9.80078 18.2Z" fill="#2F65F6"/>
<path d="M8.5004 14.5C8.2004 14.2 8.0004 13.8 8.0004 13.3C8.0004 12.8 8.2004 12.4 8.5004 12.1C8.8004 11.8 9.3004 11.6 9.8004 11.6C10.3004 11.6 10.8004 11.8 11.1004 12.1C11.4004 12.4 11.6004 12.8 11.6004 13.3C11.6004 13.8 11.4004 14.2 11.1004 14.5C10.8004 14.8 10.3004 15 9.8004 15C9.2004 15 8.8004 14.8 8.5004 14.5ZM7.90039 3.5H11.6004L11.0004 10.7H8.6004L7.90039 3.5Z" fill="white"/>
</svg>
