<svg width="20" height="20" viewBox="0 0 20 20" fill="none" xmlns="http://www.w3.org/2000/svg">
<path d="M6.30078 19.1C7.60078 19.5 9.0008 19.8 10.6008 19.8C10.8008 19.8 11.0008 19.8 11.2008 19.8C12.9008 19.8 14.4008 19.6 15.8008 19.2C17.0008 18.8 18.0008 18.3 18.7008 17.7C19.4008 17 19.8008 16.3 19.8008 15.3C19.8008 14.7 19.8008 14.2 19.8008 13.6C19.8008 13.2 19.8008 12.7 19.8008 12.3C19.8008 11.1 19.2008 10.1 18.1008 9.50003C18.0008 9.50003 18.0008 9.40002 18.0008 9.40002C18.0008 9.30002 18.0008 9.20003 18.0008 9.00003C18.0008 8.80003 18.0008 8.50003 18.0008 8.30003C18.0008 7.50003 18.0008 6.60003 18.0008 5.80003V5.30003C18.0008 5.20003 18.0008 5.00002 18.0008 4.90002C17.9008 4.20002 17.5008 3.50002 16.8008 2.90002C16.1008 2.30002 15.3008 1.90004 14.2008 1.60004C12.9008 1.20004 11.5008 1.00002 10.0008 0.900024C9.80079 0.900024 9.60079 0.900024 9.40079 0.900024C7.70079 0.900024 6.10081 1.10004 4.70081 1.60004C3.50081 2.00004 2.60079 2.40004 1.90079 3.10004C1.10079 3.80004 0.800781 4.60003 0.800781 5.50003C0.800781 6.00003 0.800781 6.50002 0.800781 6.90002C0.800781 7.40002 0.800781 7.90002 0.800781 8.40002C0.800781 8.80002 0.900793 9.20003 1.00079 9.50003C1.30079 10.3 1.8008 10.8 2.6008 11.3C2.6008 11.4 2.6008 11.5 2.6008 11.6C2.6008 11.8 2.6008 12 2.6008 12.2C2.6008 12.6 2.6008 13.1 2.6008 13.5C2.6008 14.1 2.6008 14.7 2.6008 15.3C2.6008 16.1 2.90079 16.8 3.50079 17.4C4.20079 18.2 5.10078 18.7 6.30078 19.1ZM18.1008 15.6C18.1008 15.8 17.9008 16.1 17.8008 16.2C17.4008 16.6 16.9008 16.9 16.5008 17.1C15.6008 17.5 14.5008 17.8 13.3008 18C12.6008 18.1 11.9008 18.1 11.2008 18.1C10.2008 18.1 9.20081 18 8.20081 17.8C7.00081 17.6 6.20079 17.3 5.40079 16.8C5.10079 16.6 4.80079 16.4 4.50079 16.1C4.30079 15.9 4.20081 15.6 4.20081 15.3C4.20081 15.2 4.20081 15 4.20081 14.9C4.20081 14.8 4.20081 14.7 4.20081 14.7V14.6L4.30078 14.7C4.30078 14.7 4.40079 14.7 4.40079 14.8C6.30079 15.8 8.40079 16.4 10.5008 16.4C10.6008 16.4 10.8008 16.4 10.9008 16.4C11.1008 16.4 11.3008 16.4 11.5008 16.4C12.0008 16.4 12.6008 16.4 13.1008 16.3C14.7008 16.1 16.2008 15.6 17.7008 14.8C17.7008 14.8 17.8008 14.7 17.9008 14.7L18.0008 14.6V14.7C18.0008 14.8 18.0008 14.9 18.0008 15C18.2008 15.2 18.2008 15.4 18.1008 15.6ZM17.0008 10.8C17.2008 10.9 17.2008 11 17.3008 11C17.5008 11.2 17.7008 11.4 17.9008 11.6C18.2008 12 18.2008 12.3 17.9008 12.7C17.6008 13.2 17.1008 13.5 16.6008 13.7C15.7008 14.2 14.6008 14.5 13.3008 14.7C12.6008 14.8 11.8008 14.9 11.1008 14.9C10.5008 14.9 9.80081 14.9 9.20081 14.8C7.70081 14.6 6.50079 14.3 5.50079 13.7C5.10079 13.5 4.70079 13.3 4.40079 12.8C4.30079 12.7 4.30081 12.6 4.20081 12.5C4.20081 12.4 4.1008 12.4 4.1008 12.3L4.20081 12.2C4.30081 12.2 4.40079 12.3 4.50079 12.3C4.70079 12.4 4.9008 12.4 5.1008 12.5C6.4008 12.9 7.80081 13 9.20081 13C9.50081 13 9.90081 13 10.2008 13C11.6008 12.9 12.9008 12.7 14.0008 12.3C15.4008 11.9 16.3008 11.4 17.0008 10.8ZM2.80078 4.60004C3.30078 4.00004 3.90079 3.70003 4.50079 3.50003C5.60079 3.00003 6.90079 2.80004 8.40079 2.60004C8.70079 2.60004 8.90081 2.60004 9.20081 2.60004C9.30081 2.60004 9.40079 2.60004 9.40079 2.60004C11.4008 2.60004 13.0008 2.90002 14.4008 3.40002C15.1008 3.70002 15.5008 3.90003 16.0008 4.30003C16.4008 4.60003 16.6008 4.90003 16.6008 5.30003C16.6008 5.60003 16.4008 5.90003 16.0008 6.20003C15.4008 6.70003 14.6008 7.10002 13.5008 7.40002C12.3008 7.70002 11.0008 7.90002 9.70081 7.90002C8.80081 7.90002 7.90079 7.80003 7.00079 7.70003C5.70079 7.50003 4.70079 7.10004 3.90079 6.60004C3.60079 6.40004 3.30079 6.20002 3.00079 5.90002C2.40079 5.40002 2.40078 5.00004 2.80078 4.60004ZM2.50079 8.30003C2.50079 8.20003 2.50079 8.10003 2.50079 8.00003V7.90002V7.80003L2.80078 8.00003C2.90078 8.10003 3.0008 8.10003 3.1008 8.20003C4.9008 9.10003 6.9008 9.60004 9.1008 9.60004H9.20081H9.30078C10.3008 9.60004 11.3008 9.60002 12.2008 9.40002C13.6008 9.20002 14.9008 8.70003 16.2008 8.00003C16.2008 8.00003 16.3008 8.00002 16.3008 7.90002C16.3008 8.00002 16.3008 8.10003 16.3008 8.20003C16.3008 8.40003 16.3008 8.60003 16.3008 8.80003C16.3008 9.10003 16.1008 9.30003 15.9008 9.50003C15.4008 10 14.7008 10.3 14.2008 10.5C12.9008 11 11.4008 11.3 9.80078 11.3C9.70078 11.3 9.50079 11.3 9.40079 11.3C7.70079 11.3 6.20079 11.1 4.90079 10.6C4.20079 10.4 3.70081 10.1 3.20081 9.70003C2.70081 9.30003 2.40079 8.80003 2.50079 8.30003Z" fill="#2F65F6"/>
</svg>
