<svg width="23" height="21" viewBox="0 0 23 21" fill="none" xmlns="http://www.w3.org/2000/svg">
<path d="M21.827 11.1C21.727 11.5 21.727 11.8 21.627 12.2C20.827 16 18.627 18.6 15.027 19.8C10.927 21.2 6.22697 19.6 3.82697 16.1C3.52697 15.7 3.62698 15.1 4.02698 14.8C4.42698 14.5 5.02697 14.6 5.32697 15C6.52697 16.6 8.02698 17.7 10.027 18.2C14.527 19.3 19.127 16.3 19.927 11.8C20.627 7.6 18.227 3.7 14.127 2.5C9.72695 1.3 5.32695 3.9 4.12695 8.2V8.3C4.62695 8 5.02698 7.69999 5.52698 7.39999C5.92698 7.19999 6.32695 7.2 6.62695 7.5C6.92695 7.8 7.02697 8.2 6.82697 8.5C6.72697 8.7 6.62698 8.79999 6.52698 8.89999C5.52698 9.59999 4.52698 10.2 3.52698 10.9C3.02698 11.2 2.52699 11.1 2.22699 10.6C1.52699 9.50001 0.826953 8.49999 0.126953 7.39999C0.126953 7.19999 0.126953 7 0.126953 6.8C0.426953 6 1.527 5.9 1.927 6.7C2.127 7 2.32698 7.30001 2.52698 7.60001C2.52698 7.50001 2.62695 7.4 2.62695 7.3C4.02695 2.5 8.927 -0.599996 13.927 0.300004C17.927 1 21.027 4.10001 21.827 8.10001C21.927 8.60001 21.927 9 22.027 9.5C21.827 10.1 21.827 10.6 21.827 11.1Z" fill="#9A9A9A"/>
<path d="M15.8265 10.2C14.5265 10.2 13.3266 10.2 12.0266 10.2C12.0266 9 12.0266 7.7 12.0266 6.5C12.0266 5.9 11.6265 5.5 11.1265 5.5C10.6265 5.5 10.2266 5.9 10.2266 6.5C10.2266 7 10.2266 9.6 10.2266 11C10.2266 11.6 10.7266 12 11.2266 12C12.6266 12 15.2266 12 15.7266 12C16.3266 12 16.7266 11.6 16.7266 11.1C16.8266 10.6 16.4265 10.2 15.8265 10.2Z" fill="#9A9A9A"/>
</svg>
