<svg width="21" height="21" viewBox="0 0 21 21" fill="none" xmlns="http://www.w3.org/2000/svg">
<path d="M14.9004 0C15.0004 0 15.1004 6.10203e-06 15.2004 0.100006C16.7004 0.400006 17.8004 1.7 17.8004 3.3C17.8004 4.9 17.8004 6.5 17.8004 8.2C17.8004 8.6 17.6004 8.9 17.2004 9C16.9004 9.1 16.5004 9 16.3004 8.7C16.2004 8.5 16.1004 8.30001 16.1004 8.10001C16.1004 6.50001 16.1004 4.99999 16.1004 3.39999C16.1004 2.79999 15.9004 2.3 15.5004 2C15.2004 1.8 14.9004 1.7 14.5004 1.7C11.2004 1.7 6.9004 1.7 3.6004 1.7C2.7004 1.7 2.0004 2.3 2.0004 3.3C2.0004 3.4 2.0004 3.4 2.0004 3.5C2.0004 8.1 2.0004 12.8 2.0004 17.4C2.0004 18.1 2.30039 18.7 2.90039 19C3.10039 19.1 3.40038 19.2 3.70038 19.2C4.60038 19.2 6.40038 19.2 7.30038 19.2C7.70038 19.2 8.0004 19.4 8.1004 19.7C8.2004 20 8.10039 20.4 7.90039 20.6C7.80039 20.7 7.7004 20.7 7.6004 20.8C6.5004 20.8 4.40039 20.8 3.40039 20.8C3.30039 20.8 3.30038 20.8 3.20038 20.8C1.90038 20.6 0.700397 19.5 0.500397 18.2C0.400397 17.6 0.400391 17.1 0.400391 16.5C0.400391 12.2 0.400391 7.9 0.400391 3.5C0.400391 1.8 1.6004 0.499997 3.0004 0.199997C3.1004 0.199997 3.20038 0.200006 3.30038 0.100006C6.80038 6.10203e-06 11.3004 0 14.9004 0Z" fill="#9A9A9A"/>
<path d="M10.8008 20.7C10.7008 20.7 10.7008 20.7 10.8008 20.7C10.3008 20.5 10.1008 20.1 10.2008 19.6C10.5008 18.5 10.8008 17.5 11.2008 16.5C11.2008 16.3 11.4008 16.2 11.5008 16.1C12.9008 14.6 14.4008 13.2 15.9008 11.8C16.6008 11.1 17.4008 10.9 18.4008 11.2C19.3008 11.5 19.9008 12.1 20.1008 13.1C20.2008 13.8 20.0008 14.5 19.6008 15.1C19.5008 15.2 19.4008 15.3 19.3008 15.5C17.9008 16.9 16.6008 18.2 15.2008 19.6C15.0008 19.8 14.8008 19.9 14.5008 20C13.4008 20.3 12.4008 20.6 11.3008 20.9C11.0008 20.7 10.9008 20.7 10.8008 20.7ZM15.6008 14.1C15.6008 14.1 15.5008 14.2 15.5008 14.3C14.7008 15.1 13.9008 15.9 13.0008 16.8C12.7008 17 12.6008 17.3 12.5008 17.7C12.4008 18.1 12.3008 18.4 12.2008 18.8C12.7008 18.7 13.2008 18.5 13.6008 18.4C13.7008 18.4 13.8008 18.3 13.9008 18.2C14.6008 17.5 15.3008 16.8 16.1008 16.1C16.3008 15.9 16.6008 15.6 16.8008 15.4C16.4008 14.9 16.0008 14.6 15.6008 14.1ZM16.8008 13C17.2008 13.4 17.6008 13.8 17.9008 14.1C18.2008 13.9 18.3008 13.6 18.2008 13.2C18.1008 12.9 17.9008 12.7 17.6008 12.6C17.3008 12.6 17.0008 12.7 16.8008 13Z" fill="#9A9A9A"/>
<path d="M9.59961 4.79999C10.9996 4.79999 12.3996 4.79999 13.6996 4.79999C14.2996 4.79999 14.6996 5.39998 14.4996 5.89998C14.3996 6.19998 14.0996 6.39998 13.7996 6.39998C13.6996 6.39998 13.4996 6.39998 13.3996 6.39998C10.7996 6.39998 7.1996 6.39998 4.4996 6.39998C3.9996 6.39998 3.59961 5.99999 3.59961 5.59999C3.59961 5.09999 3.9996 4.79999 4.3996 4.79999C5.4996 4.79999 7.59959 4.79999 8.69958 4.79999C8.99959 4.79999 9.29961 4.79999 9.59961 4.79999Z" fill="#9A9A9A"/>
<path d="M9.601 9.7C8.201 9.7 5.80099 9.7 4.50099 9.7C4.00099 9.7 3.60097 9.3 3.70097 8.8C3.70097 8.4 4.00098 8.20001 4.40098 8.10001H4.50099C7.20099 8.10001 11.001 8.10001 13.701 8.10001C14.201 8.10001 14.501 8.39999 14.601 8.89999C14.601 9.39999 14.301 9.7 13.801 9.7C12.801 9.7 11.901 9.7 10.901 9.7C10.401 9.7 10.001 9.7 9.601 9.7Z" fill="#9A9A9A"/>
<path d="M7.8996 11.3C8.6996 11.3 9.5996 11.3 10.3996 11.3C10.7996 11.3 11.0996 11.5 11.1996 11.9C11.2996 12.2 11.1996 12.6 10.8996 12.8C10.7996 12.9 10.5996 13 10.3996 13C8.6996 13 6.0996 13 4.3996 13C3.8996 13 3.59961 12.7 3.59961 12.2C3.59961 11.7 3.9996 11.4 4.3996 11.4C5.2996 11.3 7.0996 11.3 7.8996 11.3Z" fill="#9A9A9A"/>
</svg>
