<svg width="24" height="22" viewBox="0 0 24 22" fill="none" xmlns="http://www.w3.org/2000/svg">
<path d="M1.02943 7.25451C2.02943 6.35451 3.02944 5.35451 3.92944 4.45451C5.22944 3.25451 6.42945 2.05451 7.72945 0.754509C7.82945 0.654509 7.82944 0.654508 7.92944 0.554508C8.12944 0.654508 8.32943 0.85451 8.52943 0.95451C8.82943 1.15451 9.12944 1.35451 9.32944 1.55451C9.52944 1.75451 9.72944 1.95451 9.92944 1.95451C10.1294 1.95451 10.4294 1.75451 10.6294 1.75451C10.9294 1.65451 11.3294 1.65451 11.6294 1.65451C12.5294 1.65451 13.4294 1.65451 14.3294 1.65451C14.4294 1.65451 14.5294 1.65451 14.6294 1.55451C15.0294 1.05451 15.5294 0.65451 16.0294 0.15451C18.4294 2.65451 20.9294 5.15451 23.3294 7.65451C22.4294 8.55451 21.5294 9.35451 20.5294 10.2545C20.7294 10.3545 20.8294 10.4545 20.9294 10.6545C21.2294 10.9545 21.6294 11.3545 21.9294 11.6545C23.1294 12.8545 22.6294 14.8545 21.0294 15.2545H20.9294C21.0294 15.9545 20.8294 16.5545 20.3294 17.0545C19.8294 17.5545 19.1294 17.7545 18.4294 17.5545C18.2294 18.1545 17.9294 18.6545 17.4294 18.9545C16.9294 19.2545 16.3294 19.2545 15.7294 19.1545C15.4294 19.9545 14.9294 20.4545 14.0294 20.6545C13.1294 20.7545 12.5294 20.3545 11.9294 19.8545C11.6294 20.1545 11.4294 20.3545 11.1294 20.5545C10.5294 21.1545 9.72944 21.3545 8.92944 21.0545C8.32944 20.8545 7.92945 20.4545 7.72945 19.9545C7.72945 19.8545 7.72944 19.8545 7.62944 19.8545C7.32944 19.8545 7.02945 19.8545 6.72945 19.8545C5.82945 19.7545 5.02944 18.9545 4.92944 18.1545C4.92944 18.0545 4.92945 17.9545 4.72945 17.9545C3.72945 17.8545 2.92944 17.0545 2.92944 15.9545V15.8545C2.62944 15.6545 2.22944 15.5545 1.92944 15.3545C0.929443 14.5545 0.829446 13.1545 1.72945 12.2545C2.12945 11.8545 2.62943 11.3545 3.02943 10.9545C3.02943 10.9545 3.02944 10.8545 2.92944 10.8545C2.22944 9.75451 1.62944 8.65451 0.929443 7.55451C1.02944 7.35451 1.02943 7.35451 1.02943 7.25451ZM12.8294 14.6545C12.8294 14.6545 12.9294 14.7545 12.9294 14.8545C13.7294 15.6545 14.5294 16.4545 15.4294 17.3545C15.5294 17.4545 15.7294 17.6545 15.8294 17.7545C16.1294 17.9545 16.4294 18.0545 16.7294 17.8545C17.0294 17.6545 17.2294 17.3545 17.1294 17.0545C17.1294 16.8545 16.9294 16.6545 16.8294 16.5545C15.9294 15.6545 14.9294 14.6545 14.0294 13.7545C13.9294 13.6545 13.9294 13.6545 13.9294 13.6545C14.2294 13.3545 14.5294 13.0545 14.8294 12.7545C14.8294 12.7545 14.9294 12.8545 14.9294 12.9545C16.0294 14.0545 17.0294 15.0545 18.1294 16.1545C18.2294 16.2545 18.2294 16.2545 18.3294 16.3545C18.8294 16.7545 19.4294 16.4545 19.5294 15.8545C19.6294 15.5545 19.4294 15.3545 19.2294 15.0545C18.1294 13.9545 17.0294 12.8545 16.0294 11.8545C15.9294 11.7545 15.9294 11.7545 15.8294 11.7545C16.1294 11.4545 16.4294 11.1545 16.7294 10.8545C16.7294 10.8545 16.8294 10.9545 16.9294 10.9545C17.9294 11.9545 18.8294 12.8545 19.8294 13.8545C20.0294 14.0545 20.3294 14.2545 20.6294 14.1545C20.9294 14.0545 21.1294 13.8545 21.2294 13.5545C21.3294 13.2545 21.2294 12.9545 20.9294 12.7545C18.8294 10.6545 16.6294 8.45451 14.5294 6.35451C14.4294 6.25451 14.3294 6.25451 14.2294 6.25451C13.6294 6.25451 12.9294 6.25451 12.3294 6.25451C12.1294 6.25451 12.0294 6.35451 11.9294 6.45451C11.3294 7.15451 10.6294 7.75451 10.0294 8.35451C9.42943 8.95451 8.62944 8.95451 7.82944 8.65451C7.12944 8.35451 6.62943 7.75451 6.52943 6.95451C6.42943 6.15451 6.62944 5.55451 7.12944 4.95451C7.72944 4.35451 8.32944 3.75451 8.92944 3.15451C8.52944 2.85451 8.22944 2.65451 7.92944 2.35451C6.12944 4.05451 4.32944 5.75451 2.62944 7.55451C3.22944 8.55451 3.82944 9.55451 4.42944 10.5545C4.42944 10.6545 4.52944 10.6545 4.62944 10.6545C5.52944 10.8545 6.22944 11.4545 6.32944 12.4545C6.32944 12.5545 6.42943 12.6545 6.52943 12.6545C7.42943 12.7545 8.02945 13.2545 8.22945 14.1545C8.32945 14.4545 8.42945 14.5545 8.72945 14.6545C9.62945 14.8545 10.1294 15.4545 10.2294 16.3545C10.2294 16.4545 10.2294 16.5545 10.4294 16.5545C11.3294 16.6545 12.1294 17.3545 12.2294 18.2545C12.2294 18.3545 12.3294 18.4545 12.3294 18.4545C12.6294 18.6545 12.8294 18.9545 13.1294 19.1545C13.3294 19.3545 13.6294 19.3545 13.9294 19.3545C14.5294 19.1545 14.6294 18.4545 14.2294 18.0545C13.7294 17.5545 13.1294 16.9545 12.6294 16.4545C12.4294 16.2545 12.1294 15.9545 11.9294 15.7545C12.1294 15.3545 12.4294 15.0545 12.8294 14.6545ZM15.9294 2.05451C15.8294 2.15451 15.8294 2.25451 15.7294 2.25451C15.4294 2.55451 15.2294 2.85451 14.9294 2.95451C14.6294 3.05451 14.2294 2.95451 13.8294 2.95451C13.0294 2.95451 12.2294 2.95451 11.4294 2.95451C10.9294 2.95451 10.5294 3.15451 10.1294 3.45451C9.42944 4.15451 8.72943 4.85451 8.02943 5.65451L7.92944 5.75451C7.52944 6.25451 7.72944 7.05451 8.42944 7.15451C8.82944 7.25451 9.12944 7.15451 9.32944 6.85451C10.0294 6.15451 10.7294 5.45451 11.4294 4.75451C11.5294 4.65451 11.6294 4.65451 11.7294 4.65451C12.7294 4.65451 13.7294 4.65451 14.7294 4.65451C14.9294 4.65451 15.0294 4.65451 15.1294 4.85451C16.5294 6.25451 17.9294 7.65451 19.4294 9.15451C19.5294 9.25451 19.5294 9.25451 19.6294 9.35451C20.2294 8.75451 20.8294 8.25451 21.4294 7.65451C19.6294 5.75451 17.8294 3.85451 15.9294 2.05451ZM9.02943 16.6545C9.02943 16.2545 8.82943 16.0545 8.52943 15.8545C8.22943 15.7545 7.92945 15.7545 7.72945 15.9545C7.32945 16.3545 6.82944 16.7545 6.42944 17.2545C6.12944 17.5545 6.12944 18.0545 6.42944 18.2545C6.72944 18.5545 7.12944 18.5545 7.42944 18.2545C7.82944 17.8545 8.32945 17.4545 8.72945 16.9545C8.92945 16.9545 8.92943 16.7545 9.02943 16.6545ZM5.12944 16.5545C5.22944 16.5545 5.42943 16.4545 5.52943 16.3545C6.02943 15.9545 6.42944 15.4545 6.92944 14.9545C7.22944 14.6545 7.12944 14.2545 6.82944 13.9545C6.52944 13.6545 6.12944 13.6545 5.82944 13.9545C5.32944 14.3545 4.92944 14.8545 4.42944 15.3545C4.22944 15.5545 4.22944 15.8545 4.32944 16.1545C4.42944 16.4545 4.72944 16.5545 5.12944 16.5545ZM3.32944 14.4545C3.42944 14.4545 3.52945 14.3545 3.72945 14.3545C4.12945 13.9545 4.62944 13.5545 4.92944 13.1545C5.12944 12.8545 5.12944 12.4545 4.82944 12.1545C4.52944 11.8545 4.12944 11.8545 3.82944 12.0545C3.42944 12.4545 3.02944 12.8545 2.62944 13.2545C2.42944 13.4545 2.42943 13.7545 2.52943 14.0545C2.72943 14.2545 2.92944 14.3545 3.32944 14.4545ZM10.9294 18.6545C10.9294 18.2545 10.7294 18.0545 10.5294 17.8545C10.2294 17.7545 9.92945 17.7545 9.72945 17.9545C9.52945 18.1545 9.32943 18.3545 9.02943 18.5545C8.72943 18.8545 8.72943 19.3545 9.02943 19.5545C9.32943 19.8545 9.72944 19.8545 10.1294 19.5545C10.3294 19.3545 10.5294 19.1545 10.7294 18.9545C10.8294 18.8545 10.9294 18.6545 10.9294 18.6545Z" fill="white"/>
</svg>
