<svg width="28" height="22" viewBox="0 0 28 22" fill="none" xmlns="http://www.w3.org/2000/svg">
<path d="M27.2297 11C27.1297 11.5 27.0297 12 26.6297 12.4C26.2297 12.9 25.7297 13.3 25.0297 13.5C24.8297 13.5 24.7297 13.6 24.7297 13.8C24.7297 14.7 24.7297 15.6 24.7297 16.5C24.7297 17.1 24.3297 17.5 23.8297 17.4C23.6297 17.4 23.4297 17.2 23.2297 17.1C22.0297 16 20.8297 14.9 19.6297 13.7C19.5297 13.6 19.3297 13.5 19.2297 13.5C18.4297 13.5 17.7297 13.5 16.9297 13.5C16.9297 13.7 16.9297 13.9 16.9297 14.1C16.9297 14.6 16.9297 15.2 16.8297 15.7C16.6297 17.1 15.4297 18 14.0297 18C11.9297 18 9.7297 18 7.6297 18C7.4297 18 7.3297 18 7.1297 18.2C6.0297 19.2 4.92971 20.1 3.82971 21.1C3.52971 21.3 3.22969 21.5 2.92969 21.3C2.52969 21.1 2.42969 20.8 2.42969 20.4C2.42969 19.6 2.42969 18.9 2.42969 18.1C2.42969 18 2.42974 17.9 2.22974 17.8C1.22974 17.4 0.629688 16.7 0.429688 15.6V15.5C0.429688 13.3 0.429688 11.2 0.429688 8.99998C0.429688 8.99998 0.429688 8.99998 0.429688 8.89998C0.829688 7.19998 1.82972 6.49998 3.52972 6.49998C4.92972 6.49998 6.32974 6.49998 7.72974 6.49998C7.82974 6.49998 7.92972 6.49998 8.02972 6.49998C8.02972 6.39998 8.02972 6.29998 8.02972 6.19998C8.02972 5.19998 8.02972 4.19998 8.02972 3.19998C8.02972 1.59998 9.22971 0.299988 10.8297 0.299988C15.2297 0.299988 19.6297 0.299988 24.1297 0.299988C25.0297 0.299988 25.8297 0.699979 26.4297 1.39998C26.7297 1.79998 26.9297 2.29998 27.0297 2.69998C27.2297 5.49998 27.2297 8.29998 27.2297 11ZM23.3297 14.8C23.3297 14.1 23.3297 13.5 23.3297 12.9C23.3297 12.2 23.6297 11.9 24.3297 11.9C25.2297 11.9 25.7297 11.4 25.7297 10.5C25.7297 8.09998 25.7297 5.69999 25.7297 3.29999C25.7297 3.09999 25.7297 2.99999 25.6297 2.79999C25.4297 2.19999 25.0297 1.89998 24.3297 1.89998C21.2297 1.89998 18.1297 1.89998 15.0297 1.89998C13.7297 1.89998 12.5297 1.89998 11.2297 1.89998C10.4297 1.89998 9.92969 2.39998 9.92969 3.19998C9.92969 5.69998 9.92969 8.19998 9.92969 10.7C9.92969 11.2 10.1297 11.6 10.5297 11.8C10.7297 11.9 11.0297 12 11.3297 12C14.1297 12 16.9297 12 19.7297 12C20.1297 12 20.4297 12.1 20.6297 12.4C21.2297 12.9 21.7297 13.5 22.3297 14C22.6297 14.2 22.9297 14.5 23.3297 14.8ZM15.5297 13.5C15.4297 13.5 15.3297 13.5 15.2297 13.5C13.9297 13.5 12.5297 13.5 11.2297 13.5C9.62974 13.5 8.42971 12.3 8.32971 10.7C8.32971 10.1 8.32971 9.39999 8.32971 8.79999C8.32971 8.59999 8.32971 8.39998 8.32971 8.19998C8.22971 8.19998 8.1297 8.19998 8.1297 8.19998C6.6297 8.19998 5.12972 8.19998 3.52972 8.19998C2.72972 8.19998 2.22974 8.69998 2.22974 9.49998C2.22974 11.4 2.22974 13.3 2.22974 15.2C2.22974 16 2.62969 16.4 3.42969 16.5C4.02969 16.6 4.22974 16.8 4.22974 17.5C4.22974 18 4.22974 18.4 4.22974 18.9C4.32974 18.8 4.42969 18.8 4.42969 18.7C5.12969 18.1 5.9297 17.5 6.6297 16.8C6.8297 16.6 7.12972 16.5 7.52972 16.5C8.72972 16.5 9.92974 16.5 11.2297 16.5C12.2297 16.5 13.2297 16.5 14.2297 16.5C15.0297 16.5 15.5297 16.1 15.5297 15.4C15.5297 14.8 15.5297 14.2 15.5297 13.5Z" fill="#9A9A9A"/>
<path d="M17.7301 6.29999C16.2301 6.29999 14.7301 6.29999 13.2301 6.29999C12.7301 6.29999 12.3301 5.99998 12.3301 5.49998C12.3301 5.09998 12.6301 4.79999 13.0301 4.79999C13.1301 4.79999 13.2301 4.79999 13.4301 4.79999C16.3301 4.79999 19.2301 4.79999 22.1301 4.79999C22.2301 4.79999 22.3301 4.79999 22.4301 4.79999C22.8301 4.79999 23.1301 5.19999 23.1301 5.59999C23.1301 5.99999 22.8301 6.39998 22.4301 6.39998C22.2301 6.39998 21.9301 6.39998 21.7301 6.39998C20.4301 6.29998 19.1301 6.29999 17.7301 6.29999Z" fill="#9A9A9A"/>
<path d="M17.8306 8C19.3306 8 20.7306 8 22.2306 8C22.3306 8 22.5305 8 22.6305 8C23.0305 8.1 23.2306 8.4 23.2306 8.8C23.2306 9.2 22.9305 9.50001 22.6305 9.60001C22.5305 9.60001 22.4306 9.60001 22.3306 9.60001C19.4306 9.60001 16.4306 9.60001 13.5306 9.60001C12.9306 9.60001 12.5305 9.3 12.6305 8.7C12.6305 8.4 12.9306 8.1 13.2306 8C13.3306 8 13.5305 8 13.6305 8C14.8305 8 16.3306 8 17.8306 8Z" fill="#9A9A9A"/>
</svg>
