<svg width="28" height="22" viewBox="0 0 28 22" fill="none" xmlns="http://www.w3.org/2000/svg">
<path d="M27.4992 11C27.3992 11.5 27.2992 12 26.8992 12.4C26.4992 12.9 25.9992 13.3 25.2992 13.5C25.0992 13.5 24.9992 13.6 24.9992 13.8C24.9992 14.7 24.9992 15.6 24.9992 16.5C24.9992 17.1 24.5992 17.5 24.0992 17.4C23.8992 17.4 23.6992 17.2 23.4992 17.1C22.2992 16 21.0992 14.9 19.8992 13.7C19.7992 13.6 19.5992 13.5 19.4992 13.5C18.6992 13.5 17.9992 13.5 17.1992 13.5C17.1992 13.7 17.1992 13.9 17.1992 14.1C17.1992 14.6 17.1992 15.2 17.0992 15.7C16.8992 17.1 15.6992 18 14.2992 18C12.1992 18 9.9992 18 7.8992 18C7.6992 18 7.5992 18 7.3992 18.2C6.2992 19.2 5.19921 20.1 4.09921 21.1C3.79921 21.3 3.49922 21.5 3.19922 21.3C2.79922 21.1 2.69922 20.8 2.69922 20.4C2.69922 19.6 2.69922 18.9 2.69922 18.1C2.69922 18 2.69921 17.9 2.49921 17.8C1.49921 17.4 0.899219 16.7 0.699219 15.6V15.5C0.699219 13.3 0.699219 11.2 0.699219 8.99998C0.699219 8.99998 0.699219 8.99998 0.699219 8.89998C1.09922 7.19998 2.09919 6.49998 3.79919 6.49998C5.19919 6.49998 6.59921 6.49998 7.99921 6.49998C8.09921 6.49998 8.19919 6.49998 8.29919 6.49998C8.29919 6.39998 8.29919 6.29998 8.29919 6.19998C8.29919 5.19998 8.29919 4.19998 8.29919 3.19998C8.29919 1.59998 9.49921 0.299988 11.0992 0.299988C15.4992 0.299988 19.8992 0.299988 24.3992 0.299988C25.2992 0.299988 26.0992 0.699979 26.6992 1.39998C26.9992 1.79998 27.1992 2.29998 27.2992 2.69998C27.4992 5.59998 27.4992 8.29998 27.4992 11ZM23.4992 14.8C23.4992 14.1 23.4992 13.5 23.4992 12.9C23.4992 12.2 23.7992 11.9 24.4992 11.9C25.3992 11.9 25.8992 11.4 25.8992 10.5C25.8992 8.09998 25.8992 5.69999 25.8992 3.29999C25.8992 3.09999 25.8992 2.99999 25.7992 2.79999C25.5992 2.19999 25.1992 1.89998 24.4992 1.89998C21.3992 1.89998 18.2992 1.89998 15.1992 1.89998C13.8992 1.89998 12.6992 1.89998 11.3992 1.89998C10.5992 1.89998 10.0992 2.39998 10.0992 3.19998C10.0992 5.69998 10.0992 8.19998 10.0992 10.7C10.0992 11.2 10.2992 11.6 10.6992 11.8C10.8992 11.9 11.1992 12 11.4992 12C14.2992 12 17.0992 12 19.8992 12C20.2992 12 20.5992 12.1 20.7992 12.4C21.3992 12.9 21.8992 13.5 22.4992 14C22.8992 14.2 23.1992 14.5 23.4992 14.8ZM15.6992 13.6C15.5992 13.6 15.4992 13.6 15.3992 13.6C14.0992 13.6 12.6992 13.6 11.3992 13.6C9.7992 13.6 8.59921 12.4 8.49921 10.8C8.49921 10.2 8.49921 9.49998 8.49921 8.89998C8.49921 8.69998 8.49921 8.49999 8.49921 8.29999C8.39921 8.29999 8.29919 8.29999 8.29919 8.29999C6.79919 8.29999 5.29922 8.29999 3.69922 8.29999C2.89922 8.29999 2.3992 8.79999 2.3992 9.59999C2.3992 11.5 2.3992 13.4 2.3992 15.3C2.3992 16.1 2.79921 16.5 3.59921 16.6C4.19921 16.7 4.3992 16.9 4.3992 17.6C4.3992 18.1 4.3992 18.5 4.3992 19C4.4992 18.9 4.59921 18.9 4.59921 18.8C5.29921 18.2 6.09919 17.6 6.79919 16.9C6.99919 16.7 7.29922 16.6 7.69922 16.6C8.89922 16.6 10.0992 16.6 11.3992 16.6C12.3992 16.6 13.3992 16.6 14.3992 16.6C15.1992 16.6 15.6992 16.2 15.6992 15.5C15.6992 14.8 15.6992 14.2 15.6992 13.6Z" fill="#2F65F6"/>
<path d="M17.9996 6.29999C16.4996 6.29999 14.9996 6.29999 13.4996 6.29999C12.9996 6.29999 12.5996 5.99998 12.5996 5.49998C12.5996 5.09998 12.8996 4.79999 13.2996 4.79999C13.3996 4.79999 13.4996 4.79999 13.6996 4.79999C16.5996 4.79999 19.4996 4.79999 22.3996 4.79999C22.4996 4.79999 22.5996 4.79999 22.6996 4.79999C23.0996 4.79999 23.3996 5.19999 23.3996 5.59999C23.3996 5.99999 23.0996 6.39998 22.6996 6.39998C22.4996 6.39998 22.1996 6.39998 21.9996 6.39998C20.5996 6.29998 19.2996 6.29999 17.9996 6.29999Z" fill="#2F65F6"/>
<path d="M17.9985 8C19.4985 8 20.8985 8 22.3985 8C22.4985 8 22.6985 8 22.7985 8C23.1985 8.1 23.3985 8.4 23.3985 8.8C23.3985 9.2 23.0985 9.50001 22.7985 9.60001C22.6985 9.60001 22.5985 9.60001 22.4985 9.60001C19.5985 9.60001 16.5985 9.60001 13.6985 9.60001C13.0985 9.60001 12.6985 9.3 12.7985 8.7C12.7985 8.4 13.0985 8.1 13.3985 8C13.4985 8 13.6985 8 13.7985 8C15.0985 8 16.5985 8 17.9985 8Z" fill="#2F65F6"/>
</svg>
