<svg width="18" height="21" viewBox="0 0 18 21" fill="none" xmlns="http://www.w3.org/2000/svg">
<path d="M17.5 5.5C17.5 4.8 17.5 4 17.5 3.3C17.5 1.7 16.4 0.400006 14.9 0.100006C14.8 0.100006 14.7 0.1 14.6 0C12.4 0 9.7 0 7.2 0C5.7 0 4.3 0 3 0C2.9 0 2.8 6.10203e-06 2.7 0.100006H2.6C2.5 0.100006 2.3 0.199997 2.2 0.199997H2.1C2 0.299997 1.8 0.299994 1.7 0.399994C1.7 0.399994 1.6 0.4 1.6 0.5C1.5 0.6 1.3 0.700003 1.2 0.800003C0.599997 1.3 0.199998 1.9 0.0999985 2.7C0.0999985 2.9 0 3.19999 0 3.39999C0 5.69999 0 8.09999 0 10.4C0 12.7 0 15.1 0 17.4C0 17.6 -1.52737e-06 17.9 0.0999985 18.1C0.199998 18.8 0.599997 19.5 1.2 20C1.3 20.1 1.4 20.2 1.6 20.3C1.6 20.3 1.7 20.3 1.7 20.4C1.8 20.5 2 20.5 2.1 20.6H2.2C2.3 20.6 2.5 20.7 2.6 20.7H2.7C2.8 20.7 2.9 20.7 3 20.8C4.1 20.8 6.2 20.8 7.2 20.8C9.7 20.8 12.4 20.8 14.6 20.8C14.7 20.8 14.8 20.8 14.9 20.7C16.4 20.4 17.5 19.1 17.5 17.5C17.5 15.8 17.5 7.1 17.5 5.5ZM15.3 18.7C15 18.9 14.7 19 14.3 19C12 19 9.3 19 6.8 19C6.7 19 6.7 19 6.6 19C5.6 19 4.7 19 3.8 19C3.7 19 3.6 19 3.5 19C3.2 19 2.9 18.9 2.7 18.8C2.4 18.7 2.2 18.5 2 18.2L1.9 18.1C1.8 18 1.8 17.9 1.8 17.7V17.6C1.8 17.5 1.8 17.4 1.8 17.2C1.8 14.9 1.8 12.6 1.8 10.2C1.8 7.9 1.8 5.6 1.8 3.2C1.8 3.1 1.8 2.9 1.8 2.8V2.7C1.8 2.6 1.9 2.5 1.9 2.3C1.9 2.3 1.9 2.2 2 2.2C2.1 2 2.4 1.80001 2.7 1.60001C2.9 1.50001 3.2 1.39999 3.5 1.39999C3.6 1.39999 3.7 1.39999 3.8 1.39999C4.7 1.39999 5.7 1.39999 6.7 1.39999H6.8C9.4 1.39999 12.1 1.39999 14.4 1.39999C14.8 1.39999 15.1 1.5 15.4 1.7C15.9 2.1 16 2.50001 16 3.10001C16 4.00001 16 4.8 16 5.7C16 8 16 15.6 16 17.1C15.9 17.9 15.7 18.4 15.3 18.7Z" fill="#2F65F6"/>
<path d="M9.30078 4.79999C10.7008 4.79999 12.1008 4.79999 13.4008 4.79999C14.0008 4.79999 14.4008 5.39998 14.2008 5.89998C14.1008 6.19998 13.8008 6.39998 13.5008 6.39998C13.4008 6.39998 13.2008 6.39998 13.1008 6.39998C10.5008 6.39998 6.90078 6.39998 4.20078 6.39998C3.70078 6.39998 3.30078 5.99999 3.30078 5.59999C3.30078 5.09999 3.70078 4.79999 4.10078 4.79999C5.20078 4.79999 7.30079 4.79999 8.40079 4.79999C8.80079 4.79999 9.00078 4.79999 9.30078 4.79999Z" fill="#2F65F6"/>
<path d="M9.30019 9.69997C7.90019 9.69997 5.50019 9.69997 4.20019 9.69997C3.70019 9.69997 3.30019 9.29997 3.40019 8.79997C3.40019 8.39997 3.70019 8.19998 4.10019 8.09998H4.20019C6.90019 8.09998 10.7002 8.09998 13.4002 8.09998C13.9002 8.09998 14.2002 8.39996 14.3002 8.89996C14.3002 9.39996 14.0002 9.69997 13.5002 9.69997C12.5002 9.69997 11.6002 9.69997 10.6002 9.69997C10.1002 9.69997 9.70019 9.69997 9.30019 9.69997Z" fill="#2F65F6"/>
<path d="M9.30019 13.2C7.90019 13.2 5.50019 13.2 4.20019 13.2C3.70019 13.2 3.30019 12.8 3.40019 12.3C3.40019 11.9 3.70019 11.7 4.10019 11.6H4.20019C6.90019 11.6 10.7002 11.6 13.4002 11.6C13.9002 11.6 14.2002 11.9 14.3002 12.4C14.3002 12.9 14.0002 13.2 13.5002 13.2C12.5002 13.2 11.6002 13.2 10.6002 13.2C10.1002 13.2 9.70019 13.2 9.30019 13.2Z" fill="#2F65F6"/>
</svg>
