<svg width="17" height="17" viewBox="0 0 17 17" fill="none" xmlns="http://www.w3.org/2000/svg">
<path d="M8.2002 16.8C12.6185 16.8 16.2002 13.2183 16.2002 8.80005C16.2002 4.38177 12.6185 0.800049 8.2002 0.800049C3.78192 0.800049 0.200195 4.38177 0.200195 8.80005C0.200195 13.2183 3.78192 16.8 8.2002 16.8Z" fill="#2F65F6"/>
<path d="M8.20004 9.80012C7.80004 10.2001 7.40003 10.6001 6.90003 11.1001C6.40003 11.6001 5.80004 12.2001 5.30004 12.7001C5.00004 13.0001 4.60004 13.0001 4.30004 12.7001C4.00004 12.4001 4.00004 12.0001 4.30004 11.7001C5.20004 10.8001 6.10004 9.90013 7.00004 9.00013C7.10004 8.90013 7.10004 8.90012 7.20004 8.80012C7.10004 8.70012 7.10004 8.70011 7.00004 8.60011C6.10004 7.70011 5.20004 6.80016 4.30004 5.90016C3.90004 5.50016 4.00004 5.00012 4.50004 4.80012C4.80004 4.70012 5.10004 4.70013 5.30004 5.00013C6.20004 5.90013 7.10003 6.80011 7.90003 7.60011C8.00003 7.70011 8.00004 7.70012 8.10004 7.80012C8.20004 7.70012 8.20004 7.70011 8.30004 7.60011C9.20004 6.70011 10.1 5.80016 11 4.90016C11.4 4.50016 11.9 4.60011 12.1 5.10011C12.2 5.40011 12.1 5.60016 11.9 5.90016C11 6.80016 10.1 7.70011 9.20004 8.60011C9.10004 8.70011 9.10004 8.70012 9.00004 8.80012C9.10004 8.90012 9.10004 8.90013 9.20004 9.00013C10.1 9.90013 11 10.8001 11.9 11.7001C12.1 11.9001 12.2 12.3001 12 12.5001C11.9 12.8001 11.6 12.9001 11.3 12.8001C11.2 12.8001 11 12.7001 10.9 12.6001C10 11.7001 9.10004 10.9001 8.30004 10.0001C8.30004 9.90013 8.20004 9.80012 8.20004 9.80012Z" fill="white"/>
</svg>
