<svg width="17" height="17" viewBox="0 0 17 17" fill="none" xmlns="http://www.w3.org/2000/svg">
<path d="M8.1001 16.8C12.5184 16.8 16.1001 13.2183 16.1001 8.80005C16.1001 4.38177 12.5184 0.800049 8.1001 0.800049C3.68182 0.800049 0.100098 4.38177 0.100098 8.80005C0.100098 13.2183 3.68182 16.8 8.1001 16.8Z" fill="white"/>
<path d="M8.09994 9.80012C7.69994 10.2001 7.29995 10.6001 6.79995 11.1001C6.29995 11.6001 5.69994 12.2001 5.19994 12.7001C4.89994 13.0001 4.49994 13.0001 4.19994 12.7001C3.89994 12.4001 3.89994 12.0001 4.19994 11.7001C5.09994 10.8001 5.99995 9.90013 6.89995 9.00013C6.99995 8.90013 6.99994 8.90012 7.09994 8.80012C6.99994 8.70012 6.99995 8.70011 6.89995 8.60011C5.99995 7.70011 5.09994 6.80016 4.19994 5.90016C3.79994 5.50016 3.89995 5.00012 4.39995 4.80012C4.69995 4.70012 4.99994 4.70013 5.19994 5.00013C6.09994 5.90013 6.99995 6.80011 7.79995 7.60011C7.89995 7.70011 7.89994 7.70012 7.99994 7.80012C8.09994 7.70012 8.09994 7.70011 8.19994 7.60011C9.09994 6.70011 9.99995 5.80016 10.8999 4.90016C11.2999 4.50016 11.7999 4.60011 11.9999 5.10011C12.0999 5.40011 11.9999 5.60016 11.7999 5.90016C10.8999 6.80016 9.99994 7.70011 9.09994 8.60011C8.99994 8.70011 8.99995 8.70012 8.89995 8.80012C8.99995 8.90012 8.99994 8.90013 9.09994 9.00013C9.99994 9.90013 10.8999 10.8001 11.7999 11.7001C11.9999 11.9001 12.0999 12.3001 11.8999 12.5001C11.7999 12.8001 11.4999 12.9001 11.1999 12.8001C11.0999 12.8001 10.8999 12.7001 10.7999 12.6001C9.89995 11.7001 8.99994 10.9001 8.19994 10.0001C8.29994 9.90013 8.19994 9.80012 8.09994 9.80012Z" fill="#969696"/>
</svg>
