<svg width="21" height="22" viewBox="0 0 21 22" fill="none" xmlns="http://www.w3.org/2000/svg">
<path d="M10.5 21.3C4.7 21.3 0 16.6 0 10.8C0 5.00005 4.7 0.300049 10.5 0.300049C16.3 0.300049 21 5.00005 21 10.8C21 16.6 16.2 21.3 10.5 21.3ZM10.5 1.30005C5.3 1.30005 1 5.60005 1 10.8C1 16 5.3 20.3 10.5 20.3C15.7 20.3 20 16 20 10.8C20 5.60005 15.7 1.30005 10.5 1.30005Z" fill="#A0A0A0"/>
<path d="M10.4998 11.9998C9.9998 12.4998 9.39983 13.0998 8.89983 13.5998C8.19983 14.2998 7.59983 14.8998 6.89983 15.5998C6.49983 15.9998 5.99975 15.9998 5.69975 15.5998C5.39975 15.2998 5.39975 14.6999 5.69975 14.3999C6.79975 13.2999 7.8998 12.1998 8.9998 11.0998C9.0998 10.9998 9.09975 10.9999 9.19975 10.8999C9.09975 10.7999 9.0998 10.7998 8.9998 10.6998C7.8998 9.59979 6.79975 8.49987 5.69975 7.39987C5.19975 6.89987 5.39983 6.19984 5.89983 5.99984C6.19983 5.89984 6.59983 5.89979 6.89983 6.19979C7.99983 7.29979 9.09975 8.39984 10.1998 9.49984C10.2998 9.59984 10.2998 9.59979 10.3998 9.69979C10.4998 9.59979 10.4998 9.59984 10.5998 9.49984C11.6998 8.39984 12.7998 7.29982 13.9998 6.09982C14.4998 5.69982 15.1998 5.79989 15.3998 6.29989C15.4998 6.69989 15.4998 6.99989 15.1998 7.29989C14.0998 8.39989 12.9998 9.49982 11.8998 10.5998C11.7998 10.6998 11.7998 10.6999 11.6998 10.7999C11.7998 10.8999 11.7998 10.8998 11.8998 10.9998C12.9998 12.0998 14.0998 13.1999 15.1998 14.2999C15.4998 14.5999 15.5998 14.9999 15.3998 15.2999C15.1998 15.5999 14.8998 15.7998 14.4998 15.6998C14.2998 15.5998 14.0998 15.4999 13.9998 15.3999C12.8998 14.2999 11.7998 13.1998 10.6998 12.0998C10.5998 12.1998 10.4998 12.0998 10.4998 11.9998Z" fill="#A0A0A0"/>
</svg>
