<svg width="15" height="20" viewBox="0 0 15 20" fill="none" xmlns="http://www.w3.org/2000/svg">
<path d="M4.35585 8.59863C4.33756 8.51737 4.30322 8.44058 4.25483 8.37278C4.20645 8.30498 4.145 8.24754 4.07409 8.20382C4.00319 8.16011 3.92427 8.13101 3.84196 8.11824C3.75965 8.10546 3.67562 8.10926 3.5948 8.12943C3.51399 8.14959 3.43801 8.1857 3.37135 8.23565C3.30469 8.28559 3.24869 8.34835 3.20663 8.42024C3.16457 8.49214 3.1373 8.57172 3.12644 8.6543C3.11557 8.73688 3.12132 8.8208 3.14335 8.90113L5.01835 16.4011C5.05211 16.535 5.12924 16.6539 5.23771 16.7393C5.34617 16.8247 5.47986 16.8718 5.6179 16.8732C5.75595 16.8747 5.89058 16.8304 6.00079 16.7472C6.111 16.6641 6.19057 16.5468 6.2271 16.4136L7.4996 11.7524L8.7721 16.4149C8.80862 16.548 8.8882 16.6653 8.9984 16.7485C9.10861 16.8316 9.24324 16.8759 9.38129 16.8745C9.51933 16.8731 9.65302 16.826 9.76149 16.7406C9.86995 16.6552 9.94708 16.5362 9.98085 16.4024L11.8558 8.90238C11.8917 8.74311 11.8638 8.57613 11.7781 8.43717C11.6924 8.2982 11.5558 8.19827 11.3974 8.15876C11.239 8.11924 11.0714 8.14327 10.9305 8.2257C10.7896 8.30814 10.6865 8.44244 10.6433 8.59988L9.34835 13.7799L8.1021 9.21113C8.06572 9.07926 7.98708 8.96296 7.87825 8.88008C7.76942 8.7972 7.63639 8.75232 7.4996 8.75232C7.3628 8.75232 7.22978 8.7972 7.12094 8.88008C7.01211 8.96296 6.93347 9.07926 6.8971 9.21113L5.65085 13.7799L4.35585 8.59863Z" fill="#2F65F6"/>
<path d="M15 17.5V5.625L9.375 0H2.5C1.83696 0 1.20107 0.263392 0.732233 0.732233C0.263392 1.20107 0 1.83696 0 2.5V17.5C0 18.163 0.263392 18.7989 0.732233 19.2678C1.20107 19.7366 1.83696 20 2.5 20H12.5C13.163 20 13.7989 19.7366 14.2678 19.2678C14.7366 18.7989 15 18.163 15 17.5ZM9.375 3.75C9.375 4.24728 9.57254 4.72419 9.92417 5.07583C10.2758 5.42746 10.7527 5.625 11.25 5.625H13.75V17.5C13.75 17.8315 13.6183 18.1495 13.3839 18.3839C13.1495 18.6183 12.8315 18.75 12.5 18.75H2.5C2.16848 18.75 1.85054 18.6183 1.61612 18.3839C1.3817 18.1495 1.25 17.8315 1.25 17.5V2.5C1.25 2.16848 1.3817 1.85054 1.61612 1.61612C1.85054 1.3817 2.16848 1.25 2.5 1.25H9.375V3.75Z" fill="#2F65F6"/>
</svg>
