<svg width="21" height="22" viewBox="0 0 21 22" fill="none" xmlns="http://www.w3.org/2000/svg">
<path d="M15.3999 0.581116C15.4999 0.581116 15.5999 0.581122 15.6999 0.681122C17.1999 0.981122 18.2999 2.28112 18.2999 3.88112C18.2999 5.48112 18.2999 7.08111 18.2999 8.78111C18.2999 9.18111 18.0999 9.48112 17.6999 9.58112C17.3999 9.68112 16.9999 9.58111 16.7999 9.28111C16.6999 9.08111 16.5999 8.88112 16.5999 8.68112C16.5999 7.08112 16.5999 5.58112 16.5999 3.98112C16.5999 3.38112 16.3999 2.88112 15.9999 2.58112C15.6999 2.38112 15.3999 2.28111 14.9999 2.28111C11.6999 2.28111 7.39991 2.28111 4.09991 2.28111C3.19991 2.28111 2.49991 2.88112 2.49991 3.88112C2.49991 3.98112 2.49991 3.98112 2.49991 4.08112C2.49991 8.68112 2.49991 13.3811 2.49991 17.9811C2.49991 18.6811 2.7999 19.2811 3.3999 19.5811C3.5999 19.6811 3.89992 19.7811 4.19992 19.7811C5.09992 19.7811 6.8999 19.7811 7.7999 19.7811C8.1999 19.7811 8.49991 19.9811 8.59991 20.2811C8.69991 20.5811 8.5999 20.9811 8.3999 21.1811C8.2999 21.2811 8.19991 21.2811 8.09991 21.3811C6.99991 21.3811 4.8999 21.3811 3.8999 21.3811C3.7999 21.3811 3.79992 21.3811 3.69992 21.3811C2.39992 21.1811 1.19991 20.0811 0.999908 18.7811C0.899908 18.1811 0.899902 17.6811 0.899902 17.0811C0.899902 12.7811 0.899902 8.48112 0.899902 4.08112C0.899902 2.38112 2.09991 1.08111 3.49991 0.781113C3.59991 0.781113 3.6999 0.781122 3.7999 0.681122C7.2999 0.581122 11.7999 0.581116 15.3999 0.581116Z" fill="#9A9A9A"/>
<path d="M11.2998 21.2811C11.1998 21.2811 11.1998 21.2811 11.2998 21.2811C10.7998 21.0811 10.5998 20.6811 10.6998 20.1811C10.9998 19.0811 11.2998 18.0811 11.6998 17.0811C11.6998 16.8811 11.8998 16.7811 11.9998 16.6811C13.3998 15.1811 14.8998 13.7811 16.3998 12.3811C17.0998 11.6811 17.8998 11.4811 18.8998 11.7811C19.7998 12.0811 20.3998 12.6811 20.5998 13.6811C20.6998 14.3811 20.4998 15.0811 20.0998 15.6811C19.9998 15.7811 19.8998 15.8811 19.7998 16.0811C18.3998 17.4811 17.0998 18.7811 15.6998 20.1811C15.4998 20.3811 15.2998 20.4811 14.9998 20.5811C13.8998 20.8811 12.8998 21.1811 11.7998 21.4811C11.4998 21.2811 11.3998 21.2811 11.2998 21.2811ZM16.0998 14.6811C16.0998 14.6811 15.9998 14.7811 15.9998 14.8811C15.1998 15.6811 14.3998 16.4811 13.4998 17.3811C13.1998 17.5811 13.0998 17.8811 12.9998 18.2811C12.8998 18.6811 12.7998 18.9811 12.6998 19.3811C13.1998 19.2811 13.6998 19.0811 14.0998 18.9811C14.1998 18.9811 14.2998 18.8811 14.3998 18.7811C15.0998 18.0811 15.7998 17.3811 16.5998 16.6811C16.7998 16.4811 17.0998 16.1811 17.2998 15.9811C16.7998 15.4811 16.4998 15.1811 16.0998 14.6811ZM17.2998 13.5811C17.6998 13.9811 18.0998 14.3811 18.3998 14.6811C18.6998 14.4811 18.7998 14.1811 18.6998 13.7811C18.5998 13.4811 18.3998 13.2811 18.0998 13.1811C17.7998 13.1811 17.4998 13.2811 17.2998 13.5811Z" fill="#9A9A9A"/>
<path d="M10.0999 5.3811C11.4999 5.3811 12.8999 5.3811 14.1999 5.3811C14.7999 5.3811 15.1998 5.98111 14.9998 6.48111C14.8998 6.78111 14.5998 6.98111 14.2998 6.98111C14.1998 6.98111 13.9998 6.98111 13.8998 6.98111C11.2998 6.98111 7.69985 6.98111 4.99985 6.98111C4.49985 6.98111 4.09985 6.58111 4.09985 6.18111C4.09985 5.68111 4.49984 5.3811 4.89984 5.3811C5.99984 5.3811 8.09986 5.3811 9.19986 5.3811C9.49986 5.3811 9.79985 5.3811 10.0999 5.3811Z" fill="#9A9A9A"/>
<path d="M10.1 10.2811C8.69999 10.2811 6.29998 10.2811 4.99998 10.2811C4.49998 10.2811 4.1 9.88115 4.2 9.38115C4.2 8.98115 4.49998 8.78115 4.89998 8.68115H4.99998C7.69998 8.68115 11.5 8.68115 14.2 8.68115C14.7 8.68115 15 8.98116 15.1 9.48116C15.1 9.98116 14.8 10.2811 14.3 10.2811C13.3 10.2811 12.4 10.2811 11.4 10.2811C10.9 10.2811 10.5 10.2811 10.1 10.2811Z" fill="#9A9A9A"/>
<path d="M8.39984 11.8811C9.19984 11.8811 10.0998 11.8811 10.8998 11.8811C11.2998 11.8811 11.5999 12.0811 11.6999 12.4811C11.7999 12.7811 11.6998 13.1811 11.3998 13.3811C11.2998 13.4811 11.0998 13.5811 10.8998 13.5811C9.19984 13.5811 6.59984 13.5811 4.89984 13.5811C4.39984 13.5811 4.09985 13.2811 4.09985 12.7811C4.09985 12.2811 4.49984 11.9811 4.89984 11.9811C5.79984 11.8811 7.59984 11.8811 8.39984 11.8811Z" fill="#9A9A9A"/>
</svg>
