<svg width="18" height="18" viewBox="0 0 18 18" fill="none" xmlns="http://www.w3.org/2000/svg">
<path d="M15.4681 0.575719L15.6389 0.404969C15.7674 0.276525 15.9199 0.174652 16.0878 0.105167C16.2557 0.0356828 16.4356 -5.31473e-05 16.6173 5.93264e-08C16.799 5.3266e-05 16.979 0.0358946 17.1468 0.105478C17.3147 0.175061 17.4672 0.277022 17.5956 0.405542C17.724 0.534061 17.8259 0.686621 17.8954 0.854511C17.9649 1.0224 18.0006 1.20233 18.0006 1.38403C18.0005 1.56573 17.9647 1.74564 17.8951 1.91349C17.8255 2.08134 17.7236 2.23384 17.595 2.36229L17.4243 2.53189C17.7164 2.85948 17.8721 3.28639 17.8595 3.72511C17.847 4.16383 17.667 4.58112 17.3567 4.89145L5.56233 16.6869C5.4886 16.7603 5.3963 16.8122 5.29532 16.837L0.711437 17.983C0.615511 18.0069 0.515036 18.0056 0.419779 17.9791C0.324523 17.9527 0.237725 17.9021 0.167824 17.8322C0.097922 17.7623 0.0472944 17.6755 0.0208621 17.5802C-0.00557019 17.485 -0.00690799 17.3845 0.0169787 17.2886L1.16295 12.7047C1.18802 12.6041 1.23991 12.5122 1.31307 12.4388L12.3625 1.38936C12.252 1.31158 12.1176 1.27536 11.983 1.28711C11.8483 1.29885 11.7222 1.3578 11.6268 1.45353L7.85428 5.22722C7.801 5.28049 7.73776 5.32275 7.66815 5.35158C7.59855 5.38041 7.52394 5.39525 7.4486 5.39525C7.37326 5.39525 7.29866 5.38041 7.22905 5.35158C7.15945 5.32275 7.0962 5.28049 7.04293 5.22722C6.98965 5.17394 6.94739 5.1107 6.91856 5.04109C6.88973 4.97149 6.87489 4.89688 6.87489 4.82154C6.87489 4.7462 6.88973 4.6716 6.91856 4.60199C6.94739 4.53239 6.98965 4.46914 7.04293 4.41587L10.8178 0.643331C11.1283 0.33279 11.5459 0.152879 11.9849 0.140519C12.4239 0.128159 12.8509 0.284288 13.1785 0.576865C13.4933 0.295458 13.9008 0.139805 14.3231 0.139594C14.7454 0.139382 15.153 0.294628 15.4681 0.575719ZM14.7301 1.45353C14.6227 1.34611 14.4769 1.28577 14.325 1.28577C14.1731 1.28577 14.0274 1.34611 13.9199 1.45353L2.23443 13.1367L1.35891 16.6399L4.86214 15.7644L16.5476 4.08124C16.601 4.02802 16.6433 3.96479 16.6722 3.89518C16.7011 3.82557 16.716 3.75094 16.716 3.67557C16.716 3.6002 16.7011 3.52558 16.6722 3.45596C16.6433 3.38635 16.601 3.32312 16.5476 3.2699L14.7301 1.45353Z" fill="#9A9A9A"/>
</svg>
