<svg width="20" height="20" viewBox="0 0 20 20" fill="none" xmlns="http://www.w3.org/2000/svg">
<path d="M10.3984 19.6C5.19844 19.6 0.898438 15.3 0.898438 10.1C0.898438 4.89998 5.19844 0.599976 10.3984 0.599976C15.5984 0.599976 19.8984 4.89998 19.8984 10.1C19.8984 15.3 15.5984 19.6 10.3984 19.6ZM10.3984 1.59998C5.69844 1.59998 1.89844 5.39998 1.89844 10.1C1.89844 14.8 5.69844 18.6 10.3984 18.6C15.0984 18.6 18.8984 14.8 18.8984 10.1C18.8984 5.39998 15.0984 1.59998 10.3984 1.59998Z" fill="#858584"/>
<path d="M10.298 3.99997C10.198 3.99997 10.098 4.09998 9.99799 4.09998C9.79799 4.19998 9.69794 4.39998 9.69794 4.69998C9.69794 5.29998 9.69794 5.89998 9.69794 6.59998C9.69794 8.29998 9.69794 9.99998 9.69794 11.7C9.69794 11.8 9.69796 12 9.59796 12C9.39796 12.1 9.39804 12 9.29804 11.9C8.59804 11.2 7.89794 10.5 7.19794 9.79996C6.89794 9.49996 6.59804 9.49998 6.29804 9.69998C5.99804 9.89998 5.99794 10.3 6.19794 10.5L6.29804 10.6C7.49804 11.8 8.69801 13 9.89801 14.2C9.99801 14.3 10.098 14.4 10.298 14.4C10.398 14.4 10.498 14.4 10.498 14.4C10.598 14.4 10.798 14.3 10.898 14.2C12.098 13 13.298 11.8 14.498 10.6C14.798 10.3 14.798 9.99998 14.598 9.69998C14.398 9.39998 13.9979 9.39998 13.6979 9.59998L13.598 9.69998C12.898 10.4 12.198 11.1 11.498 11.8L11.398 11.9C11.298 12 11.098 11.9 10.998 11.7V11.6C10.998 9.29998 10.998 6.89998 10.998 4.59998C10.998 4.29998 10.898 4.09997 10.598 3.99997C10.498 3.99997 10.498 3.99996 10.398 3.89996C10.398 3.99996 10.398 3.99997 10.298 3.99997Z" fill="#858584"/>
</svg>
