<svg width="20" height="20" viewBox="0 0 20 20" fill="none" xmlns="http://www.w3.org/2000/svg">
<path d="M9.69922 19.3C4.49922 19.3 0.199219 15 0.199219 9.79999C0.199219 4.59999 4.49922 0.299988 9.69922 0.299988C14.8992 0.299988 19.1992 4.59999 19.1992 9.79999C19.1992 15 14.9992 19.3 9.69922 19.3ZM9.69922 1.29999C4.99922 1.29999 1.19922 5.09999 1.19922 9.79999C1.19922 14.5 4.99922 18.3 9.69922 18.3C14.3992 18.3 18.1992 14.5 18.1992 9.79999C18.1992 5.09999 14.3992 1.29999 9.69922 1.29999Z" fill="#858584"/>
<path d="M14.1976 13.4L10.5977 9.79999L14.1976 6.20002C14.3976 6.00002 14.3976 5.6 14.1976 5.4C13.9976 5.2 13.5977 5.2 13.3977 5.4L9.79773 9.00001L6.19763 5.4C5.99763 5.2 5.59773 5.2 5.29773 5.4C5.19773 5.5 5.09766 5.59999 5.09766 5.79999C5.09766 5.99999 5.19773 6.09999 5.29773 6.29999L8.89771 9.9L5.29773 13.5C5.09773 13.7 5.09773 14.1 5.29773 14.3C5.39773 14.4 5.49763 14.5 5.69763 14.5C5.89763 14.5 5.99766 14.4 6.09766 14.3L9.69763 10.7L13.2977 14.3C13.3977 14.4 13.5976 14.5 13.6976 14.5C13.8976 14.5 13.9977 14.4 14.0977 14.3C14.3977 13.9 14.3976 13.6 14.1976 13.4Z" fill="#858584"/>
</svg>
