<svg width="20" height="20" viewBox="0 0 20 20" fill="none" xmlns="http://www.w3.org/2000/svg">
<path d="M9.60156 19.4C4.40156 19.4 0.101562 15.1 0.101562 9.90002C0.101562 4.70002 4.40156 0.400024 9.60156 0.400024C14.8016 0.400024 19.1016 4.70002 19.1016 9.90002C19.1016 15.1 14.9016 19.4 9.60156 19.4ZM9.60156 1.40002C4.90156 1.40002 1.10156 5.20002 1.10156 9.90002C1.10156 14.6 4.90156 18.4 9.60156 18.4C14.3016 18.4 18.1016 14.6 18.1016 9.90002C18.1016 5.20002 14.3016 1.40002 9.60156 1.40002Z" fill="#858584"/>
<path d="M9.50109 14.4C9.40109 14.4 9.30104 14.3 9.20104 14.3C9.00104 14.2 8.90112 14 8.90112 13.7C8.90112 13.1 8.90112 12.5 8.90112 11.8C8.90112 10.1 8.90112 8.40001 8.90112 6.70001C8.90112 6.60001 8.90114 6.39999 8.80114 6.39999C8.60114 6.29999 8.60109 6.4 8.50109 6.5C7.80109 7.2 7.10112 7.90001 6.40112 8.60001C6.10112 8.90001 5.80109 8.90001 5.50109 8.70001C5.20109 8.50001 5.20112 8.09999 5.40112 7.89999L5.50109 7.79999C6.70109 6.59999 7.90107 5.40001 9.10107 4.20001C9.20107 4.10001 9.30109 4 9.50109 4C9.60109 4 9.70104 4 9.70104 4C9.80104 4 10.0011 4.10001 10.1011 4.20001C11.3011 5.40001 12.501 6.59999 13.701 7.79999C14.001 8.09999 14.0011 8.40001 13.8011 8.70001C13.6011 9.00001 13.2011 8.99999 12.9011 8.79999L12.8011 8.70001C12.1011 8.00001 11.401 7.30001 10.701 6.60001L10.6011 6.5C10.5011 6.4 10.301 6.50001 10.201 6.70001V6.79999C10.201 9.09999 10.201 11.5 10.201 13.8C10.201 14.1 10.1011 14.3 9.80114 14.4C9.70114 14.4 9.70107 14.4 9.60107 14.5C9.70107 14.4 9.60109 14.4 9.50109 14.4Z" fill="#858584"/>
</svg>
