<svg width="40" height="40" viewBox="0 0 40 40" fill="none" xmlns="http://www.w3.org/2000/svg">
<path d="M20 40C31.0457 40 40 31.0457 40 20C40 8.9543 31.0457 0 20 0C8.9543 0 0 8.9543 0 20C0 31.0457 8.9543 40 20 40Z" fill="#2F65F6"/>
<path d="M17.0955 31.5556C16.4288 30.889 15.9844 29.9999 15.9844 28.8888C15.9844 27.7777 16.4288 26.8889 17.0955 26.2223C17.7622 25.5556 18.8734 25.1112 19.9845 25.1112C21.0956 25.1112 22.2067 25.5556 22.8733 26.2223C23.54 26.8889 23.9845 27.7777 23.9845 28.8888C23.9845 29.9999 23.54 30.889 22.8733 31.5556C22.2067 32.2223 21.0956 32.6668 19.9845 32.6668C18.8734 32.6668 17.9844 32.4445 17.0955 31.5556ZM15.9844 7.33337H24.2066L22.8733 23.3333H17.54L15.9844 7.33337Z" fill="white"/>
</svg>
