<svg width="21" height="22" viewBox="0 0 21 22" fill="none" xmlns="http://www.w3.org/2000/svg">
<path d="M10.2 0.581116C10.2 0.681116 10.1 0.581116 10 0.581116C10.1 0.581116 10.1 0.581116 10.2 0.581116Z" fill="#2F65F6"/>
<path d="M0.199951 11.2811C0.299951 11.2811 0.199951 11.3811 0.199951 11.4811C0.199951 11.3811 0.199951 11.3811 0.199951 11.2811Z" fill="#2F65F6"/>
<path d="M20.9 10.1812C20.9 8.98115 20.5 7.78115 20 6.68115C19.4 5.28115 18.5 4.08115 17.3 3.08115C15.7 1.78115 14 0.981152 11.9 0.681152C11.7 0.681152 11.5 0.681152 11.3 0.681152H11.2H11.1H11C10.9 0.681152 10.9 0.681152 10.8 0.681152C10.6 0.681152 10.3 0.681152 10.1 0.681152C10.1 0.681152 9.99999 0.681152 9.89999 0.681152H9.8H9.7H9.59999C9.29999 0.681152 9 0.681143 8.7 0.781143C6.2 1.18114 4.2 2.38114 2.5 4.28114C1.2 5.78114 0.399991 7.48115 0.0999908 9.38115C0.0999908 9.68115 0.1 9.98114 0 10.2811C0 10.3811 0 10.3812 0 10.4812V10.5811V10.6812C0 10.7812 0 10.7811 0 10.8811C0 11.0811 0 11.3811 0 11.5811C0 11.5811 0 11.6811 0 11.7811V11.8811V11.9812C0 12.0812 0 12.0812 0 12.1812C0 12.5812 0.0999969 13.0812 0.199997 13.4812C0.699997 15.7812 1.79999 17.6811 3.59999 19.2811C4.59999 20.1811 5.7 20.7812 7 21.1812C7.9 21.4812 8.8 21.6812 9.7 21.6812C10.5 21.6812 11.3 21.6811 12.1 21.5811C14.6 21.1811 16.6 19.9811 18.3 18.0811C19.5 16.6811 20.3 15.0811 20.6 13.2811C20.9 11.9811 20.9 11.0812 20.9 10.1812ZM10.5 19.3811C5.8 19.3811 2 15.5811 2 10.8811C2 6.18115 5.8 2.38115 10.5 2.38115C15.2 2.38115 19 6.18115 19 10.8811C19 15.5811 15.2 19.3811 10.5 19.3811Z" fill="#2F65F6"/>
<path d="M9.6001 13.0811C9.6001 12.1811 9.6001 11.1811 9.6001 10.2811C9.6001 9.78111 9.9001 9.38111 10.4001 9.28111C10.9001 9.18111 11.4001 9.58112 11.4001 10.0811V10.1811C11.4001 12.0811 11.4001 13.9811 11.4001 15.8811C11.4001 16.3811 11.0001 16.7811 10.5001 16.7811C10.0001 16.7811 9.6001 16.3811 9.6001 15.8811C9.6001 14.9811 9.6001 14.0811 9.6001 13.0811Z" fill="#2F65F6"/>
<path d="M9.30005 6.18116C9.30005 5.48116 9.90004 4.88116 10.6 4.98116C11.3 4.98116 11.8 5.58115 11.8 6.28115C11.8 6.98115 11.2 7.48116 10.6 7.48116C9.90004 7.48116 9.30005 6.88116 9.30005 6.18116Z" fill="#2F65F6"/>
</svg>
