<svg width="23" height="22" viewBox="0 0 23 22" fill="none" xmlns="http://www.w3.org/2000/svg">
<path d="M21.2256 15.6811C21.2256 16.0811 21.5257 16.3811 21.9257 16.4811H22.0256C22.3256 16.4811 22.6256 16.2811 22.7256 15.9811V15.8811V15.7811V1.18111C22.6256 0.781107 22.4256 0.581116 22.1256 0.581116C21.9256 0.581116 21.8256 0.581116 21.7256 0.581116C21.2256 0.681116 20.6257 0.781113 19.9257 0.781113C19.5257 0.781113 19.2256 0.781113 18.8256 0.781113H18.7256C18.2256 0.781113 17.6256 0.781107 17.1256 0.681107C16.2256 0.681107 15.2256 0.581116 14.3256 0.581116H14.2256C13.3256 0.581116 12.5256 0.881116 11.8256 1.58112C11.8256 1.58112 11.8256 1.58111 11.8256 1.68111V1.78111C11.7256 1.68111 11.7256 1.68112 11.6256 1.58112C11.5256 1.48112 11.4256 1.38111 11.2256 1.28111C10.6256 0.781113 9.92559 0.581116 9.22559 0.581116H9.12561C8.22561 0.581116 7.32566 0.681107 6.42566 0.681107C5.82566 0.681107 5.32559 0.781113 4.72559 0.781113H4.62561C4.22561 0.781113 3.92563 0.781113 3.52563 0.781113C2.82563 0.781113 2.22559 0.681116 1.72559 0.581116C1.62559 0.581116 1.62563 0.581116 1.52563 0.581116C1.22563 0.581116 0.925562 0.781116 0.825562 1.08112C0.825562 1.18112 0.825586 1.18111 0.725586 1.28111V16.0811C0.725586 16.0811 0.725586 16.0811 0.725586 16.1811C1.02559 17.9811 2.42559 19.0811 4.22559 19.0811C6.32559 19.0811 8.42563 19.0811 10.5256 19.0811H10.8256C10.9256 19.5811 11.2256 19.8811 11.6256 19.8811C11.6256 19.8811 11.6256 19.8811 11.7256 19.8811C12.2256 19.8811 12.5256 19.4811 12.5256 18.9811C12.5256 16.1811 12.5256 13.3811 12.5256 10.5811V6.38112C12.5256 6.18112 12.5256 5.88111 12.5256 5.68111C12.5256 5.08111 12.5256 4.48112 12.5256 3.88112C12.5256 2.88112 13.3256 2.18111 14.2256 2.18111C14.6256 2.18111 15.0257 2.18111 15.4257 2.18111C15.9257 2.18111 16.4257 2.28111 16.9257 2.28111C17.6257 2.28111 18.4256 2.38112 19.1256 2.38112C19.3256 2.38112 19.5256 2.38112 19.8256 2.38112C20.0256 2.38112 20.2256 2.38112 20.3256 2.38112C20.5256 2.38112 20.7257 2.38112 20.9257 2.38112V15.4811C21.2257 15.5811 21.2256 15.5811 21.2256 15.6811ZM11.0256 17.3811H4.42566C3.22566 17.3811 2.52563 16.6811 2.52563 15.4811V15.1811H2.62561C2.72561 15.1811 2.92563 15.2811 3.02563 15.2811C3.32563 15.3811 3.62563 15.4811 4.02563 15.5811C4.12563 15.5811 4.22556 15.5811 4.32556 15.5811H4.52563C5.52563 15.5811 6.52563 15.5811 7.52563 15.5811H10.5256C11.0256 15.5811 11.1256 15.7811 11.1256 16.1811V17.3811H11.0256ZM11.0256 7.28111V13.8811H6.32556H4.42566C3.32566 13.8811 2.52563 13.1811 2.52563 11.9811V2.28111H2.62561C3.02561 2.28111 3.32556 2.28111 3.82556 2.28111C4.62556 2.28111 5.52556 2.18111 6.32556 2.18111C6.92556 2.18111 7.62556 2.08112 8.32556 2.08112C8.62556 2.08112 8.92556 2.08112 9.32556 2.08112H9.42566C10.4257 2.08112 11.2256 2.88112 11.2256 3.88112C11.0256 5.08112 11.0256 6.18111 11.0256 7.28111Z" fill="#9A9A9A"/>
<path d="M19.5255 12.0811C19.5255 11.8811 19.5255 11.6811 19.4255 11.5811C19.0255 10.8811 18.7254 10.1811 18.3254 9.48111C18.1254 9.18111 18.0254 8.88112 17.8254 8.58112C17.6254 8.28112 17.4255 8.08112 17.1255 8.08112C16.8255 8.08112 16.5255 8.28112 16.4255 8.58112C16.2255 8.88112 16.1255 9.18111 15.9255 9.48111C15.5255 10.1811 15.1255 10.9811 14.7255 11.6811C14.6255 11.7811 14.6255 11.9811 14.6255 12.1811C14.6255 14.6811 14.6255 16.8811 14.6255 18.7811C14.6255 19.0811 14.6255 19.2811 14.7255 19.5811C15.0255 20.5811 16.0255 21.2811 17.1255 21.2811C17.2255 21.2811 17.4255 21.2811 17.5255 21.2811C18.7255 21.0811 19.6255 19.9811 19.6255 18.7811C19.6255 18.0811 19.6255 17.2811 19.6255 16.5811V15.5811V14.7811C19.5255 13.6811 19.5255 12.8811 19.5255 12.0811ZM17.4255 19.3811C17.2255 19.4811 17.1255 19.5811 16.9255 19.5811C16.7255 19.5811 16.6255 19.5811 16.4255 19.4811C16.1255 19.2811 15.9255 18.9811 16.0255 18.4811H17.8254C17.9254 18.8811 17.8255 19.1811 17.4255 19.3811ZM17.9255 13.1811C17.9255 13.2811 17.9255 13.4811 17.9255 13.5811C17.9255 14.1811 17.9255 14.8811 17.9255 15.4811V16.6811H16.1255V15.4811C16.1255 14.4811 16.1255 13.3811 16.1255 12.3811C16.1255 12.2811 16.1255 12.0811 16.2255 11.9811C16.4255 11.6811 16.6254 11.3811 16.8254 10.9811C16.9254 10.8811 17.0255 10.6811 17.0255 10.5811V10.4811L17.1255 10.5811C17.1255 10.6811 17.2255 10.6811 17.2255 10.7811C17.3255 10.8811 17.3255 11.0811 17.4255 11.1811C17.6255 11.4811 17.8254 11.7811 17.8254 12.0811C17.9254 12.4811 17.9255 12.7811 17.9255 13.1811Z" fill="#9A9A9A"/>
</svg>
