<svg width="25" height="22" viewBox="0 0 25 22" fill="none" xmlns="http://www.w3.org/2000/svg">
<path d="M0.725586 19.7326C1.22559 19.7326 1.82556 19.7326 2.32556 19.7326C2.32556 19.6326 2.32556 19.5326 2.32556 19.4326C2.32556 14.3326 2.32556 9.2326 2.32556 4.1326C2.32556 3.5326 2.42555 3.3326 3.12555 3.1326C6.22555 2.3326 9.32556 1.5326 12.3256 0.6326C13.0256 0.4326 13.5256 0.832594 13.5256 1.53259C13.5256 2.33259 13.5256 3.23259 13.5256 4.03259C13.0256 4.03259 12.5256 4.03259 12.0256 4.03259C12.0256 3.43259 12.0256 2.9326 12.0256 2.3326C11.7256 2.4326 11.3256 2.5326 11.0256 2.6326C8.72557 3.2326 6.42555 3.83259 4.12555 4.53259C3.92555 4.53259 3.92554 4.6326 3.92554 4.8326C3.92554 9.7326 3.92554 14.7326 3.92554 19.6326C3.92554 19.7326 3.92554 19.7326 3.92554 19.8326C6.62554 19.8326 9.32557 19.8326 12.0256 19.8326C12.0256 19.7326 12.0256 19.6326 12.0256 19.5326C12.0256 15.2326 12.0256 10.9326 12.0256 6.6326C12.0256 5.9326 12.3255 5.73259 12.9255 5.73259C16.0255 5.73259 19.1256 5.73259 22.2256 5.73259C22.7256 5.73259 23.0256 6.03259 23.0256 6.53259C23.0256 9.53259 23.0256 12.5326 23.0256 15.5326C23.0256 15.6326 23.0256 15.6326 23.0256 15.7326C22.5256 15.7326 22.0256 15.7326 21.5256 15.7326C21.5256 12.9326 21.5256 10.1326 21.5256 7.23259C18.8256 7.23259 16.2256 7.23259 13.5256 7.23259C13.5256 11.4326 13.5256 15.6326 13.5256 19.8326H13.6255C17.3256 19.8326 21.0256 19.8326 24.7256 19.8326C24.7256 20.3326 24.7256 20.8326 24.7256 21.3326C16.7256 21.3326 8.72559 21.3326 0.725586 21.3326C0.725586 20.7326 0.725586 20.2326 0.725586 19.7326Z" fill="#9A9A9A"/>
<path d="M6.12549 10.6326C6.12549 10.1326 6.12549 9.63257 6.12549 9.13257C7.32549 9.13257 8.52552 9.13257 9.72552 9.13257C9.72552 9.63257 9.72552 10.1326 9.72552 10.6326C8.52552 10.6326 7.32549 10.6326 6.12549 10.6326Z" fill="#9A9A9A"/>
<path d="M15.6255 10.6326C15.6255 10.1326 15.6255 9.63257 15.6255 9.13257C16.8255 9.13257 18.0255 9.13257 19.2255 9.13257C19.2255 9.63257 19.2255 10.1326 19.2255 10.6326C18.1255 10.6326 16.9255 10.6326 15.6255 10.6326Z" fill="#9A9A9A"/>
<path d="M9.72552 14.1326C8.52552 14.1326 7.32549 14.1326 6.12549 14.1326C6.12549 13.6326 6.12549 13.1326 6.12549 12.6326C7.32549 12.6326 8.52552 12.6326 9.72552 12.6326C9.72552 13.1326 9.72552 13.6326 9.72552 14.1326Z" fill="#9A9A9A"/>
<path d="M15.6255 14.1326C15.6255 13.6326 15.6255 13.1326 15.6255 12.6326C16.8255 12.6326 18.0255 12.6326 19.2255 12.6326C19.2255 13.1326 19.2255 13.6326 19.2255 14.1326C18.1255 14.1326 16.9255 14.1326 15.6255 14.1326Z" fill="#9A9A9A"/>
<path d="M6.12549 7.13257C6.12549 6.63257 6.12549 6.13257 6.12549 5.63257C7.32549 5.63257 8.52552 5.63257 9.72552 5.63257C9.72552 6.13257 9.72552 6.63257 9.72552 7.13257C8.52552 7.13257 7.32549 7.13257 6.12549 7.13257Z" fill="#9A9A9A"/>
<path d="M6.12549 17.6326C6.12549 17.1326 6.12549 16.6326 6.12549 16.1326C7.32549 16.1326 8.52552 16.1326 9.72552 16.1326C9.72552 16.6326 9.72552 17.1326 9.72552 17.6326C8.52552 17.6326 7.32549 17.6326 6.12549 17.6326Z" fill="#9A9A9A"/>
<path d="M15.6255 16.1326C16.8255 16.1326 18.0255 16.1326 19.2255 16.1326C19.2255 16.6326 19.2255 17.1326 19.2255 17.6326C18.0255 17.6326 16.8255 17.6326 15.6255 17.6326C15.6255 17.1326 15.6255 16.6326 15.6255 16.1326Z" fill="#9A9A9A"/>
<path d="M21.5254 17.0326C22.0254 17.0326 22.5254 17.0326 23.0254 17.0326C23.0254 17.5326 23.0254 17.9326 23.0254 18.4326C22.5254 18.4326 22.0254 18.4326 21.5254 18.4326C21.5254 17.9326 21.5254 17.4326 21.5254 17.0326Z" fill="#9A9A9A"/>
</svg>
