<svg width="15" height="20" viewBox="0 0 15 20" fill="none" xmlns="http://www.w3.org/2000/svg">
<path d="M15 17.5V5.625L9.375 0H2.5C1.83696 0 1.20107 0.263392 0.732233 0.732233C0.263392 1.20107 0 1.83696 0 2.5V17.5C0 18.163 0.263392 18.7989 0.732233 19.2678C1.20107 19.7366 1.83696 20 2.5 20H12.5C13.163 20 13.7989 19.7366 14.2678 19.2678C14.7366 18.7989 15 18.163 15 17.5ZM9.375 3.75C9.375 4.24728 9.57254 4.72419 9.92417 5.07583C10.2758 5.42746 10.7527 5.625 11.25 5.625H13.75V17.5C13.75 17.8315 13.6183 18.1495 13.3839 18.3839C13.1495 18.6183 12.8315 18.75 12.5 18.75H2.5C2.16848 18.75 1.85054 18.6183 1.61612 18.3839C1.3817 18.1495 1.25 17.8315 1.25 17.5V2.5C1.25 2.16848 1.3817 1.85054 1.61612 1.61612C1.85054 1.3817 2.16848 1.25 2.5 1.25H9.375V3.75Z" fill="#2F65F6"/>
<path d="M3.25388 17.6088C3.01024 17.5114 2.81395 17.3232 2.70637 17.0838C2.46262 16.5988 2.54387 16.1138 2.80637 15.7063C3.05387 15.3226 3.46388 14.9963 3.92763 14.7226C4.51505 14.3894 5.13599 14.1192 5.78013 13.9163C6.28036 13.0171 6.72373 12.0873 7.10763 11.1326C6.8781 10.611 6.69814 10.0691 6.57013 9.51382C6.46263 9.01382 6.42138 8.51882 6.51263 8.09382C6.60638 7.65132 6.85513 7.25382 7.32513 7.06507C7.56512 6.96882 7.82512 6.91507 8.07762 6.96882C8.20464 6.99586 8.32404 7.05083 8.42717 7.12974C8.5303 7.20866 8.61457 7.30954 8.67388 7.42507C8.78387 7.63007 8.82388 7.87007 8.83263 8.09757C8.84138 8.33257 8.81763 8.59257 8.77388 8.86507C8.66888 9.50257 8.43637 10.2826 8.12387 11.1076C8.46874 11.8451 8.8787 12.5504 9.34888 13.2151C9.90525 13.1711 10.4649 13.1921 11.0164 13.2776C11.4714 13.3601 11.9339 13.5213 12.2164 13.8588C12.3664 14.0388 12.4576 14.2588 12.4664 14.5063C12.4751 14.7463 12.4076 14.9838 12.2939 15.2101C12.1953 15.4197 12.0426 15.5993 11.8514 15.7301C11.6624 15.8533 11.4392 15.9137 11.2139 15.9026C10.8001 15.8851 10.3964 15.6576 10.0476 15.3813C9.62355 15.0307 9.24143 14.6322 8.90887 14.1938C8.06357 14.2898 7.22829 14.4596 6.41263 14.7013C6.0391 15.3638 5.61271 15.995 5.13763 16.5888C4.77263 17.0263 4.37638 17.4088 3.97888 17.5726C3.75049 17.6759 3.49143 17.6888 3.25388 17.6088ZM4.97762 15.2326C4.77012 15.3276 4.57762 15.4276 4.40387 15.5301C3.99387 15.7726 3.72762 16.0088 3.59512 16.2138C3.47762 16.3951 3.47512 16.5263 3.54512 16.6651C3.55762 16.6926 3.57012 16.7101 3.57763 16.7201C3.59254 16.7161 3.60716 16.7111 3.62137 16.7051C3.79262 16.6351 4.06513 16.4113 4.41513 15.9901C4.61418 15.7464 4.80188 15.4936 4.97762 15.2326ZM7.02763 13.5701C7.44503 13.4727 7.86621 13.3922 8.29012 13.3288C8.06252 12.9805 7.84983 12.6227 7.65263 12.2563C7.45656 12.6996 7.24815 13.1372 7.02763 13.5688V13.5701ZM10.0851 14.1326C10.2726 14.3363 10.4551 14.5076 10.6289 14.6451C10.9289 14.8826 11.1376 14.9613 11.2514 14.9651C11.2818 14.969 11.3127 14.9624 11.3389 14.9463C11.3909 14.9053 11.4314 14.8514 11.4564 14.7901C11.5008 14.7139 11.5261 14.6281 11.5301 14.5401C11.5294 14.5107 11.5178 14.4826 11.4976 14.4613C11.4326 14.3838 11.2476 14.2713 10.8501 14.2001C10.5973 14.1578 10.3415 14.1356 10.0851 14.1338V14.1326ZM7.59763 9.75007C7.70283 9.41072 7.78633 9.06502 7.84763 8.71507C7.88637 8.48007 7.90138 8.28632 7.89513 8.13382C7.89547 8.04968 7.88196 7.96606 7.85513 7.88632C7.79259 7.89406 7.73153 7.9109 7.67388 7.93632C7.56512 7.98007 7.47638 8.06882 7.42887 8.29007C7.37888 8.53007 7.39137 8.87632 7.48637 9.31757C7.51637 9.45632 7.55388 9.60132 7.59888 9.75007H7.59763Z" fill="#2F65F6"/>
</svg>
