<svg width="16" height="16" viewBox="0 0 16 16" fill="none" xmlns="http://www.w3.org/2000/svg">
<path d="M13.4835 0C13.8045 0.0802565 14.0453 0.321026 14.2861 0.561796C14.6873 0.963078 15.0084 1.2841 15.4096 1.68539C15.8912 2.16693 15.8912 2.80898 15.4096 3.29052C14.9281 3.77206 14.4466 4.25359 13.965 4.73513C14.1255 4.89565 14.2861 5.13642 14.5268 5.29693C14.7676 5.5377 14.9281 5.77847 15.0084 6.09949C15.1689 6.66129 15.0084 7.22309 14.6071 7.70462L14.5268 7.78488C13.002 9.30975 11.4771 10.7544 10.0325 12.2792C9.71144 12.52 9.47067 12.6003 9.14964 12.4398C8.74836 12.199 8.6681 11.7174 8.90887 11.3964C8.98913 11.3162 8.98913 11.3162 9.06938 11.2359C10.514 9.79129 12.0389 8.26642 13.4835 6.8218C13.7243 6.58103 13.7243 6.42052 13.4835 6.09949C13.323 5.93898 13.1625 5.77847 13.0822 5.69821C12.6809 6.09949 12.3599 6.42052 11.9586 6.8218C10.9955 5.85872 10.0325 4.89565 8.98913 3.85231C8.98913 3.85231 9.06938 3.85231 9.14964 3.77206C10.193 2.72872 11.2363 1.68539 12.3599 0.561796C12.6007 0.321026 12.8414 0.0802565 13.1625 0C13.2427 0 13.4032 0 13.4835 0Z" fill="#0CB477"/>
<path d="M8.26642 4.57465C9.2295 5.53772 10.1926 6.5008 11.1557 7.46388L11.0754 7.54414C8.74796 9.95183 6.34026 12.2793 4.01283 14.687C3.85231 14.8475 3.6918 14.9277 3.45103 15.008C2.48795 15.329 1.52487 15.65 0.561795 15.9711C0.240769 16.0513 0 15.9711 0 15.65C0 15.5698 0 15.4895 0 15.4093C0.24077 14.3659 0.481539 13.3226 0.802565 12.2793C0.882822 12.0385 0.963078 11.878 1.12359 11.7175C3.53129 9.30978 5.85872 6.98234 8.26642 4.57465C8.26642 4.6549 8.26642 4.6549 8.26642 4.57465Z" fill="#0CB477"/>
</svg>
