<svg width="31" height="31" viewBox="0 0 31 31" fill="none" xmlns="http://www.w3.org/2000/svg">
<path d="M15.6001 0.600006C7.3001 0.600006 0.600098 7.3 0.600098 15.6C0.600098 23.9 7.3001 30.6 15.6001 30.6C23.9001 30.6 30.6001 23.9 30.6001 15.6C30.6001 7.3 23.8001 0.600006 15.6001 0.600006ZM15.6001 5.1C18.3001 5.1 20.6001 7.3 20.6001 10.1C20.6001 12.8 18.4001 15.1 15.6001 15.1C12.9001 15.1 10.6001 12.9 10.6001 10.1C10.6001 7.3 12.8001 5.1 15.6001 5.1ZM15.6001 26.7C12.9001 26.7 10.4001 25.7 8.40015 24.1C7.90015 23.7 7.70007 23.1 7.70007 22.5C7.70007 19.7 9.90007 17.5 12.7001 17.5H18.5001C21.3001 17.5 23.5001 19.7 23.5001 22.5C23.5001 23.1 23.2002 23.7 22.8002 24.1C20.8002 25.7 18.3001 26.7 15.6001 26.7Z" fill="white"/>
</svg>
