<svg width="7" height="10" viewBox="0 0 7 10" fill="none" xmlns="http://www.w3.org/2000/svg">
<path d="M3.06578 6.348C3.06578 6.036 3.11778 5.764 3.22178 5.532C3.32578 5.3 3.45378 5.092 3.60578 4.908C3.76578 4.724 3.93778 4.556 4.12178 4.404C4.30578 4.244 4.47778 4.088 4.63778 3.936C4.79778 3.776 4.92578 3.608 5.02178 3.432C5.12578 3.256 5.17778 3.052 5.17778 2.82C5.17778 2.436 5.02578 2.124 4.72178 1.884C4.41778 1.644 3.99778 1.524 3.46178 1.524C2.98178 1.524 2.56578 1.604 2.21378 1.764C1.86178 1.924 1.56178 2.16 1.31378 2.472L0.437778 1.848C0.773778 1.424 1.20178 1.096 1.72178 0.864C2.24178 0.624 2.84978 0.504 3.54578 0.504C4.12178 0.504 4.62178 0.592 5.04578 0.767999C5.46978 0.936 5.79778 1.18 6.02978 1.5C6.26978 1.812 6.38978 2.192 6.38978 2.64C6.38978 2.976 6.33778 3.264 6.23378 3.504C6.12978 3.744 5.99778 3.956 5.83778 4.14C5.67778 4.324 5.50578 4.496 5.32178 4.656C5.14578 4.816 4.97778 4.976 4.81778 5.136C4.65778 5.296 4.52578 5.472 4.42178 5.664C4.31778 5.856 4.26578 6.084 4.26578 6.348H3.06578ZM3.67778 9.072C3.45378 9.072 3.26578 8.996 3.11378 8.844C2.96978 8.692 2.89778 8.512 2.89778 8.304C2.89778 8.08 2.96978 7.896 3.11378 7.752C3.26578 7.608 3.45378 7.536 3.67778 7.536C3.90178 7.536 4.08578 7.608 4.22978 7.752C4.37378 7.896 4.44578 8.08 4.44578 8.304C4.44578 8.512 4.37378 8.692 4.22978 8.844C4.08578 8.996 3.90178 9.072 3.67778 9.072Z" fill="#2F65F6"/>
</svg>
