<svg width="22" height="22" viewBox="0 0 22 22" fill="none" xmlns="http://www.w3.org/2000/svg">
<path d="M10.5292 8.55451C9.52921 8.55451 8.52921 8.55451 7.62921 8.55451C7.42921 8.55451 7.4292 8.55451 7.4292 8.35451C7.4292 8.05451 7.4292 7.65451 7.4292 7.35451C7.4292 7.25451 7.42921 7.15451 7.62921 7.15451C9.62921 7.15451 11.6292 7.15451 13.6292 7.15451C13.8292 7.15451 13.8292 7.25451 13.8292 7.35451C13.8292 7.65451 13.8292 8.05451 13.8292 8.35451C13.8292 8.55451 13.8292 8.55451 13.6292 8.55451C12.5292 8.55451 11.5292 8.55451 10.5292 8.55451Z" fill="white"/>
<path d="M10.6293 12.0545C9.6293 12.0545 8.62928 12.0545 7.72928 12.0545C7.52928 12.0545 7.5293 11.9545 7.5293 11.8545C7.5293 11.5545 7.5293 11.1545 7.5293 10.8545C7.5293 10.7545 7.52928 10.6545 7.72928 10.6545C9.72928 10.6545 11.7293 10.6545 13.7293 10.6545C13.8293 10.6545 13.9293 10.6545 13.9293 10.8545C13.9293 11.1545 13.9293 11.5545 13.9293 11.8545C13.9293 12.0545 13.9293 12.0545 13.7293 12.0545C12.5293 12.0545 11.5293 12.0545 10.6293 12.0545Z" fill="white"/>
<path d="M9.22919 14.1545C9.72919 14.1545 10.2292 14.1545 10.8292 14.1545C10.9292 14.1545 11.0292 14.1545 11.0292 14.3545C11.0292 14.7545 11.0292 15.0545 11.0292 15.4545C11.0292 15.5545 11.0292 15.5545 10.8292 15.5545C9.72919 15.5545 8.72921 15.5545 7.62921 15.5545C7.52921 15.5545 7.4292 15.5545 7.4292 15.3545C7.4292 14.9545 7.4292 14.6545 7.4292 14.2545C7.4292 14.0545 7.52921 14.0545 7.62921 14.0545C8.12921 14.1545 8.62919 14.1545 9.22919 14.1545Z" fill="white"/>
<path d="M5.32926 12.0545C5.12927 12.0545 4.82926 12.1545 4.72926 12.0545C4.62926 11.9545 4.72926 11.6545 4.72926 11.4545C4.72926 11.2545 4.72926 11.0545 4.72926 10.9545C4.72926 10.8545 4.72927 10.7545 4.92927 10.7545C5.32927 10.7545 5.62928 10.7545 6.02928 10.7545C6.12928 10.7545 6.12928 10.7545 6.12928 10.8545C6.12928 11.2545 6.12928 11.5545 6.12928 11.9545C6.12928 12.0545 6.12927 12.1545 5.92927 12.1545C5.72927 12.0545 5.52926 12.0545 5.32926 12.0545Z" fill="white"/>
<path d="M4.62941 14.8545C4.62941 14.6545 4.52941 14.3545 4.62941 14.2545C4.72941 14.1545 5.02938 14.2545 5.22938 14.2545C5.42938 14.2545 5.62939 14.2545 5.82939 14.2545C5.92939 14.2545 6.0294 14.2545 6.0294 14.3545C6.0294 14.7545 6.0294 15.0545 6.0294 15.4545C6.0294 15.5545 6.02939 15.5545 5.92939 15.5545C5.52939 15.5545 5.12939 15.5545 4.82939 15.5545C4.72939 15.5545 4.72938 15.5545 4.72938 15.4545C4.62938 15.2545 4.62941 15.0545 4.62941 14.8545Z" fill="white"/>
<path d="M5.32938 8.55451C5.12938 8.55451 4.92937 8.55451 4.72937 8.55451C4.62937 8.55451 4.62939 8.55451 4.62939 8.45451C4.62939 8.05451 4.62939 7.75451 4.62939 7.35451C4.62939 7.25451 4.62938 7.15451 4.82938 7.15451C5.22938 7.15451 5.52938 7.15451 5.92938 7.15451C6.02938 7.15451 6.02939 7.15451 6.02939 7.25451C6.02939 7.65451 6.02939 7.95451 6.02939 8.35451C6.02939 8.45451 6.02938 8.55451 5.82938 8.55451C5.72938 8.55451 5.52938 8.55451 5.32938 8.55451Z" fill="white"/>
<path d="M17.8293 2.35451C17.8293 1.05451 16.8293 0.15451 15.4293 0.15451C11.2293 0.15451 7.12929 0.15451 2.92929 0.15451C2.72929 0.15451 2.52928 0.154509 2.32928 0.254509C1.22928 0.454509 0.529297 1.25451 0.529297 2.35451C0.529297 5.15451 0.529297 7.85451 0.529297 10.6545C0.529297 11.6545 0.529297 12.6545 0.529297 13.6545C0.529297 15.4545 0.529297 17.2545 0.529297 19.0545C0.529297 20.2545 1.4293 21.0545 2.6293 21.1545C3.1293 21.1545 3.6293 21.1545 4.1293 21.1545C6.3293 21.1545 8.62928 21.1545 10.8293 21.1545C11.0293 21.1545 11.1293 21.1545 11.0293 20.9545C11.0293 20.6545 11.0293 20.3545 11.0293 20.0545C11.0293 19.8545 11.0293 19.8545 10.7293 19.8545C8.12928 19.8545 5.42928 19.8545 2.82928 19.8545C2.22928 19.8545 1.92929 19.5545 1.92929 19.0545C1.92929 14.4545 1.92929 9.95451 1.92929 5.35451C1.92929 5.15451 1.9293 5.15451 2.1293 5.15451C6.7293 5.15451 11.3293 5.15451 15.9293 5.15451C16.1293 5.15451 16.1293 5.25451 16.1293 5.35451C16.1293 6.65451 16.1293 7.95451 16.1293 9.25451C16.1293 10.1545 16.1293 10.9545 16.1293 11.8545C16.1293 12.0545 16.2293 12.0545 16.3293 12.0545C16.7293 12.0545 17.0293 12.0545 17.4293 12.0545C17.6293 12.0545 17.6293 11.9545 17.6293 11.8545C17.8293 8.65451 17.8293 5.55451 17.8293 2.35451ZM16.0293 3.65451C13.7293 3.65451 11.4293 3.65451 9.1293 3.65451C6.8293 3.65451 4.52928 3.65451 2.32928 3.65451C2.12928 3.65451 2.0293 3.55451 2.0293 3.35451C2.0293 2.95451 2.0293 2.65451 2.0293 2.25451C2.0293 1.85451 2.32928 1.55451 2.82928 1.55451C7.02928 1.55451 11.3293 1.55451 15.5293 1.55451C16.0293 1.55451 16.3293 1.85451 16.3293 2.25451C16.3293 2.65451 16.3293 3.05451 16.3293 3.45451C16.3293 3.65451 16.2293 3.65451 16.0293 3.65451Z" fill="white"/>
<path d="M21.5294 15.6545C21.5294 15.5545 21.5294 15.3545 21.5294 15.2545C21.3294 14.5545 20.7294 14.1545 19.9294 14.1545C19.7294 14.1545 19.5294 14.2545 19.3294 14.1545C19.2294 14.0545 19.3294 13.8545 19.3294 13.6545C19.3294 13.5545 19.3294 13.5545 19.2294 13.5545C19.0294 13.5545 18.7294 13.5545 18.5294 13.5545C18.3294 13.5545 18.1294 13.4545 17.9294 13.5545C17.8294 13.6545 17.9294 13.8545 17.9294 14.0545C17.9294 14.1545 17.8294 14.2545 17.7294 14.2545C17.5294 14.2545 17.2294 14.2545 17.0294 14.2545C16.8294 14.2545 16.6294 14.3545 16.5294 14.2545C16.4294 14.1545 16.5294 13.9545 16.5294 13.7545C16.5294 13.6545 16.5294 13.5545 16.3294 13.5545C15.9294 13.5545 15.5294 13.5545 15.1294 13.5545C15.0294 13.5545 14.9294 13.5545 14.9294 13.7545C14.9294 13.9545 15.0294 14.1545 14.9294 14.2545C14.8294 14.3545 14.5294 14.2545 14.3294 14.2545C13.3294 14.2545 12.7294 14.8545 12.6294 15.7545C12.6294 17.0545 12.6294 18.3545 12.6294 19.6545C12.6294 20.5545 13.2294 21.1545 14.2294 21.1545C15.1294 21.1545 16.1294 21.1545 17.0294 21.1545C18.0294 21.1545 18.9294 21.1545 19.9294 21.1545C20.9294 21.1545 21.5294 20.5545 21.5294 19.6545C21.5294 18.3545 21.5294 16.9545 21.5294 15.6545ZM19.8294 19.7545C18.9294 19.7545 17.9294 19.7545 17.0294 19.7545C16.1294 19.7545 15.2294 19.7545 14.2294 19.7545C14.0294 19.7545 14.0294 19.7545 14.0294 19.5545C14.0294 18.2545 14.0294 16.9545 14.0294 15.7545C14.0294 15.5545 14.0294 15.5545 14.2294 15.5545C14.7294 15.5545 14.8294 15.5545 14.7294 16.0545C14.7294 16.2545 14.7294 16.2545 14.9294 16.2545C15.3294 16.2545 15.6294 16.2545 16.0294 16.2545C16.1294 16.2545 16.2294 16.2545 16.2294 16.0545C16.2294 15.5545 16.2294 15.5545 16.8294 15.5545C17.1294 15.5545 17.3294 15.5545 17.6294 15.5545C17.7294 15.5545 17.8294 15.5545 17.8294 15.6545C17.8294 15.6545 17.8294 15.6545 17.8294 15.7545C17.8294 16.2545 17.8294 16.2545 18.3294 16.2545C18.6294 16.2545 18.8294 16.2545 19.1294 16.2545C19.2294 16.2545 19.3294 16.2545 19.3294 16.0545C19.3294 15.5545 19.3294 15.5545 19.9294 15.5545C20.1294 15.5545 20.1294 15.6545 20.1294 15.7545C20.1294 16.7545 20.1294 17.6545 20.1294 18.6545C20.1294 18.9545 20.1294 19.2545 20.1294 19.6545C20.0294 19.7545 20.0294 19.7545 19.8294 19.7545Z" fill="white"/>
</svg>
