<svg width="21" height="21" viewBox="0 0 21 21" fill="none" xmlns="http://www.w3.org/2000/svg">
<path d="M19.9 17.1L16 13.9C15.9 13.8 15.8 13.8 15.7 13.8C15.5 13.8 15.4 13.9 15.3 14C14.9 14.6 14.3 15.1 13.7 15.6C13.6 15.7 13.5 15.8 13.5 15.9C13.5 16 13.5 16.2 13.6 16.3L16.8 20.2C17 20.5 17.3 20.6 17.7 20.6C18 20.6 18.3 20.5 18.5 20.3L19.8 19C20 18.8 20.1 18.5 20.1 18.2C20.3 17.6 20.2 17.3 19.9 17.1Z" fill="#9A9A9A"/>
<path d="M8.89981 17.5C11.1998 17.5 13.3998 16.6 14.9998 15C16.5998 13.4 17.4998 11.3 17.4998 8.89998C17.4998 4.09998 13.5998 0.299988 8.89981 0.299988C4.09981 0.399988 0.299805 4.29998 0.299805 8.99998C0.299805 13.7 4.09981 17.5 8.89981 17.5ZM2.99982 8.99998C2.99982 5.79998 5.5998 3.19998 8.7998 3.19998C11.9998 3.19998 14.5998 5.79998 14.5998 8.99998C14.5998 10.5 13.9998 12 12.8998 13.1C11.7998 14.2 10.3998 14.8 8.7998 14.8C5.5998 14.8 2.99982 12.2 2.99982 8.99998Z" fill="#9A9A9A"/>
</svg>
