<svg width="19" height="18" viewBox="0 0 19 18" fill="none" xmlns="http://www.w3.org/2000/svg">
<path d="M17.8347 0.166404C17.9141 0.245875 17.9683 0.346908 17.9907 0.456951C18.0131 0.566994 18.0027 0.681198 17.9608 0.785376L11.2908 17.4598C11.232 17.6066 11.1339 17.7344 11.0071 17.8291C10.8804 17.9237 10.73 17.9816 10.5725 17.9963C10.4151 18.011 10.2566 17.9819 10.1145 17.9124C9.97247 17.8428 9.85237 17.7354 9.76744 17.6019L6.12467 11.8764L0.399184 8.23367C0.265438 8.14883 0.15773 8.02869 0.0879442 7.88651C0.0181589 7.74432 -0.0109905 7.58562 0.00371257 7.42792C0.0184156 7.27022 0.0763995 7.11964 0.171266 6.99281C0.266132 6.86598 0.394194 6.76782 0.541318 6.70917L17.2157 0.0414633C17.3199 -0.000475159 17.4341 -0.0108827 17.5442 0.0115334C17.6542 0.0339496 17.7552 0.0882016 17.8347 0.16755V0.166404ZM7.26863 11.5417L10.4334 16.5141L15.8586 2.95178L7.26863 11.5417ZM15.0482 2.14138L1.48582 7.56656L6.45938 10.7302L15.0482 2.14138Z" fill="#9A9A9A"/>
</svg>
