<svg width="25" height="22" viewBox="0 0 25 22" fill="none" xmlns="http://www.w3.org/2000/svg">
<path d="M24.4255 5.98111C24.3255 5.58111 24.2255 5.1811 23.8255 4.8811C23.3255 4.3811 22.7255 4.3811 22.3255 4.3811H13.6255H2.72546C2.32546 4.3811 1.72546 4.4811 1.22546 4.8811C0.825464 5.1811 0.725488 5.58111 0.625488 5.98111V9.8811L0.725464 10.0811C0.925464 10.7811 1.42546 11.2811 2.22546 11.4811C2.62546 11.5811 3.02548 11.6811 3.42548 11.7811L4.72546 12.0811C6.52546 12.4811 8.32549 12.8811 10.1255 13.2811C10.1255 13.6811 10.1255 14.1811 10.1255 14.5811C10.1255 15.2811 10.4255 15.5811 11.1255 15.5811H12.6255H14.1255C14.8255 15.5811 15.1255 15.2811 15.1255 14.5811V14.4811C15.1255 14.0811 15.1255 13.6811 15.1255 13.2811C17.2255 12.7811 19.3255 12.3811 21.4255 11.8811L23.1255 11.4811C23.7255 11.3811 24.1255 11.0811 24.4255 10.5811C24.5255 10.4811 24.5255 10.2811 24.6255 10.1811L24.7255 9.98111L24.4255 5.98111ZM11.8255 13.7811V12.3811H13.2255V13.7811H11.8255ZM22.7255 6.3811C22.7255 7.3811 22.7255 8.48111 22.7255 9.48111C22.7255 9.78111 22.7255 9.78111 22.4255 9.78111L14.9255 11.4811C14.9255 10.9811 14.5255 10.5811 14.0255 10.5811H13.5255H12.7255H12.2255H11.1255C10.5255 10.5811 10.1255 10.8811 10.1255 11.4811L2.72546 9.78111C2.42546 9.68111 2.42548 9.6811 2.42548 9.3811C2.42548 8.3811 2.42548 7.28111 2.42548 6.28111C2.42548 5.98111 2.42546 5.98111 2.72546 5.98111H22.5255C22.7255 6.08111 22.7255 6.0811 22.7255 6.3811Z" fill="#9A9A9A"/>
<path d="M23.9255 13.4811C23.8255 12.9811 23.4255 12.6811 22.9255 12.6811C22.4255 12.7811 22.2255 13.0811 22.2255 13.6811V16.9811V19.1811C22.2255 19.5811 22.2255 19.5812 21.8255 19.5812H3.22546C2.82546 19.5812 2.8255 19.5811 2.8255 19.1811V13.6811C2.8255 13.4811 2.8255 13.3811 2.8255 13.2811C2.7255 12.9811 2.52546 12.7811 2.22546 12.6811C1.62546 12.4811 1.12549 12.9812 1.12549 13.5812C1.12549 15.7812 1.12549 17.0811 1.12549 19.2811C1.12549 19.5811 1.2255 19.8811 1.3255 20.1811C1.5255 20.6811 2.02549 21.2811 3.12549 21.2811H16.4255C18.2255 21.2811 20.0255 21.2811 21.8255 21.2811C22.1255 21.2811 22.4255 21.2812 22.8255 21.0812C23.3255 20.8812 23.9255 20.3811 23.9255 19.2811V13.6811C23.9255 13.6811 23.9255 13.5811 23.9255 13.4811Z" fill="#9A9A9A"/>
<path d="M8.82561 3.98111C9.32561 3.98111 9.62557 3.68111 9.72557 3.28111C9.72557 3.18111 9.72557 2.9811 9.72557 2.8811V2.68111C9.72557 2.48111 9.82559 2.3811 9.92559 2.3811C11.6256 2.3811 13.3256 2.3811 15.1256 2.3811C15.3256 2.3811 15.3256 2.38111 15.3256 2.68111V2.8811C15.3256 2.9811 15.3256 3.08111 15.3256 3.18111C15.3256 3.68111 15.7256 3.98111 16.2256 3.98111C16.7256 3.98111 17.0256 3.68111 17.1256 3.18111C17.1256 3.08111 17.1256 2.88111 17.1256 2.78111V2.68111C17.1256 1.38111 16.3256 0.581116 15.1256 0.581116H14.3256H12.6256H11.7256H10.0256C9.32562 0.581116 8.82559 0.881104 8.42559 1.3811C7.92559 1.9811 8.0256 2.68111 8.1256 3.28111C8.0256 3.78111 8.42561 3.98111 8.82561 3.98111Z" fill="#9A9A9A"/>
</svg>
