<svg width="27" height="27" viewBox="0 0 27 27" fill="none" xmlns="http://www.w3.org/2000/svg">
<path d="M13.8999 26.5C21.0796 26.5 26.8999 20.6797 26.8999 13.5C26.8999 6.3203 21.0796 0.5 13.8999 0.5C6.7202 0.5 0.899902 6.3203 0.899902 13.5C0.899902 20.6797 6.7202 26.5 13.8999 26.5Z" fill="white"/>
<path d="M14.6997 18.9C8.79971 18.9 5.39971 14.8 5.19971 8H8.19971C8.29971 13 10.4997 15.1 12.1997 15.5V8H14.9998V12.3C16.6998 12.1 18.4997 10.2 19.0997 8H21.8998C21.3998 10.7 19.4997 12.6 18.0997 13.4C19.4997 14.1 21.6997 15.8 22.5997 18.8H19.4998C18.7998 16.7 17.1998 15.1 14.9998 14.9V18.8H14.6997V18.9Z" fill="#2F65F6"/>
</svg>
