<svg width="17" height="21" viewBox="0 0 17 21" fill="none" xmlns="http://www.w3.org/2000/svg">
<path d="M11 0.599976C11.1 0.699976 11.2 0.799963 11.4 0.899963C13 2.49996 14.5 4.19996 16.1 5.79996C16.3 5.99996 16.4 6.19997 16.4 6.49997C16.4 10.3 16.4 14.2 16.4 18C16.4 19.4 15.6 20.4 14.3 20.7C14.1 20.7 13.9 20.8 13.7 20.8C10.2 20.8 6.70001 20.8 3.20001 20.8C1.60001 20.8 0.5 19.5999 0.5 18.0999C0.5 13.1999 0.5 8.29996 0.5 3.39996C0.5 2.09996 1.2 1.09998 2.5 0.699982H2.59998C5.19998 0.599982 8.1 0.599976 11 0.599976ZM10.3 1.59998C10.2 1.59998 10.2 1.59998 10.1 1.59998C7.69998 1.59998 5.4 1.59998 3 1.59998C1.9 1.59998 1.20001 2.29996 1.20001 3.39996C1.20001 8.29996 1.20001 13.1999 1.20001 18.0999C1.20001 19.1999 1.9 19.9 3 19.9C6.5 19.9 10 19.9 13.4 19.9C14.5 19.9 15.2 19.1999 15.2 18.0999C15.2 14.3999 15.2 10.8 15.2 7.09998C15.2 6.99998 15.2 6.99996 15.2 6.89996C14.3 6.89996 13.4 6.89996 12.5 6.89996C11.2 6.89996 10.3 5.99998 10.3 4.69998C10.3 3.79998 10.3 2.89997 10.3 1.99997C10.3 1.69997 10.3 1.69998 10.3 1.59998ZM14.6 5.79996C13.5 4.59996 12.4 3.49996 11.3 2.29996C11.3 2.39996 11.3 2.39996 11.3 2.39996C11.3 3.09996 11.3 3.79998 11.3 4.59998C11.3 5.29998 11.8 5.79996 12.5 5.79996C12.9 5.79996 13.4 5.79996 13.8 5.79996C14 5.79996 14.3 5.79996 14.6 5.79996Z" fill="#2F65F6"/>
<path d="M8.00064 11.7999C8.00064 11.8999 7.90067 11.8999 7.90067 11.9999C7.40067 13.0999 6.80063 14.2999 6.30063 15.3999C6.20063 15.5999 6.10063 15.6999 5.80063 15.7999C5.50063 15.7999 5.30065 15.6999 5.20065 15.2999C5.00065 14.5999 4.90065 13.8999 4.70065 13.2999C4.40065 12.0999 4.10063 10.7999 3.80063 9.59995C3.70063 9.19995 4.00067 8.79993 4.40067 8.79993C4.60067 8.79993 4.80067 8.99995 4.90067 9.19995C5.20067 10.6 5.60067 11.9999 5.90067 13.2999C5.90067 13.3999 5.90064 13.3999 6.00064 13.4999C6.00064 13.3999 6.10062 13.3999 6.10062 13.2999C6.60062 12.2999 7.10064 11.2 7.50064 10.2C7.60064 9.99995 7.80064 9.79993 8.00064 9.79993C8.30064 9.79993 8.40064 9.89995 8.50064 10.2C9.00064 11.2 9.50067 12.2999 9.90067 13.2999C9.90067 13.3999 10.0006 13.3999 10.0006 13.4999C10.1006 12.8999 10.3007 12.2999 10.4007 11.7999C10.6007 10.8999 10.8006 10.1 11.1006 9.19995C11.2006 8.89995 11.5006 8.69995 11.8006 8.69995C12.1006 8.79995 12.3007 9.09993 12.2007 9.39993C11.7007 11.2999 11.2007 13.3 10.7007 15.2C10.6007 15.5 10.4007 15.5999 10.2007 15.5999C9.90065 15.5999 9.70062 15.5 9.60062 15.2C9.10062 14.1 8.50064 12.8999 8.00064 11.7999C8.00064 11.8999 8.00064 11.9999 8.00064 11.7999Z" fill="#2F65F6"/>
</svg>
